G04*
G04 #@! TF.GenerationSoftware,Altium Limited,Altium Designer,22.9.1 (49)*
G04*
G04 Layer_Color=65535*
%FSLAX24Y24*%
%MOIN*%
G70*
G04*
G04 #@! TF.SameCoordinates,BC7F86F0-2A0E-43FE-BC97-1A6F13FA9336*
G04*
G04*
G04 #@! TF.FilePolarity,Positive*
G04*
G01*
G75*
%ADD10C,0.0100*%
%ADD11C,0.0050*%
D10*
X5654Y32016D02*
Y32803D01*
X5004D02*
X5654D01*
Y29811D02*
Y30598D01*
X5004Y29811D02*
X5654D01*
X15782Y32961D02*
X16569D01*
X15782D02*
Y34614D01*
X16569Y32961D02*
Y34614D01*
X15782D02*
X16569D01*
X69980Y38780D02*
Y39567D01*
X68327D02*
X69980D01*
X68327Y38780D02*
Y39567D01*
Y38780D02*
X69980D01*
X72205Y38091D02*
Y44291D01*
X66004D02*
X72205D01*
X66004Y38091D02*
Y44291D01*
Y38091D02*
X72205D01*
X65965Y31839D02*
X66752D01*
Y33492D01*
X65965D02*
X66752D01*
X65965Y31839D02*
Y33492D01*
X67965Y31839D02*
X68752D01*
Y33492D01*
X67965D02*
X68752D01*
X67965Y31839D02*
Y33492D01*
X69965Y31839D02*
X70752D01*
Y33492D01*
X69965D02*
X70752D01*
X69965Y31839D02*
Y33492D01*
X12500Y42244D02*
X13287D01*
X12500Y40591D02*
Y42244D01*
Y40591D02*
X13287D01*
Y42244D01*
X19993D02*
X20780D01*
X19993Y40591D02*
Y42244D01*
Y40591D02*
X20780D01*
Y42244D01*
X27485D02*
X28273D01*
X27485Y40591D02*
Y42244D01*
Y40591D02*
X28273D01*
Y42244D01*
X34978D02*
X35765D01*
X34978Y40591D02*
Y42244D01*
Y40591D02*
X35765D01*
Y42244D01*
X42470D02*
X43258D01*
X42470Y40591D02*
Y42244D01*
Y40591D02*
X43258D01*
Y42244D01*
X49963D02*
X50750D01*
X49963Y40591D02*
Y42244D01*
Y40591D02*
X50750D01*
Y42244D01*
X57456D02*
X58243D01*
X57456Y40591D02*
Y42244D01*
Y40591D02*
X58243D01*
Y42244D01*
X64948D02*
X65736D01*
X64948Y40591D02*
Y42244D01*
Y40591D02*
X65736D01*
Y42244D01*
X72441D02*
X73228D01*
X72441Y40591D02*
Y42244D01*
Y40591D02*
X73228D01*
Y42244D01*
X17782Y32961D02*
X18569D01*
X17782D02*
Y34614D01*
X18569Y32961D02*
Y34614D01*
X17782D02*
X18569D01*
X16782Y32961D02*
X17569D01*
X16782D02*
Y34614D01*
X17569Y32961D02*
Y34614D01*
X16782D02*
X17569D01*
X12205Y38091D02*
Y44291D01*
X6004D02*
X12205D01*
X6004Y38091D02*
Y44291D01*
Y38091D02*
X12205D01*
X19705D02*
Y44291D01*
X13504D02*
X19705D01*
X13504Y38091D02*
Y44291D01*
Y38091D02*
X19705D01*
X27205D02*
Y44291D01*
X21004D02*
X27205D01*
X21004Y38091D02*
Y44291D01*
Y38091D02*
X27205D01*
X34705D02*
Y44291D01*
X28504D02*
X34705D01*
X28504Y38091D02*
Y44291D01*
Y38091D02*
X34705D01*
X42205Y38075D02*
Y44276D01*
X36004D02*
X42205D01*
X36004Y38075D02*
Y44276D01*
Y38075D02*
X42205D01*
X49705Y38091D02*
Y44291D01*
X43504D02*
X49705D01*
X43504Y38091D02*
Y44291D01*
Y38091D02*
X49705D01*
X57205Y38075D02*
Y44276D01*
X51004D02*
X57205D01*
X51004Y38075D02*
Y44276D01*
Y38075D02*
X57205D01*
X64705Y38091D02*
Y44291D01*
X58504D02*
X64705D01*
X58504Y38091D02*
Y44291D01*
Y38091D02*
X64705D01*
X9980Y38780D02*
Y39567D01*
X8327D02*
X9980D01*
X8327Y38780D02*
Y39567D01*
Y38780D02*
X9980D01*
X17480D02*
Y39567D01*
X15827D02*
X17480D01*
X15827Y38780D02*
Y39567D01*
Y38780D02*
X17480D01*
X24980D02*
Y39567D01*
X23327D02*
X24980D01*
X23327Y38780D02*
Y39567D01*
Y38780D02*
X24980D01*
X32480D02*
Y39567D01*
X30827D02*
X32480D01*
X30827Y38780D02*
Y39567D01*
Y38780D02*
X32480D01*
X39980D02*
Y39567D01*
X38327D02*
X39980D01*
X38327Y38780D02*
Y39567D01*
Y38780D02*
X39980D01*
X47480D02*
Y39567D01*
X45827D02*
X47480D01*
X45827Y38780D02*
Y39567D01*
Y38780D02*
X47480D01*
X54980D02*
Y39567D01*
X53327D02*
X54980D01*
X53327Y38780D02*
Y39567D01*
Y38780D02*
X54980D01*
X62480D02*
Y39567D01*
X60827D02*
X62480D01*
X60827Y38780D02*
Y39567D01*
Y38780D02*
X62480D01*
D11*
X6368Y31457D02*
X6568Y31157D01*
Y31457D02*
X6368Y31157D01*
X6868Y31457D02*
X6768Y31407D01*
X6668Y31307D01*
Y31207D01*
X6718Y31157D01*
X6818D01*
X6868Y31207D01*
Y31257D01*
X6818Y31307D01*
X6668D01*
X16318Y31956D02*
X16018D01*
Y32106D01*
X16068Y32156D01*
X16168D01*
X16218Y32106D01*
Y31956D01*
Y32056D02*
X16318Y32156D01*
Y32256D02*
Y32356D01*
Y32306D01*
X16018D01*
X16068Y32256D01*
X16318Y32706D02*
Y32506D01*
X16118Y32706D01*
X16068D01*
X16018Y32656D01*
Y32556D01*
X16068Y32506D01*
X70173Y39323D02*
Y39024D01*
X70323D01*
X70373Y39074D01*
Y39273D01*
X70323Y39323D01*
X70173D01*
X70473Y39074D02*
X70523Y39024D01*
X70623D01*
X70673Y39074D01*
Y39273D01*
X70623Y39323D01*
X70523D01*
X70473Y39273D01*
Y39223D01*
X70523Y39173D01*
X70673D01*
X71165Y44911D02*
X71115Y44961D01*
X71015D01*
X70965Y44911D01*
Y44861D01*
X71015Y44811D01*
X71115D01*
X71165Y44761D01*
Y44711D01*
X71115Y44661D01*
X71015D01*
X70965Y44711D01*
X71265Y44961D02*
Y44661D01*
X71365Y44761D01*
X71465Y44661D01*
Y44961D01*
X71565Y44711D02*
X71615Y44661D01*
X71715D01*
X71765Y44711D01*
Y44911D01*
X71715Y44961D01*
X71615D01*
X71565Y44911D01*
Y44861D01*
X71615Y44811D01*
X71765D01*
X66232Y33779D02*
X66532D01*
Y33929D01*
X66482Y33979D01*
X66282D01*
X66232Y33929D01*
Y33779D01*
X66532Y34079D02*
Y34179D01*
Y34129D01*
X66232D01*
X66282Y34079D01*
Y34328D02*
X66232Y34378D01*
Y34478D01*
X66282Y34528D01*
X66482D01*
X66532Y34478D01*
Y34378D01*
X66482Y34328D01*
X66282D01*
X68216Y33779D02*
X68516D01*
Y33929D01*
X68466Y33979D01*
X68266D01*
X68216Y33929D01*
Y33779D01*
X68516Y34079D02*
Y34179D01*
Y34129D01*
X68216D01*
X68266Y34079D01*
X68516Y34328D02*
Y34428D01*
Y34378D01*
X68216D01*
X68266Y34328D01*
X70200Y33779D02*
X70500D01*
Y33929D01*
X70450Y33979D01*
X70250D01*
X70200Y33929D01*
Y33779D01*
X70500Y34079D02*
Y34179D01*
Y34129D01*
X70200D01*
X70250Y34079D01*
X70500Y34528D02*
Y34328D01*
X70300Y34528D01*
X70250D01*
X70200Y34478D01*
Y34378D01*
X70250Y34328D01*
X13067Y42426D02*
X12767D01*
Y42576D01*
X12817Y42626D01*
X12917D01*
X12967Y42576D01*
Y42426D01*
Y42526D02*
X13067Y42626D01*
Y42726D02*
Y42826D01*
Y42776D01*
X12767D01*
X12817Y42726D01*
X20548Y42474D02*
X20248D01*
Y42624D01*
X20298Y42674D01*
X20398D01*
X20448Y42624D01*
Y42474D01*
Y42574D02*
X20548Y42674D01*
Y42974D02*
Y42774D01*
X20348Y42974D01*
X20298D01*
X20248Y42924D01*
Y42824D01*
X20298Y42774D01*
X28028Y42474D02*
X27728D01*
Y42624D01*
X27778Y42674D01*
X27878D01*
X27928Y42624D01*
Y42474D01*
Y42574D02*
X28028Y42674D01*
X27778Y42774D02*
X27728Y42824D01*
Y42924D01*
X27778Y42974D01*
X27828D01*
X27878Y42924D01*
Y42874D01*
Y42924D01*
X27928Y42974D01*
X27978D01*
X28028Y42924D01*
Y42824D01*
X27978Y42774D01*
X35508Y42474D02*
X35208D01*
Y42624D01*
X35258Y42674D01*
X35358D01*
X35408Y42624D01*
Y42474D01*
Y42574D02*
X35508Y42674D01*
Y42924D02*
X35208D01*
X35358Y42774D01*
Y42974D01*
X42989Y42474D02*
X42689D01*
Y42624D01*
X42739Y42674D01*
X42839D01*
X42889Y42624D01*
Y42474D01*
Y42574D02*
X42989Y42674D01*
X42689Y42974D02*
Y42774D01*
X42839D01*
X42789Y42874D01*
Y42924D01*
X42839Y42974D01*
X42939D01*
X42989Y42924D01*
Y42824D01*
X42939Y42774D01*
X50469Y42474D02*
X50169D01*
Y42624D01*
X50219Y42674D01*
X50319D01*
X50369Y42624D01*
Y42474D01*
Y42574D02*
X50469Y42674D01*
X50169Y42974D02*
X50219Y42874D01*
X50319Y42774D01*
X50419D01*
X50469Y42824D01*
Y42924D01*
X50419Y42974D01*
X50369D01*
X50319Y42924D01*
Y42774D01*
X58048Y42474D02*
X57748D01*
Y42624D01*
X57798Y42674D01*
X57898D01*
X57948Y42624D01*
Y42474D01*
Y42574D02*
X58048Y42674D01*
X57748Y42774D02*
Y42974D01*
X57798D01*
X57998Y42774D01*
X58048D01*
X65528Y42474D02*
X65228D01*
Y42624D01*
X65278Y42674D01*
X65378D01*
X65428Y42624D01*
Y42474D01*
Y42574D02*
X65528Y42674D01*
X65278Y42774D02*
X65228Y42824D01*
Y42924D01*
X65278Y42974D01*
X65328D01*
X65378Y42924D01*
X65428Y42974D01*
X65478D01*
X65528Y42924D01*
Y42824D01*
X65478Y42774D01*
X65428D01*
X65378Y42824D01*
X65328Y42774D01*
X65278D01*
X65378Y42824D02*
Y42924D01*
X73008Y42474D02*
X72708D01*
Y42624D01*
X72758Y42674D01*
X72858D01*
X72908Y42624D01*
Y42474D01*
Y42574D02*
X73008Y42674D01*
X72958Y42774D02*
X73008Y42824D01*
Y42924D01*
X72958Y42974D01*
X72758D01*
X72708Y42924D01*
Y42824D01*
X72758Y42774D01*
X72808D01*
X72858Y42824D01*
Y42974D01*
X18318Y31956D02*
X18018D01*
Y32106D01*
X18068Y32156D01*
X18168D01*
X18218Y32106D01*
Y31956D01*
Y32056D02*
X18318Y32156D01*
Y32256D02*
Y32356D01*
Y32306D01*
X18018D01*
X18068Y32256D01*
Y32506D02*
X18018Y32556D01*
Y32656D01*
X18068Y32706D01*
X18268D01*
X18318Y32656D01*
Y32556D01*
X18268Y32506D01*
X18068D01*
X17318Y31956D02*
X17018D01*
Y32106D01*
X17068Y32156D01*
X17168D01*
X17218Y32106D01*
Y31956D01*
Y32056D02*
X17318Y32156D01*
Y32256D02*
Y32356D01*
Y32306D01*
X17018D01*
X17068Y32256D01*
X17318Y32506D02*
Y32606D01*
Y32556D01*
X17018D01*
X17068Y32506D01*
X11389Y44911D02*
X11339Y44961D01*
X11239D01*
X11189Y44911D01*
Y44861D01*
X11239Y44811D01*
X11339D01*
X11389Y44761D01*
Y44711D01*
X11339Y44661D01*
X11239D01*
X11189Y44711D01*
X11489Y44961D02*
Y44661D01*
X11589Y44761D01*
X11689Y44661D01*
Y44961D01*
X11789Y44661D02*
X11889D01*
X11839D01*
Y44961D01*
X11789Y44911D01*
X18644D02*
X18594Y44961D01*
X18494D01*
X18444Y44911D01*
Y44861D01*
X18494Y44811D01*
X18594D01*
X18644Y44761D01*
Y44711D01*
X18594Y44661D01*
X18494D01*
X18444Y44711D01*
X18744Y44961D02*
Y44661D01*
X18844Y44761D01*
X18944Y44661D01*
Y44961D01*
X19244Y44661D02*
X19044D01*
X19244Y44861D01*
Y44911D01*
X19194Y44961D01*
X19094D01*
X19044Y44911D01*
X26161D02*
X26111Y44961D01*
X26011D01*
X25961Y44911D01*
Y44861D01*
X26011Y44811D01*
X26111D01*
X26161Y44761D01*
Y44711D01*
X26111Y44661D01*
X26011D01*
X25961Y44711D01*
X26261Y44961D02*
Y44661D01*
X26361Y44761D01*
X26460Y44661D01*
Y44961D01*
X26560Y44911D02*
X26610Y44961D01*
X26710D01*
X26760Y44911D01*
Y44861D01*
X26710Y44811D01*
X26660D01*
X26710D01*
X26760Y44761D01*
Y44711D01*
X26710Y44661D01*
X26610D01*
X26560Y44711D01*
X33787Y44911D02*
X33737Y44961D01*
X33637D01*
X33587Y44911D01*
Y44861D01*
X33637Y44811D01*
X33737D01*
X33787Y44761D01*
Y44711D01*
X33737Y44661D01*
X33637D01*
X33587Y44711D01*
X33887Y44961D02*
Y44661D01*
X33987Y44761D01*
X34087Y44661D01*
Y44961D01*
X34337Y44661D02*
Y44961D01*
X34187Y44811D01*
X34387D01*
X41209Y44911D02*
X41159Y44961D01*
X41059D01*
X41009Y44911D01*
Y44861D01*
X41059Y44811D01*
X41159D01*
X41209Y44761D01*
Y44711D01*
X41159Y44661D01*
X41059D01*
X41009Y44711D01*
X41309Y44961D02*
Y44661D01*
X41409Y44761D01*
X41509Y44661D01*
Y44961D01*
X41809D02*
X41609D01*
Y44811D01*
X41709Y44861D01*
X41759D01*
X41809Y44811D01*
Y44711D01*
X41759Y44661D01*
X41659D01*
X41609Y44711D01*
X48679Y44911D02*
X48629Y44961D01*
X48529D01*
X48479Y44911D01*
Y44861D01*
X48529Y44811D01*
X48629D01*
X48679Y44761D01*
Y44711D01*
X48629Y44661D01*
X48529D01*
X48479Y44711D01*
X48779Y44961D02*
Y44661D01*
X48878Y44761D01*
X48978Y44661D01*
Y44961D01*
X49278D02*
X49178Y44911D01*
X49078Y44811D01*
Y44711D01*
X49128Y44661D01*
X49228D01*
X49278Y44711D01*
Y44761D01*
X49228Y44811D01*
X49078D01*
X56305Y44911D02*
X56255Y44961D01*
X56155D01*
X56105Y44911D01*
Y44861D01*
X56155Y44811D01*
X56255D01*
X56305Y44761D01*
Y44711D01*
X56255Y44661D01*
X56155D01*
X56105Y44711D01*
X56405Y44961D02*
Y44661D01*
X56505Y44761D01*
X56605Y44661D01*
Y44961D01*
X56705D02*
X56905D01*
Y44911D01*
X56705Y44711D01*
Y44661D01*
X63664Y44911D02*
X63614Y44961D01*
X63514D01*
X63464Y44911D01*
Y44861D01*
X63514Y44811D01*
X63614D01*
X63664Y44761D01*
Y44711D01*
X63614Y44661D01*
X63514D01*
X63464Y44711D01*
X63764Y44961D02*
Y44661D01*
X63864Y44761D01*
X63964Y44661D01*
Y44961D01*
X64064Y44911D02*
X64114Y44961D01*
X64214D01*
X64264Y44911D01*
Y44861D01*
X64214Y44811D01*
X64264Y44761D01*
Y44711D01*
X64214Y44661D01*
X64114D01*
X64064Y44711D01*
Y44761D01*
X64114Y44811D01*
X64064Y44861D01*
Y44911D01*
X64114Y44811D02*
X64214D01*
X10184Y39347D02*
Y39047D01*
X10334D01*
X10384Y39097D01*
Y39297D01*
X10334Y39347D01*
X10184D01*
X10484Y39047D02*
X10584D01*
X10534D01*
Y39347D01*
X10484Y39297D01*
X17688Y39323D02*
Y39024D01*
X17838D01*
X17888Y39074D01*
Y39273D01*
X17838Y39323D01*
X17688D01*
X18188Y39024D02*
X17988D01*
X18188Y39223D01*
Y39273D01*
X18138Y39323D01*
X18038D01*
X17988Y39273D01*
X25176Y39319D02*
Y39019D01*
X25326D01*
X25376Y39069D01*
Y39269D01*
X25326Y39319D01*
X25176D01*
X25476Y39269D02*
X25526Y39319D01*
X25626D01*
X25676Y39269D01*
Y39219D01*
X25626Y39169D01*
X25576D01*
X25626D01*
X25676Y39119D01*
Y39069D01*
X25626Y39019D01*
X25526D01*
X25476Y39069D01*
X32702Y39323D02*
Y39024D01*
X32851D01*
X32901Y39074D01*
Y39273D01*
X32851Y39323D01*
X32702D01*
X33151Y39024D02*
Y39323D01*
X33001Y39173D01*
X33201D01*
X40226Y39331D02*
Y39031D01*
X40376D01*
X40426Y39081D01*
Y39281D01*
X40376Y39331D01*
X40226D01*
X40726D02*
X40526D01*
Y39181D01*
X40626Y39231D01*
X40676D01*
X40726Y39181D01*
Y39081D01*
X40676Y39031D01*
X40576D01*
X40526Y39081D01*
X47707Y39331D02*
Y39031D01*
X47857D01*
X47907Y39081D01*
Y39281D01*
X47857Y39331D01*
X47707D01*
X48207D02*
X48107Y39281D01*
X48007Y39181D01*
Y39081D01*
X48057Y39031D01*
X48157D01*
X48207Y39081D01*
Y39131D01*
X48157Y39181D01*
X48007D01*
X55187Y39331D02*
Y39031D01*
X55337D01*
X55387Y39081D01*
Y39281D01*
X55337Y39331D01*
X55187D01*
X55487D02*
X55687D01*
Y39281D01*
X55487Y39081D01*
Y39031D01*
X62667Y39331D02*
Y39031D01*
X62817D01*
X62867Y39081D01*
Y39281D01*
X62817Y39331D01*
X62667D01*
X62967Y39281D02*
X63017Y39331D01*
X63117D01*
X63167Y39281D01*
Y39231D01*
X63117Y39181D01*
X63167Y39131D01*
Y39081D01*
X63117Y39031D01*
X63017D01*
X62967Y39081D01*
Y39131D01*
X63017Y39181D01*
X62967Y39231D01*
Y39281D01*
X63017Y39181D02*
X63117D01*
M02*
