G04*
G04 #@! TF.GenerationSoftware,Altium Limited,Altium Designer,22.7.1 (60)*
G04*
G04 Layer_Color=128*
%FSLAX44Y44*%
%MOMM*%
G71*
G04*
G04 #@! TF.SameCoordinates,F6FBF88A-0173-4DF4-8E5B-E9623FF455CC*
G04*
G04*
G04 #@! TF.FilePolarity,Positive*
G04*
G01*
G75*
%ADD46C,0.0508*%
D46*
X-229750Y135000D02*
X-224250D01*
X-227000Y132250D02*
Y137750D01*
X-229750Y85000D02*
X-224250D01*
X-227000Y82250D02*
Y87750D01*
X-257000Y145000D02*
X-251000D01*
X-254000Y142000D02*
Y148000D01*
X-257000Y75000D02*
X-251000D01*
X-254000Y72000D02*
Y78000D01*
X854800Y214800D02*
X868800D01*
X861800Y207800D02*
Y221800D01*
X804000Y214800D02*
X818000D01*
X811000Y207800D02*
Y221800D01*
X905600Y214800D02*
X919600D01*
X912600Y207800D02*
Y221800D01*
X702400Y214800D02*
X716400D01*
X709400Y207800D02*
Y221800D01*
X753200Y214800D02*
X767200D01*
X760200Y207800D02*
Y221800D01*
X956400Y214800D02*
X970400D01*
X963400Y207800D02*
Y221800D01*
X1007200Y214800D02*
X1021200D01*
X1014200Y207800D02*
Y221800D01*
X651600Y214800D02*
X665600D01*
X658600Y207800D02*
Y221800D01*
X1406300Y410600D02*
X1421300D01*
X1413800Y403100D02*
Y418100D01*
X1367900Y359800D02*
X1408900D01*
X1388400Y339300D02*
Y380300D01*
X1342800Y385200D02*
X1357800D01*
X1350300Y377700D02*
Y392700D01*
X190164Y242700D02*
X200164D01*
X195164Y237700D02*
Y247700D01*
X215564Y242700D02*
X225564D01*
X220564Y237700D02*
Y247700D01*
X164764Y242700D02*
X174764D01*
X169764Y237700D02*
Y247700D01*
X266364Y242700D02*
X276364D01*
X271364Y237700D02*
Y247700D01*
X291764Y242700D02*
X301764D01*
X296764Y237700D02*
Y247700D01*
X240964Y242700D02*
X250964D01*
X245964Y237700D02*
Y247700D01*
X63164Y242700D02*
X73164D01*
X68164Y237700D02*
Y247700D01*
X88564Y242700D02*
X98564D01*
X93564Y237700D02*
Y247700D01*
X37764Y242700D02*
X47764D01*
X42764Y237700D02*
Y247700D01*
X113964Y242700D02*
X123964D01*
X118964Y237700D02*
Y247700D01*
X139364Y242700D02*
X149364D01*
X144364Y237700D02*
Y247700D01*
X37764Y217300D02*
X47764D01*
X42764Y212300D02*
Y222300D01*
X215564Y217300D02*
X225564D01*
X220564Y212300D02*
Y222300D01*
X190164Y217300D02*
X200164D01*
X195164Y212300D02*
Y222300D01*
X266364Y217300D02*
X276364D01*
X271364Y212300D02*
Y222300D01*
X291764Y217300D02*
X301764D01*
X296764Y212300D02*
Y222300D01*
X240964Y217300D02*
X250964D01*
X245964Y212300D02*
Y222300D01*
X88564Y217300D02*
X98564D01*
X93564Y212300D02*
Y222300D01*
X113964Y217300D02*
X123964D01*
X118964Y212300D02*
Y222300D01*
X63164Y217300D02*
X73164D01*
X68164Y212300D02*
Y222300D01*
X164764Y217300D02*
X174764D01*
X169764Y212300D02*
Y222300D01*
X139364Y217300D02*
X149364D01*
X144364Y212300D02*
Y222300D01*
X-89236Y242700D02*
X-79236D01*
X-84236Y237700D02*
Y247700D01*
X-63836Y242700D02*
X-53836D01*
X-58836Y237700D02*
Y247700D01*
X-13036Y242700D02*
X-3036D01*
X-8036Y237700D02*
Y247700D01*
X12364Y242700D02*
X22364D01*
X17364Y237700D02*
Y247700D01*
X-38436Y242700D02*
X-28436D01*
X-33436Y237700D02*
Y247700D01*
X-165436Y242700D02*
X-155436D01*
X-160436Y237700D02*
Y247700D01*
X-140036Y242700D02*
X-130036D01*
X-135036Y237700D02*
Y247700D01*
X-190836Y242700D02*
X-180836D01*
X-185836Y237700D02*
Y247700D01*
X-114636Y242700D02*
X-104636D01*
X-109636Y237700D02*
Y247700D01*
X-190836Y217300D02*
X-180836D01*
X-185836Y212300D02*
Y222300D01*
X-63836Y217300D02*
X-53836D01*
X-58836Y212300D02*
Y222300D01*
X-38436Y217300D02*
X-28436D01*
X-33436Y212300D02*
Y222300D01*
X-13036Y217300D02*
X-3036D01*
X-8036Y212300D02*
Y222300D01*
X12364Y217300D02*
X22364D01*
X17364Y212300D02*
Y222300D01*
X-165436Y217300D02*
X-155436D01*
X-160436Y212300D02*
Y222300D01*
X-140036Y217300D02*
X-130036D01*
X-135036Y212300D02*
Y222300D01*
X-89236Y217300D02*
X-79236D01*
X-84236Y212300D02*
Y222300D01*
X-114636Y217300D02*
X-104636D01*
X-109636Y212300D02*
Y222300D01*
X-117700Y410600D02*
X-102700D01*
X-110200Y403100D02*
Y418100D01*
X-156100Y359800D02*
X-115100D01*
X-135600Y339300D02*
Y380300D01*
X-181200Y385200D02*
X-166200D01*
X-173700Y377700D02*
Y392700D01*
X72800Y410600D02*
X87800D01*
X80300Y403100D02*
Y418100D01*
X34400Y359800D02*
X75400D01*
X54900Y339300D02*
Y380300D01*
X9300Y385200D02*
X24300D01*
X16800Y377700D02*
Y392700D01*
X263300Y410600D02*
X278300D01*
X270800Y403100D02*
Y418100D01*
X224900Y359800D02*
X265900D01*
X245400Y339300D02*
Y380300D01*
X199800Y385200D02*
X214800D01*
X207300Y377700D02*
Y392700D01*
X453800Y410600D02*
X468800D01*
X461300Y403100D02*
Y418100D01*
X415400Y359800D02*
X456400D01*
X435900Y339300D02*
Y380300D01*
X390300Y385200D02*
X405300D01*
X397800Y377700D02*
Y392700D01*
X644300Y410200D02*
X659300D01*
X651800Y402700D02*
Y417700D01*
X605900Y359400D02*
X646900D01*
X626400Y338900D02*
Y379900D01*
X580800Y384800D02*
X595800D01*
X588300Y377300D02*
Y392300D01*
X834800Y410600D02*
X849800D01*
X842300Y403100D02*
Y418100D01*
X796400Y359800D02*
X837400D01*
X816900Y339300D02*
Y380300D01*
X771300Y385200D02*
X786300D01*
X778800Y377700D02*
Y392700D01*
X1025300Y410200D02*
X1040300D01*
X1032800Y402700D02*
Y417700D01*
X986900Y359400D02*
X1027900D01*
X1007400Y338900D02*
Y379900D01*
X961800Y384800D02*
X976800D01*
X969300Y377300D02*
Y392300D01*
X1215800Y410600D02*
X1230800D01*
X1223300Y403100D02*
Y418100D01*
X1177400Y359800D02*
X1218400D01*
X1197900Y339300D02*
Y380300D01*
X1152300Y385200D02*
X1167300D01*
X1159800Y377700D02*
Y392700D01*
X1232400Y214800D02*
X1246400D01*
X1239400Y207800D02*
Y221800D01*
X1435600Y214800D02*
X1449600D01*
X1442600Y207800D02*
Y221800D01*
X1283200Y214800D02*
X1297200D01*
X1290200Y207800D02*
Y221800D01*
X1384800Y214800D02*
X1398800D01*
X1391800Y207800D02*
Y221800D01*
X1334000Y214800D02*
X1348000D01*
X1341000Y207800D02*
Y221800D01*
X1181600Y214800D02*
X1195600D01*
X1188600Y207800D02*
Y221800D01*
X1130800Y214800D02*
X1144800D01*
X1137800Y207800D02*
Y221800D01*
X1080000Y214800D02*
X1094000D01*
X1087000Y207800D02*
Y221800D01*
X854800Y30000D02*
X868800D01*
X861800Y23000D02*
Y37000D01*
X804000Y30000D02*
X818000D01*
X811000Y23000D02*
Y37000D01*
X905600Y30000D02*
X919600D01*
X912600Y23000D02*
Y37000D01*
X702400Y30000D02*
X716400D01*
X709400Y23000D02*
Y37000D01*
X753200Y30000D02*
X767200D01*
X760200Y23000D02*
Y37000D01*
X956400Y30000D02*
X970400D01*
X963400Y23000D02*
Y37000D01*
X1007200Y30000D02*
X1021200D01*
X1014200Y23000D02*
Y37000D01*
X651600Y30000D02*
X665600D01*
X658600Y23000D02*
Y37000D01*
X1232400Y30000D02*
X1246400D01*
X1239400Y23000D02*
Y37000D01*
X1435600Y30000D02*
X1449600D01*
X1442600Y23000D02*
Y37000D01*
X1283200Y30000D02*
X1297200D01*
X1290200Y23000D02*
Y37000D01*
X1384800Y30000D02*
X1398800D01*
X1391800Y23000D02*
Y37000D01*
X1334000Y30000D02*
X1348000D01*
X1341000Y23000D02*
Y37000D01*
X1181600Y30000D02*
X1195600D01*
X1188600Y23000D02*
Y37000D01*
X1130800Y30000D02*
X1144800D01*
X1137800Y23000D02*
Y37000D01*
X1080000Y30000D02*
X1094000D01*
X1087000Y23000D02*
Y37000D01*
X322964Y0D02*
X367964D01*
X345464Y-22500D02*
Y22500D01*
X-257036Y0D02*
X-212036D01*
X-234536Y-22500D02*
Y22500D01*
X-257036Y230000D02*
X-212036D01*
X-234536Y207500D02*
Y252500D01*
X322964Y230000D02*
X367964D01*
X345464Y207500D02*
Y252500D01*
X1031250Y130000D02*
X1058750D01*
X1045000Y116250D02*
Y143750D01*
X-13750Y0D02*
X13750D01*
X0Y-13750D02*
Y13750D01*
X246250Y480000D02*
X273750D01*
X260000Y466250D02*
Y493750D01*
X981250Y480000D02*
X1008750D01*
X995000Y466250D02*
Y493750D01*
X981250Y480000D02*
X1008750D01*
X995000Y466250D02*
Y493750D01*
X1471250Y480000D02*
X1498750D01*
X1485000Y466250D02*
Y493750D01*
X1471250Y130000D02*
X1498750D01*
X1485000Y116250D02*
Y143750D01*
X-243750Y480000D02*
X-216250D01*
X-230000Y466250D02*
Y493750D01*
X506250Y0D02*
X533750D01*
X520000Y-13750D02*
Y13750D01*
X506250Y230000D02*
X533750D01*
X520000Y216250D02*
Y243750D01*
X304031Y277742D02*
X311143D01*
X307587Y274186D02*
Y281298D01*
X140808Y277742D02*
X147920D01*
X144364Y274186D02*
Y281298D01*
M02*
