G04*
G04 #@! TF.GenerationSoftware,Altium Limited,Altium Designer,22.9.1 (49)*
G04*
G04 Layer_Color=128*
%FSLAX24Y24*%
%MOIN*%
G70*
G04*
G04 #@! TF.SameCoordinates,BC7F86F0-2A0E-43FE-BC97-1A6F13FA9336*
G04*
G04*
G04 #@! TF.FilePolarity,Positive*
G04*
G01*
G75*
%ADD41C,0.0020*%
D41*
X5289Y32094D02*
X5545D01*
X5417Y31967D02*
Y32222D01*
X5289Y30520D02*
X5545D01*
X5417Y30392D02*
Y30648D01*
X48146Y35433D02*
X48697D01*
X48421Y35157D02*
Y35709D01*
X46146Y35433D02*
X46697D01*
X46421Y35157D02*
Y35709D01*
X50146Y35433D02*
X50697D01*
X50421Y35157D02*
Y35709D01*
X42146Y35433D02*
X42697D01*
X42421Y35157D02*
Y35709D01*
X44146Y35433D02*
X44697D01*
X44421Y35157D02*
Y35709D01*
X52146Y35433D02*
X52697D01*
X52421Y35157D02*
Y35709D01*
X54146Y35433D02*
X54697D01*
X54421Y35157D02*
Y35709D01*
X40146Y35433D02*
X40697D01*
X40421Y35157D02*
Y35709D01*
X69858Y43142D02*
X70449D01*
X70154Y42846D02*
Y43437D01*
X68346Y41142D02*
X69961D01*
X69154Y40335D02*
Y41949D01*
X67358Y42142D02*
X67949D01*
X67654Y41846D02*
Y42437D01*
X9979Y35531D02*
X10373D01*
X10176Y35335D02*
Y35728D01*
X10979Y35531D02*
X11373D01*
X11176Y35335D02*
Y35728D01*
X8979Y35531D02*
X9373D01*
X9176Y35335D02*
Y35728D01*
X7979Y35531D02*
X8373D01*
X8176Y35335D02*
Y35728D01*
X14979Y35531D02*
X15373D01*
X15176Y35335D02*
Y35728D01*
X13979Y35531D02*
X14373D01*
X14176Y35335D02*
Y35728D01*
X12979Y35531D02*
X13373D01*
X13176Y35335D02*
Y35728D01*
X11979Y35531D02*
X12373D01*
X12176Y35335D02*
Y35728D01*
X6979Y35531D02*
X7373D01*
X7176Y35335D02*
Y35728D01*
X9979Y36532D02*
X10373D01*
X10176Y36335D02*
Y36728D01*
X6979Y36532D02*
X7373D01*
X7176Y36335D02*
Y36728D01*
X8979Y36532D02*
X9373D01*
X9176Y36335D02*
Y36728D01*
X7979Y36532D02*
X8373D01*
X8176Y36335D02*
Y36728D01*
X12979Y36532D02*
X13373D01*
X13176Y36335D02*
Y36728D01*
X14979Y36532D02*
X15373D01*
X15176Y36335D02*
Y36728D01*
X13979Y36532D02*
X14373D01*
X14176Y36335D02*
Y36728D01*
X11979Y36532D02*
X12373D01*
X12176Y36335D02*
Y36728D01*
X10979Y36532D02*
X11373D01*
X11176Y36335D02*
Y36728D01*
X19979Y35531D02*
X20373D01*
X20176Y35335D02*
Y35728D01*
X20979Y35531D02*
X21373D01*
X21176Y35335D02*
Y35728D01*
X16979Y35531D02*
X17373D01*
X17176Y35335D02*
Y35728D01*
X18979Y35531D02*
X19373D01*
X19176Y35335D02*
Y35728D01*
X17979Y35531D02*
X18373D01*
X18176Y35335D02*
Y35728D01*
X23979Y35531D02*
X24373D01*
X24176Y35335D02*
Y35728D01*
X25979Y35531D02*
X26373D01*
X26176Y35335D02*
Y35728D01*
X24979Y35531D02*
X25373D01*
X25176Y35335D02*
Y35728D01*
X21979Y35531D02*
X22373D01*
X22176Y35335D02*
Y35728D01*
X22979Y35531D02*
X23373D01*
X23176Y35335D02*
Y35728D01*
X15979Y35531D02*
X16373D01*
X16176Y35335D02*
Y35728D01*
X19979Y36532D02*
X20373D01*
X20176Y36335D02*
Y36728D01*
X18979Y36532D02*
X19373D01*
X19176Y36335D02*
Y36728D01*
X15979Y36532D02*
X16373D01*
X16176Y36335D02*
Y36728D01*
X17979Y36532D02*
X18373D01*
X18176Y36335D02*
Y36728D01*
X16979Y36532D02*
X17373D01*
X17176Y36335D02*
Y36728D01*
X23979Y36532D02*
X24373D01*
X24176Y36335D02*
Y36728D01*
X25979Y36532D02*
X26373D01*
X26176Y36335D02*
Y36728D01*
X24979Y36532D02*
X25373D01*
X25176Y36335D02*
Y36728D01*
X20979Y36532D02*
X21373D01*
X21176Y36335D02*
Y36728D01*
X22979Y36532D02*
X23373D01*
X23176Y36335D02*
Y36728D01*
X21979Y36532D02*
X22373D01*
X22176Y36335D02*
Y36728D01*
X9858Y43142D02*
X10449D01*
X10154Y42846D02*
Y43437D01*
X8346Y41142D02*
X9961D01*
X9154Y40335D02*
Y41949D01*
X7358Y42142D02*
X7949D01*
X7654Y41846D02*
Y42437D01*
X17358Y43142D02*
X17949D01*
X17654Y42846D02*
Y43437D01*
X15846Y41142D02*
X17461D01*
X16654Y40335D02*
Y41949D01*
X14858Y42142D02*
X15449D01*
X15154Y41846D02*
Y42437D01*
X24858Y43142D02*
X25449D01*
X25154Y42846D02*
Y43437D01*
X23346Y41142D02*
X24961D01*
X24154Y40335D02*
Y41949D01*
X22358Y42142D02*
X22949D01*
X22654Y41846D02*
Y42437D01*
X32358Y43142D02*
X32949D01*
X32654Y42846D02*
Y43437D01*
X30846Y41142D02*
X32461D01*
X31654Y40335D02*
Y41949D01*
X29858Y42142D02*
X30449D01*
X30154Y41846D02*
Y42437D01*
X39858Y43126D02*
X40449D01*
X40154Y42831D02*
Y43421D01*
X38346Y41126D02*
X39961D01*
X39154Y40319D02*
Y41933D01*
X37358Y42126D02*
X37949D01*
X37654Y41831D02*
Y42421D01*
X47358Y43142D02*
X47949D01*
X47654Y42846D02*
Y43437D01*
X45846Y41142D02*
X47461D01*
X46654Y40335D02*
Y41949D01*
X44858Y42142D02*
X45449D01*
X45154Y41846D02*
Y42437D01*
X54858Y43126D02*
X55449D01*
X55154Y42831D02*
Y43421D01*
X53346Y41126D02*
X54961D01*
X54154Y40319D02*
Y41933D01*
X52358Y42126D02*
X52949D01*
X52654Y41831D02*
Y42421D01*
X62358Y43142D02*
X62949D01*
X62654Y42846D02*
Y43437D01*
X60846Y41142D02*
X62461D01*
X61654Y40335D02*
Y41949D01*
X59858Y42142D02*
X60449D01*
X60154Y41846D02*
Y42437D01*
X63012Y35433D02*
X63563D01*
X63287Y35157D02*
Y35709D01*
X71012Y35433D02*
X71563D01*
X71287Y35157D02*
Y35709D01*
X65012Y35433D02*
X65563D01*
X65287Y35157D02*
Y35709D01*
X69012Y35433D02*
X69563D01*
X69287Y35157D02*
Y35709D01*
X67012Y35433D02*
X67563D01*
X67287Y35157D02*
Y35709D01*
X61012Y35433D02*
X61563D01*
X61287Y35157D02*
Y35709D01*
X59012Y35433D02*
X59563D01*
X59287Y35157D02*
Y35709D01*
X57012Y35433D02*
X57563D01*
X57287Y35157D02*
Y35709D01*
X48146Y28157D02*
X48697D01*
X48421Y27882D02*
Y28433D01*
X46146Y28157D02*
X46697D01*
X46421Y27882D02*
Y28433D01*
X50146Y28157D02*
X50697D01*
X50421Y27882D02*
Y28433D01*
X42146Y28157D02*
X42697D01*
X42421Y27882D02*
Y28433D01*
X44146Y28157D02*
X44697D01*
X44421Y27882D02*
Y28433D01*
X52146Y28157D02*
X52697D01*
X52421Y27882D02*
Y28433D01*
X54146Y28157D02*
X54697D01*
X54421Y27882D02*
Y28433D01*
X40146Y28157D02*
X40697D01*
X40421Y27882D02*
Y28433D01*
X63012Y28157D02*
X63563D01*
X63287Y27882D02*
Y28433D01*
X71012Y28157D02*
X71563D01*
X71287Y27882D02*
Y28433D01*
X65012Y28157D02*
X65563D01*
X65287Y27882D02*
Y28433D01*
X69012Y28157D02*
X69563D01*
X69287Y27882D02*
Y28433D01*
X67012Y28157D02*
X67563D01*
X67287Y27882D02*
Y28433D01*
X61012Y28157D02*
X61563D01*
X61287Y27882D02*
Y28433D01*
X59012Y28157D02*
X59563D01*
X59287Y27882D02*
Y28433D01*
X57012Y28157D02*
X57563D01*
X57287Y27882D02*
Y28433D01*
X27207Y26976D02*
X28979D01*
X28093Y26091D02*
Y27862D01*
X4373Y26976D02*
X6144D01*
X5258Y26091D02*
Y27862D01*
X4373Y36031D02*
X6144D01*
X5258Y35146D02*
Y36917D01*
X27207Y36031D02*
X28979D01*
X28093Y35146D02*
Y36917D01*
X55093Y32094D02*
X56175D01*
X55634Y31553D02*
Y32636D01*
X13951Y26976D02*
X15033D01*
X14492Y26435D02*
Y27518D01*
X24187Y45874D02*
X25270D01*
X24728Y45333D02*
Y46415D01*
X53124Y45874D02*
X54207D01*
X53665Y45333D02*
Y46415D01*
X53124Y45874D02*
X54207D01*
X53665Y45333D02*
Y46415D01*
X72415Y45874D02*
X73498D01*
X72957Y45333D02*
Y46415D01*
X72415Y32094D02*
X73498D01*
X72957Y31553D02*
Y32636D01*
X4896Y45874D02*
X5978D01*
X5437Y45333D02*
Y46415D01*
X34423Y26976D02*
X35506D01*
X34965Y26435D02*
Y27518D01*
X34423Y36031D02*
X35506D01*
X34965Y35490D02*
Y36573D01*
X68218Y30677D02*
X68498D01*
X68358Y30537D02*
Y30817D01*
X19174Y31494D02*
X19454D01*
X19314Y31354D02*
Y31634D01*
X18486Y31494D02*
X18766D01*
X18626Y31354D02*
Y31634D01*
X19774Y31504D02*
X20054D01*
X19914Y31364D02*
Y31644D01*
X70218Y30677D02*
X70498D01*
X70358Y30537D02*
Y30817D01*
X66222Y30677D02*
X66502D01*
X66362Y30537D02*
Y30817D01*
X26462Y37911D02*
X26742D01*
X26602Y37771D02*
Y38051D01*
X20036Y37911D02*
X20316D01*
X20176Y37771D02*
Y38051D01*
M02*
