G04*
G04 #@! TF.GenerationSoftware,Altium Limited,Altium Designer,22.7.1 (60)*
G04*
G04 Layer_Color=8421504*
%FSLAX24Y24*%
%MOIN*%
G70*
G04*
G04 #@! TF.SameCoordinates,DC1CCC30-8026-4ED1-971E-78593126AE31*
G04*
G04*
G04 #@! TF.FilePolarity,Positive*
G04*
G01*
G75*
%ADD12R,0.0610X0.0591*%
%ADD13R,0.0531X0.0157*%
%ADD14R,0.0630X0.0354*%
%ADD15R,0.0354X0.0630*%
D12*
X4492Y30913D02*
D03*
Y31701D02*
D03*
D13*
X5555Y30795D02*
D03*
Y31051D02*
D03*
Y31307D02*
D03*
Y31563D02*
D03*
Y31819D02*
D03*
D14*
X16176Y33217D02*
D03*
Y34358D02*
D03*
X70358Y32094D02*
D03*
Y33236D02*
D03*
X66358D02*
D03*
Y32094D02*
D03*
X68358D02*
D03*
Y33236D02*
D03*
X12894Y40846D02*
D03*
Y41988D02*
D03*
X20386Y40846D02*
D03*
Y41988D02*
D03*
X27879Y40846D02*
D03*
Y41988D02*
D03*
X35372Y40846D02*
D03*
Y41988D02*
D03*
X42864Y40846D02*
D03*
Y41988D02*
D03*
X50357Y40846D02*
D03*
Y41988D02*
D03*
X57849Y40846D02*
D03*
Y41988D02*
D03*
X65342Y40846D02*
D03*
Y41988D02*
D03*
X72835Y40846D02*
D03*
Y41988D02*
D03*
X18176Y33217D02*
D03*
Y34358D02*
D03*
X17176Y33217D02*
D03*
Y34358D02*
D03*
D15*
X69724Y39173D02*
D03*
X68583D02*
D03*
X9724D02*
D03*
X8583D02*
D03*
X17224D02*
D03*
X16083D02*
D03*
X24724D02*
D03*
X23583D02*
D03*
X32224D02*
D03*
X31083D02*
D03*
X39724D02*
D03*
X38583D02*
D03*
X47224D02*
D03*
X46083D02*
D03*
X54724D02*
D03*
X53583D02*
D03*
X62224D02*
D03*
X61083D02*
D03*
M02*
