G04*
G04 #@! TF.GenerationSoftware,Altium Limited,Altium Designer,22.7.1 (60)*
G04*
G04 Layer_Physical_Order=2*
G04 Layer_Color=16711680*
%FSLAX24Y24*%
%MOIN*%
G70*
G04*
G04 #@! TF.SameCoordinates,DC1CCC30-8026-4ED1-971E-78593126AE31*
G04*
G04*
G04 #@! TF.FilePolarity,Positive*
G04*
G01*
G75*
%ADD30C,0.0300*%
%ADD31C,0.0150*%
%ADD32C,0.0120*%
G04:AMPARAMS|DCode=33|XSize=61mil|YSize=70.9mil|CornerRadius=21.4mil|HoleSize=0mil|Usage=FLASHONLY|Rotation=0.000|XOffset=0mil|YOffset=0mil|HoleType=Round|Shape=RoundedRectangle|*
%AMROUNDEDRECTD33*
21,1,0.0610,0.0281,0,0,0.0*
21,1,0.0183,0.0709,0,0,0.0*
1,1,0.0427,0.0092,-0.0141*
1,1,0.0427,-0.0092,-0.0141*
1,1,0.0427,-0.0092,0.0141*
1,1,0.0427,0.0092,0.0141*
%
%ADD33ROUNDEDRECTD33*%
G04:AMPARAMS|DCode=34|XSize=49.2mil|YSize=37.4mil|CornerRadius=16.8mil|HoleSize=0mil|Usage=FLASHONLY|Rotation=270.000|XOffset=0mil|YOffset=0mil|HoleType=Round|Shape=RoundedRectangle|*
%AMROUNDEDRECTD34*
21,1,0.0492,0.0037,0,0,270.0*
21,1,0.0156,0.0374,0,0,270.0*
1,1,0.0337,-0.0019,-0.0078*
1,1,0.0337,-0.0019,0.0078*
1,1,0.0337,0.0019,0.0078*
1,1,0.0337,0.0019,-0.0078*
%
%ADD34ROUNDEDRECTD34*%
%ADD35R,0.1181X0.1181*%
%ADD36R,0.0984X0.0984*%
%ADD37C,0.1693*%
%ADD38R,0.0709X0.0709*%
%ADD39R,0.0709X0.0709*%
%ADD40C,0.1772*%
%ADD41C,0.1575*%
%ADD42C,0.0500*%
%ADD43C,0.0200*%
G36*
X74335Y25598D02*
X3862D01*
Y47055D01*
X74335D01*
Y25598D01*
D02*
G37*
%LPC*%
G36*
X24828Y46759D02*
Y45974D01*
X25613D01*
X25582Y46133D01*
X25515Y46294D01*
X25418Y46440D01*
X25294Y46563D01*
X25149Y46660D01*
X24987Y46727D01*
X24828Y46759D01*
D02*
G37*
G36*
X5537D02*
Y45974D01*
X6322D01*
X6290Y46133D01*
X6223Y46294D01*
X6126Y46440D01*
X6003Y46563D01*
X5857Y46660D01*
X5696Y46727D01*
X5537Y46759D01*
D02*
G37*
G36*
X53765Y46759D02*
Y45974D01*
X54550D01*
X54519Y46133D01*
X54452Y46294D01*
X54355Y46440D01*
X54231Y46563D01*
X54086Y46660D01*
X53924Y46727D01*
X53765Y46759D01*
D02*
G37*
G36*
X73057Y46759D02*
Y45974D01*
X73842D01*
X73810Y46133D01*
X73743Y46294D01*
X73646Y46440D01*
X73522Y46563D01*
X73377Y46660D01*
X73216Y46727D01*
X73057Y46759D01*
D02*
G37*
G36*
X72857Y46759D02*
X72698Y46727D01*
X72536Y46660D01*
X72391Y46563D01*
X72267Y46440D01*
X72170Y46294D01*
X72103Y46133D01*
X72072Y45974D01*
X72857D01*
Y46759D01*
D02*
G37*
G36*
X53565Y46759D02*
X53407Y46727D01*
X53245Y46660D01*
X53100Y46563D01*
X52976Y46440D01*
X52879Y46294D01*
X52812Y46133D01*
X52780Y45974D01*
X53565D01*
Y46759D01*
D02*
G37*
G36*
X5337Y46759D02*
X5178Y46727D01*
X5017Y46660D01*
X4871Y46563D01*
X4748Y46440D01*
X4651Y46294D01*
X4584Y46133D01*
X4552Y45974D01*
X5337D01*
Y46759D01*
D02*
G37*
G36*
X24628D02*
X24469Y46727D01*
X24308Y46660D01*
X24163Y46563D01*
X24039Y46440D01*
X23942Y46294D01*
X23875Y46133D01*
X23843Y45974D01*
X24628D01*
Y46759D01*
D02*
G37*
G36*
X72857Y45774D02*
X72072D01*
X72103Y45615D01*
X72170Y45454D01*
X72267Y45308D01*
X72391Y45185D01*
X72536Y45088D01*
X72698Y45021D01*
X72857Y44989D01*
Y45774D01*
D02*
G37*
G36*
X53565D02*
X52780D01*
X52812Y45615D01*
X52879Y45454D01*
X52976Y45308D01*
X53100Y45185D01*
X53245Y45088D01*
X53407Y45021D01*
X53565Y44989D01*
Y45774D01*
D02*
G37*
G36*
X25613D02*
X24828D01*
Y44989D01*
X24987Y45021D01*
X25149Y45088D01*
X25294Y45185D01*
X25418Y45308D01*
X25515Y45454D01*
X25582Y45615D01*
X25613Y45774D01*
D02*
G37*
G36*
X6322D02*
X5537D01*
Y44989D01*
X5696Y45021D01*
X5857Y45088D01*
X6003Y45185D01*
X6126Y45308D01*
X6223Y45454D01*
X6290Y45615D01*
X6322Y45774D01*
D02*
G37*
G36*
X5337D02*
X4552D01*
X4584Y45615D01*
X4651Y45454D01*
X4748Y45308D01*
X4871Y45185D01*
X5017Y45088D01*
X5178Y45021D01*
X5337Y44989D01*
Y45774D01*
D02*
G37*
G36*
X24628D02*
X23843D01*
X23875Y45615D01*
X23942Y45454D01*
X24039Y45308D01*
X24163Y45185D01*
X24308Y45088D01*
X24469Y45021D01*
X24628Y44989D01*
Y45774D01*
D02*
G37*
G36*
X54550D02*
X53765D01*
Y44989D01*
X53924Y45021D01*
X54086Y45088D01*
X54231Y45185D01*
X54355Y45308D01*
X54452Y45454D01*
X54519Y45615D01*
X54550Y45774D01*
D02*
G37*
G36*
X73842D02*
X73057D01*
Y44989D01*
X73216Y45021D01*
X73377Y45088D01*
X73522Y45185D01*
X73646Y45308D01*
X73743Y45454D01*
X73810Y45615D01*
X73842Y45774D01*
D02*
G37*
G36*
X70746Y43734D02*
X70254D01*
Y43242D01*
X70746D01*
Y43734D01*
D02*
G37*
G36*
X70054D02*
X69561D01*
Y43242D01*
X70054D01*
Y43734D01*
D02*
G37*
G36*
X63246D02*
X62754D01*
Y43242D01*
X63246D01*
Y43734D01*
D02*
G37*
G36*
X62554D02*
X62061D01*
Y43242D01*
X62554D01*
Y43734D01*
D02*
G37*
G36*
X48246D02*
X47754D01*
Y43242D01*
X48246D01*
Y43734D01*
D02*
G37*
G36*
X47554D02*
X47061D01*
Y43242D01*
X47554D01*
Y43734D01*
D02*
G37*
G36*
X33246D02*
X32754D01*
Y43242D01*
X33246D01*
Y43734D01*
D02*
G37*
G36*
X32554D02*
X32061D01*
Y43242D01*
X32554D01*
Y43734D01*
D02*
G37*
G36*
X25746D02*
X25254D01*
Y43242D01*
X25746D01*
Y43734D01*
D02*
G37*
G36*
X25054D02*
X24561D01*
Y43242D01*
X25054D01*
Y43734D01*
D02*
G37*
G36*
X18246D02*
X17754D01*
Y43242D01*
X18246D01*
Y43734D01*
D02*
G37*
G36*
X17554D02*
X17061D01*
Y43242D01*
X17554D01*
Y43734D01*
D02*
G37*
G36*
X10746D02*
X10254D01*
Y43242D01*
X10746D01*
Y43734D01*
D02*
G37*
G36*
X10054D02*
X9561D01*
Y43242D01*
X10054D01*
Y43734D01*
D02*
G37*
G36*
X55746Y43718D02*
X55254D01*
Y43226D01*
X55746D01*
Y43718D01*
D02*
G37*
G36*
X55054D02*
X54561D01*
Y43226D01*
X55054D01*
Y43718D01*
D02*
G37*
G36*
X40746D02*
X40254D01*
Y43226D01*
X40746D01*
Y43718D01*
D02*
G37*
G36*
X40054D02*
X39561D01*
Y43226D01*
X40054D01*
Y43718D01*
D02*
G37*
G36*
X70746Y43042D02*
X70254D01*
Y42550D01*
X70746D01*
Y43042D01*
D02*
G37*
G36*
X70054D02*
X69561D01*
Y42550D01*
X70054D01*
Y43042D01*
D02*
G37*
G36*
X63246D02*
X62754D01*
Y42550D01*
X63246D01*
Y43042D01*
D02*
G37*
G36*
X62554D02*
X62061D01*
Y42550D01*
X62554D01*
Y43042D01*
D02*
G37*
G36*
X48246D02*
X47754D01*
Y42550D01*
X48246D01*
Y43042D01*
D02*
G37*
G36*
X47554D02*
X47061D01*
Y42550D01*
X47554D01*
Y43042D01*
D02*
G37*
G36*
X33246D02*
X32754D01*
Y42550D01*
X33246D01*
Y43042D01*
D02*
G37*
G36*
X32554D02*
X32061D01*
Y42550D01*
X32554D01*
Y43042D01*
D02*
G37*
G36*
X25746D02*
X25254D01*
Y42550D01*
X25746D01*
Y43042D01*
D02*
G37*
G36*
X25054D02*
X24561D01*
Y42550D01*
X25054D01*
Y43042D01*
D02*
G37*
G36*
X18246D02*
X17754D01*
Y42550D01*
X18246D01*
Y43042D01*
D02*
G37*
G36*
X17554D02*
X17061D01*
Y42550D01*
X17554D01*
Y43042D01*
D02*
G37*
G36*
X10746D02*
X10254D01*
Y42550D01*
X10746D01*
Y43042D01*
D02*
G37*
G36*
X10054D02*
X9561D01*
Y42550D01*
X10054D01*
Y43042D01*
D02*
G37*
G36*
X55746Y43026D02*
X55254D01*
Y42534D01*
X55746D01*
Y43026D01*
D02*
G37*
G36*
X55054D02*
X54561D01*
Y42534D01*
X55054D01*
Y43026D01*
D02*
G37*
G36*
X40746D02*
X40254D01*
Y42534D01*
X40746D01*
Y43026D01*
D02*
G37*
G36*
X40054D02*
X39561D01*
Y42534D01*
X40054D01*
Y43026D01*
D02*
G37*
G36*
X69254Y42087D02*
Y41242D01*
X70099D01*
X70064Y41418D01*
X69992Y41590D01*
X69889Y41745D01*
X69757Y41877D01*
X69602Y41980D01*
X69430Y42052D01*
X69254Y42087D01*
D02*
G37*
G36*
X69054D02*
X68877Y42052D01*
X68705Y41980D01*
X68550Y41877D01*
X68418Y41745D01*
X68315Y41590D01*
X68243Y41418D01*
X68208Y41242D01*
X69054D01*
Y42087D01*
D02*
G37*
G36*
X61754D02*
Y41242D01*
X62599D01*
X62564Y41418D01*
X62492Y41590D01*
X62389Y41745D01*
X62257Y41877D01*
X62102Y41980D01*
X61930Y42052D01*
X61754Y42087D01*
D02*
G37*
G36*
X61554D02*
X61377Y42052D01*
X61205Y41980D01*
X61050Y41877D01*
X60918Y41745D01*
X60815Y41590D01*
X60743Y41418D01*
X60708Y41242D01*
X61554D01*
Y42087D01*
D02*
G37*
G36*
X46754D02*
Y41242D01*
X47599D01*
X47564Y41418D01*
X47492Y41590D01*
X47389Y41745D01*
X47257Y41877D01*
X47102Y41980D01*
X46930Y42052D01*
X46754Y42087D01*
D02*
G37*
G36*
X46554D02*
X46377Y42052D01*
X46205Y41980D01*
X46050Y41877D01*
X45918Y41745D01*
X45815Y41590D01*
X45743Y41418D01*
X45708Y41242D01*
X46554D01*
Y42087D01*
D02*
G37*
G36*
X31754D02*
Y41242D01*
X32599D01*
X32564Y41418D01*
X32492Y41590D01*
X32389Y41745D01*
X32257Y41877D01*
X32102Y41980D01*
X31930Y42052D01*
X31754Y42087D01*
D02*
G37*
G36*
X31554D02*
X31377Y42052D01*
X31205Y41980D01*
X31050Y41877D01*
X30918Y41745D01*
X30815Y41590D01*
X30743Y41418D01*
X30708Y41242D01*
X31554D01*
Y42087D01*
D02*
G37*
G36*
X24254D02*
Y41242D01*
X25099D01*
X25064Y41418D01*
X24992Y41590D01*
X24889Y41745D01*
X24757Y41877D01*
X24602Y41980D01*
X24430Y42052D01*
X24254Y42087D01*
D02*
G37*
G36*
X24054D02*
X23877Y42052D01*
X23705Y41980D01*
X23550Y41877D01*
X23418Y41745D01*
X23315Y41590D01*
X23243Y41418D01*
X23208Y41242D01*
X24054D01*
Y42087D01*
D02*
G37*
G36*
X16754D02*
Y41242D01*
X17599D01*
X17564Y41418D01*
X17492Y41590D01*
X17389Y41745D01*
X17257Y41877D01*
X17102Y41980D01*
X16930Y42052D01*
X16754Y42087D01*
D02*
G37*
G36*
X16554D02*
X16377Y42052D01*
X16205Y41980D01*
X16050Y41877D01*
X15918Y41745D01*
X15815Y41590D01*
X15743Y41418D01*
X15708Y41242D01*
X16554D01*
Y42087D01*
D02*
G37*
G36*
X9254D02*
Y41242D01*
X10099D01*
X10064Y41418D01*
X9992Y41590D01*
X9889Y41745D01*
X9757Y41877D01*
X9602Y41980D01*
X9430Y42052D01*
X9254Y42087D01*
D02*
G37*
G36*
X9054D02*
X8877Y42052D01*
X8705Y41980D01*
X8550Y41877D01*
X8418Y41745D01*
X8315Y41590D01*
X8243Y41418D01*
X8208Y41242D01*
X9054D01*
Y42087D01*
D02*
G37*
G36*
X54254Y42071D02*
Y41226D01*
X55099D01*
X55064Y41402D01*
X54992Y41574D01*
X54889Y41729D01*
X54757Y41861D01*
X54602Y41965D01*
X54430Y42036D01*
X54254Y42071D01*
D02*
G37*
G36*
X54054D02*
X53877Y42036D01*
X53705Y41965D01*
X53550Y41861D01*
X53418Y41729D01*
X53315Y41574D01*
X53243Y41402D01*
X53208Y41226D01*
X54054D01*
Y42071D01*
D02*
G37*
G36*
X39254D02*
Y41226D01*
X40099D01*
X40064Y41402D01*
X39992Y41574D01*
X39889Y41729D01*
X39757Y41861D01*
X39602Y41965D01*
X39430Y42036D01*
X39254Y42071D01*
D02*
G37*
G36*
X39054D02*
X38877Y42036D01*
X38705Y41965D01*
X38550Y41861D01*
X38418Y41729D01*
X38315Y41574D01*
X38243Y41402D01*
X38208Y41226D01*
X39054D01*
Y42071D01*
D02*
G37*
G36*
X62599Y41042D02*
X61754D01*
Y40197D01*
X61930Y40232D01*
X62102Y40303D01*
X62257Y40407D01*
X62389Y40538D01*
X62492Y40693D01*
X62564Y40866D01*
X62599Y41042D01*
D02*
G37*
G36*
X61554D02*
X60708D01*
X60743Y40866D01*
X60815Y40693D01*
X60918Y40538D01*
X61050Y40407D01*
X61205Y40303D01*
X61377Y40232D01*
X61554Y40197D01*
Y41042D01*
D02*
G37*
G36*
X47599D02*
X46754D01*
Y40197D01*
X46930Y40232D01*
X47102Y40303D01*
X47257Y40407D01*
X47389Y40538D01*
X47492Y40693D01*
X47564Y40866D01*
X47599Y41042D01*
D02*
G37*
G36*
X46554D02*
X45708D01*
X45743Y40866D01*
X45815Y40693D01*
X45918Y40538D01*
X46050Y40407D01*
X46205Y40303D01*
X46377Y40232D01*
X46554Y40197D01*
Y41042D01*
D02*
G37*
G36*
X32599D02*
X31754D01*
Y40197D01*
X31930Y40232D01*
X32102Y40303D01*
X32257Y40407D01*
X32389Y40538D01*
X32492Y40693D01*
X32564Y40866D01*
X32599Y41042D01*
D02*
G37*
G36*
X31554D02*
X30708D01*
X30743Y40866D01*
X30815Y40693D01*
X30918Y40538D01*
X31050Y40407D01*
X31205Y40303D01*
X31377Y40232D01*
X31554Y40197D01*
Y41042D01*
D02*
G37*
G36*
X25099D02*
X24254D01*
Y40197D01*
X24430Y40232D01*
X24602Y40303D01*
X24757Y40407D01*
X24889Y40538D01*
X24992Y40693D01*
X25064Y40866D01*
X25099Y41042D01*
D02*
G37*
G36*
X24054D02*
X23208D01*
X23243Y40866D01*
X23315Y40693D01*
X23418Y40538D01*
X23550Y40407D01*
X23705Y40303D01*
X23877Y40232D01*
X24054Y40197D01*
Y41042D01*
D02*
G37*
G36*
X70099D02*
X69254D01*
Y40197D01*
X69430Y40232D01*
X69602Y40303D01*
X69757Y40407D01*
X69889Y40538D01*
X69992Y40693D01*
X70064Y40866D01*
X70099Y41042D01*
D02*
G37*
G36*
X69054D02*
X68208D01*
X68243Y40866D01*
X68315Y40693D01*
X68418Y40538D01*
X68550Y40407D01*
X68705Y40303D01*
X68877Y40232D01*
X69054Y40197D01*
Y41042D01*
D02*
G37*
G36*
X55099Y41026D02*
X54254D01*
Y40181D01*
X54430Y40216D01*
X54602Y40287D01*
X54757Y40391D01*
X54889Y40523D01*
X54992Y40678D01*
X55064Y40850D01*
X55099Y41026D01*
D02*
G37*
G36*
X54054D02*
X53208D01*
X53243Y40850D01*
X53315Y40678D01*
X53418Y40523D01*
X53550Y40391D01*
X53705Y40287D01*
X53877Y40216D01*
X54054Y40181D01*
Y41026D01*
D02*
G37*
G36*
X40099D02*
X39254D01*
Y40181D01*
X39430Y40216D01*
X39602Y40287D01*
X39757Y40391D01*
X39889Y40523D01*
X39992Y40678D01*
X40064Y40850D01*
X40099Y41026D01*
D02*
G37*
G36*
X39054D02*
X38208D01*
X38243Y40850D01*
X38315Y40678D01*
X38418Y40523D01*
X38550Y40391D01*
X38705Y40287D01*
X38877Y40216D01*
X39054Y40181D01*
Y41026D01*
D02*
G37*
G36*
X68246Y42734D02*
X67061D01*
Y41550D01*
X67450D01*
Y39081D01*
X66934Y38565D01*
X59997D01*
X59978Y38611D01*
X60298Y38931D01*
X60342Y38997D01*
X60357Y39075D01*
Y41550D01*
X60746D01*
Y42734D01*
X59561D01*
Y41550D01*
X59950D01*
Y39159D01*
X59655Y38865D01*
X52620D01*
X52601Y38911D01*
X52798Y39108D01*
X52842Y39174D01*
X52857Y39252D01*
Y41534D01*
X53246D01*
Y42718D01*
X52061D01*
Y41534D01*
X52450D01*
Y39336D01*
X52278Y39165D01*
X45046D01*
X45027Y39211D01*
X45298Y39482D01*
X45342Y39548D01*
X45357Y39626D01*
Y41550D01*
X45746D01*
Y42734D01*
X44561D01*
Y41550D01*
X44950D01*
Y39710D01*
X44704Y39465D01*
X37177D01*
X37158Y39511D01*
X37798Y40151D01*
X37842Y40217D01*
X37857Y40295D01*
Y41534D01*
X38246D01*
Y42718D01*
X37061D01*
Y41534D01*
X37450D01*
Y40380D01*
X36835Y39765D01*
X28131D01*
X28111Y39811D01*
X29850Y41550D01*
X30746D01*
Y42734D01*
X29561D01*
Y41838D01*
X27788Y40065D01*
X23147D01*
X23069Y40050D01*
X23002Y40005D01*
X22968Y39971D01*
X20836D01*
X20817Y40017D01*
X22350Y41550D01*
X23246D01*
Y42734D01*
X22061D01*
Y41838D01*
X20494Y40271D01*
X17144D01*
X17129Y40321D01*
X17257Y40407D01*
X17389Y40538D01*
X17492Y40693D01*
X17564Y40866D01*
X17599Y41042D01*
X15708D01*
X15743Y40866D01*
X15815Y40693D01*
X15918Y40538D01*
X16050Y40407D01*
X16179Y40321D01*
X16163Y40271D01*
X15870D01*
X15792Y40255D01*
X15726Y40211D01*
X15032Y39517D01*
X14987Y39451D01*
X14972Y39373D01*
Y36986D01*
X14721D01*
Y36077D01*
X15630D01*
Y36986D01*
X15380D01*
Y39288D01*
X15955Y39863D01*
X18068D01*
X18087Y39817D01*
X17032Y38761D01*
X16987Y38695D01*
X16972Y38617D01*
Y36986D01*
X16721D01*
Y36077D01*
X17630D01*
Y36986D01*
X17380D01*
Y38532D01*
X18410Y39563D01*
X19048D01*
X19067Y39517D01*
X18032Y38481D01*
X17987Y38415D01*
X17972Y38337D01*
Y36986D01*
X17721D01*
Y36077D01*
X18630D01*
Y36986D01*
X18380D01*
Y38253D01*
X19390Y39263D01*
X20224D01*
X20243Y39217D01*
X19032Y38005D01*
X18987Y37939D01*
X18972Y37861D01*
Y36986D01*
X18721D01*
Y36077D01*
X19630D01*
Y36986D01*
X19380D01*
Y37776D01*
X20566Y38963D01*
X23271D01*
X23290Y38917D01*
X22032Y37659D01*
X21987Y37592D01*
X21972Y37514D01*
Y36986D01*
X21721D01*
Y36077D01*
X22630D01*
Y36986D01*
X22380D01*
Y37430D01*
X23613Y38663D01*
X25136D01*
X25155Y38617D01*
X24032Y37493D01*
X23987Y37427D01*
X23972Y37349D01*
Y36986D01*
X23721D01*
Y36077D01*
X24630D01*
Y36986D01*
X24380D01*
Y37264D01*
X25478Y38363D01*
X25919D01*
X25938Y38317D01*
X25032Y37410D01*
X24987Y37344D01*
X24972Y37266D01*
Y36986D01*
X24721D01*
Y36077D01*
X25630D01*
Y36986D01*
X25380D01*
Y37182D01*
X26217Y38019D01*
X26261Y37993D01*
X26252Y37957D01*
Y37865D01*
X26276Y37776D01*
X26322Y37696D01*
X26387Y37631D01*
X26467Y37585D01*
X26556Y37561D01*
X26606D01*
X26628Y37534D01*
X26608Y37484D01*
X26412D01*
X26349Y37472D01*
X26296Y37436D01*
X26060Y37201D01*
X26025Y37148D01*
X26013Y37085D01*
Y36986D01*
X25721D01*
Y36077D01*
X26630D01*
Y36986D01*
X26378D01*
X26357Y37036D01*
X26479Y37158D01*
X43450D01*
X44258Y36350D01*
Y36124D01*
X43731D01*
Y34743D01*
X45112D01*
Y36124D01*
X44584D01*
Y36417D01*
X44572Y36480D01*
X44537Y36533D01*
X43633Y37436D01*
X43621Y37444D01*
X43637Y37494D01*
X44885D01*
X46210Y36170D01*
X46191Y36124D01*
X45731D01*
Y34743D01*
X46840D01*
X46859Y34696D01*
X46677Y34515D01*
X25621D01*
X25431Y34705D01*
Y35077D01*
X25630D01*
Y35986D01*
X24721D01*
Y35077D01*
X24921D01*
Y34600D01*
X24940Y34502D01*
X24996Y34420D01*
X25256Y34159D01*
X25237Y34113D01*
X25115D01*
X24339Y34889D01*
Y35077D01*
X24630D01*
Y35986D01*
X23721D01*
Y35077D01*
X24013D01*
Y34821D01*
X24025Y34759D01*
X24060Y34706D01*
X24827Y33939D01*
X24808Y33893D01*
X24145D01*
X23339Y34699D01*
Y35077D01*
X23630D01*
Y35986D01*
X22721D01*
Y35077D01*
X23013D01*
Y34631D01*
X23025Y34569D01*
X23060Y34516D01*
X23857Y33719D01*
X23838Y33673D01*
X23381D01*
X22339Y34715D01*
Y35077D01*
X22630D01*
Y35986D01*
X21721D01*
Y35077D01*
X22013D01*
Y34647D01*
X22025Y34585D01*
X22060Y34532D01*
X23093Y33499D01*
X23074Y33453D01*
X22715D01*
X21339Y34829D01*
Y35077D01*
X21630D01*
Y35986D01*
X20721D01*
Y35077D01*
X21013D01*
Y34761D01*
X21025Y34699D01*
X21060Y34646D01*
X22427Y33279D01*
X22408Y33233D01*
X21655D01*
X20339Y34549D01*
Y35077D01*
X20630D01*
Y35986D01*
X19721D01*
Y35077D01*
X20013D01*
Y34482D01*
X20025Y34419D01*
X20060Y34366D01*
X21472Y32954D01*
X21525Y32919D01*
X21588Y32907D01*
X52058D01*
X52120Y32919D01*
X52173Y32954D01*
X53961Y34743D01*
X55112D01*
Y36124D01*
X55151Y36149D01*
X56557D01*
X56597Y36124D01*
X56597Y36099D01*
Y34743D01*
X57978D01*
Y36099D01*
X57978Y36124D01*
X58017Y36149D01*
X58557D01*
X58597Y36124D01*
X58597Y36099D01*
Y34743D01*
X59978D01*
Y36099D01*
X59978Y36124D01*
X60017Y36149D01*
X60557D01*
X60597Y36124D01*
X60597Y36099D01*
Y35533D01*
X61978D01*
Y36099D01*
X61978Y36124D01*
X62017Y36149D01*
X62557D01*
X62597Y36124D01*
Y34743D01*
X63978D01*
Y36124D01*
X63451D01*
Y36154D01*
X63438Y36216D01*
X63403Y36269D01*
X63351Y36321D01*
X63370Y36367D01*
X69006D01*
X69033Y36341D01*
Y36124D01*
X68597D01*
Y34743D01*
X69978D01*
Y36124D01*
X69542D01*
Y36446D01*
X69523Y36544D01*
X69468Y36627D01*
X69292Y36802D01*
X69209Y36858D01*
X69112Y36877D01*
X48076D01*
X47978Y36858D01*
X47895Y36802D01*
X47351Y36258D01*
X47296Y36175D01*
X47276Y36078D01*
Y35114D01*
X47158Y34996D01*
X47112Y35015D01*
Y36124D01*
X46584D01*
Y36189D01*
X46572Y36251D01*
X46537Y36304D01*
X45068Y37773D01*
X45015Y37808D01*
X44953Y37820D01*
X26981D01*
X26951Y37860D01*
X26952Y37865D01*
Y37957D01*
X26928Y38046D01*
X26893Y38107D01*
X26917Y38157D01*
X67019D01*
X67097Y38173D01*
X67163Y38217D01*
X67798Y38852D01*
X67842Y38918D01*
X67857Y38996D01*
X67857Y38996D01*
Y41550D01*
X68246D01*
Y42734D01*
D02*
G37*
G36*
X23630Y36986D02*
X23276D01*
Y36632D01*
X23630D01*
Y36986D01*
D02*
G37*
G36*
X23076D02*
X22721D01*
Y36632D01*
X23076D01*
Y36986D01*
D02*
G37*
G36*
X21630D02*
X21276D01*
Y36632D01*
X21630D01*
Y36986D01*
D02*
G37*
G36*
X21076D02*
X20721D01*
Y36632D01*
X21076D01*
Y36986D01*
D02*
G37*
G36*
X16630D02*
X16276D01*
Y36632D01*
X16630D01*
Y36986D01*
D02*
G37*
G36*
X16076D02*
X15721D01*
Y36632D01*
X16076D01*
Y36986D01*
D02*
G37*
G36*
X13630D02*
X13276D01*
Y36632D01*
X13630D01*
Y36986D01*
D02*
G37*
G36*
X13076D02*
X12721D01*
Y36632D01*
X13076D01*
Y36986D01*
D02*
G37*
G36*
X10443Y37570D02*
X6616D01*
X6553Y37558D01*
X6500Y37522D01*
X6306Y37328D01*
X6271Y37275D01*
X6258Y37213D01*
Y36315D01*
X6208Y36310D01*
X6206Y36319D01*
X6132Y36498D01*
X6024Y36660D01*
X5887Y36797D01*
X5725Y36905D01*
X5546Y36979D01*
X5356Y37017D01*
X5161D01*
X4971Y36979D01*
X4791Y36905D01*
X4630Y36797D01*
X4493Y36660D01*
X4385Y36498D01*
X4310Y36319D01*
X4273Y36129D01*
Y35934D01*
X4310Y35744D01*
X4385Y35565D01*
X4493Y35403D01*
X4630Y35266D01*
X4791Y35158D01*
X4971Y35084D01*
X5161Y35046D01*
X5356D01*
X5546Y35084D01*
X5725Y35158D01*
X5887Y35266D01*
X6024Y35403D01*
X6132Y35565D01*
X6206Y35744D01*
X6208Y35753D01*
X6258Y35748D01*
Y34897D01*
X6258Y34850D01*
X6260Y34841D01*
X6259Y34831D01*
X6279Y34659D01*
X6286Y34639D01*
X6290Y34619D01*
X6296Y34609D01*
X6299Y34599D01*
X6313Y34583D01*
X6324Y34565D01*
X11999Y28667D01*
X12000Y28666D01*
X12001Y28664D01*
X12132Y28534D01*
X12184Y28499D01*
X12247Y28486D01*
X39014D01*
Y27569D01*
X39026Y27506D01*
X39062Y27453D01*
X39656Y26858D01*
X39709Y26823D01*
X39772Y26811D01*
X54059D01*
X54121Y26823D01*
X54174Y26858D01*
X54537Y27221D01*
X54572Y27274D01*
X54584Y27336D01*
Y27467D01*
X55112D01*
Y28848D01*
X53731D01*
Y27467D01*
X54258D01*
Y27404D01*
X53991Y27137D01*
X52451D01*
X52432Y27183D01*
X52537Y27288D01*
X52572Y27341D01*
X52584Y27403D01*
Y27467D01*
X53112D01*
Y28848D01*
X51731D01*
Y27467D01*
X52189D01*
X52208Y27421D01*
X52144Y27357D01*
X39930D01*
X39867Y27421D01*
X39886Y27467D01*
X41112D01*
Y28848D01*
X39961D01*
X39709Y29100D01*
X39728Y29146D01*
X41298D01*
X41728Y28716D01*
Y28688D01*
X41731Y28672D01*
Y27467D01*
X43112D01*
Y28848D01*
X42084D01*
X42077Y28859D01*
X42105Y28909D01*
X49535D01*
X49728Y28716D01*
Y28688D01*
X49731Y28672D01*
Y27467D01*
X51112D01*
Y28848D01*
X50040D01*
X50006Y28899D01*
X49823Y29083D01*
X49842Y29129D01*
X62085D01*
X62597Y28617D01*
Y27467D01*
X63978D01*
Y28848D01*
X62828D01*
X62373Y29303D01*
X62392Y29349D01*
X63865D01*
X64597Y28617D01*
Y27467D01*
X65978D01*
Y28848D01*
X64828D01*
X64153Y29523D01*
X64172Y29569D01*
X65645D01*
X66597Y28617D01*
Y27467D01*
X67978D01*
Y28848D01*
X66828D01*
X65933Y29743D01*
X65952Y29789D01*
X69648D01*
X69717Y29802D01*
X69775Y29841D01*
X70272Y30338D01*
X70312Y30327D01*
X70404D01*
X70493Y30351D01*
X70573Y30397D01*
X70638Y30462D01*
X70684Y30542D01*
X70708Y30631D01*
Y30723D01*
X70684Y30812D01*
X70638Y30892D01*
X70573Y30957D01*
X70493Y31003D01*
X70404Y31027D01*
X70312D01*
X70223Y31003D01*
X70143Y30957D01*
X70078Y30892D01*
X70032Y30812D01*
X70008Y30723D01*
Y30631D01*
X70019Y30590D01*
X69574Y30146D01*
X68144D01*
X68125Y30192D01*
X68272Y30338D01*
X68312Y30327D01*
X68404D01*
X68493Y30351D01*
X68573Y30397D01*
X68638Y30462D01*
X68684Y30542D01*
X68708Y30631D01*
Y30723D01*
X68684Y30812D01*
X68638Y30892D01*
X68573Y30957D01*
X68493Y31003D01*
X68404Y31027D01*
X68312D01*
X68223Y31003D01*
X68143Y30957D01*
X68078Y30892D01*
X68032Y30812D01*
X68008Y30723D01*
Y30631D01*
X68019Y30590D01*
X67824Y30396D01*
X66646D01*
X66626Y30446D01*
X66642Y30462D01*
X66688Y30542D01*
X66712Y30631D01*
Y30723D01*
X66688Y30812D01*
X66642Y30892D01*
X66577Y30957D01*
X66497Y31003D01*
X66408Y31027D01*
X66316D01*
X66227Y31003D01*
X66147Y30957D01*
X66082Y30892D01*
X66036Y30812D01*
X66012Y30723D01*
Y30646D01*
X42565D01*
X42160Y31051D01*
X42102Y31089D01*
X42034Y31103D01*
X20559D01*
X20252Y31410D01*
X20264Y31458D01*
Y31550D01*
X20240Y31639D01*
X20194Y31719D01*
X20129Y31784D01*
X20049Y31830D01*
X19960Y31854D01*
X19868D01*
X19779Y31830D01*
X19699Y31784D01*
X19642Y31727D01*
X19624Y31720D01*
X19579Y31724D01*
X19529Y31774D01*
X19450Y31820D01*
X19361Y31844D01*
X19268D01*
X19179Y31820D01*
X19100Y31774D01*
X19034Y31709D01*
X18998Y31646D01*
X18993Y31644D01*
X18947Y31644D01*
X18943Y31646D01*
X18906Y31709D01*
X18841Y31775D01*
X18761Y31821D01*
X18672Y31844D01*
X18580D01*
X18491Y31821D01*
X18411Y31775D01*
X18346Y31709D01*
X18300Y31630D01*
X18276Y31541D01*
Y31448D01*
X18300Y31359D01*
X18321Y31323D01*
X18281Y31293D01*
X14542Y35031D01*
X14561Y35077D01*
X14630D01*
Y35986D01*
X13721D01*
Y35077D01*
X14072D01*
X14077Y35052D01*
X14113Y34999D01*
X18933Y30179D01*
X18914Y30133D01*
X18259D01*
X13365Y35027D01*
X13386Y35077D01*
X13630D01*
Y35986D01*
X12721D01*
Y35077D01*
X13013D01*
Y34986D01*
X13025Y34923D01*
X13060Y34870D01*
X17972Y29959D01*
X17953Y29913D01*
X17397D01*
X12339Y34971D01*
Y35077D01*
X12630D01*
Y35986D01*
X11721D01*
Y35077D01*
X12013D01*
Y34903D01*
X12025Y34841D01*
X12060Y34788D01*
X17109Y29739D01*
X17090Y29693D01*
X15648D01*
X10339Y35002D01*
Y35077D01*
X10630D01*
Y35986D01*
X9721D01*
Y35077D01*
X10013D01*
Y34934D01*
X10025Y34872D01*
X10060Y34819D01*
X15361Y29519D01*
X15341Y29473D01*
X14309D01*
X9339Y34443D01*
Y35077D01*
X9630D01*
Y35986D01*
X8721D01*
Y35077D01*
X9013D01*
Y34524D01*
X8966Y34504D01*
X8440Y35031D01*
X8459Y35077D01*
X8630D01*
Y35986D01*
X7721D01*
Y35077D01*
X8013D01*
Y35064D01*
X8025Y35002D01*
X8060Y34949D01*
X13931Y29079D01*
X13911Y29033D01*
X12406D01*
X6825Y34835D01*
X6825Y35077D01*
X7630D01*
Y35986D01*
X6825D01*
Y36077D01*
X7630D01*
Y36986D01*
X7668Y37016D01*
X7684D01*
X7721Y36986D01*
X7721Y36966D01*
Y36077D01*
X8630D01*
Y36966D01*
X8630Y36986D01*
X8668Y37016D01*
X8684D01*
X8721Y36986D01*
X8721Y36966D01*
Y36632D01*
X9630D01*
Y36919D01*
X9680Y36939D01*
X9718Y36901D01*
Y36873D01*
X9721Y36857D01*
Y36077D01*
X10630D01*
Y36919D01*
X10680Y36939D01*
X10718Y36901D01*
Y36873D01*
X10721Y36857D01*
Y36077D01*
X11630D01*
Y36986D01*
X11041D01*
X11032Y37031D01*
X10997Y37084D01*
X10558Y37522D01*
X10505Y37558D01*
X10443Y37570D01*
D02*
G37*
G36*
X35065Y36916D02*
Y36131D01*
X35849D01*
X35818Y36290D01*
X35751Y36452D01*
X35654Y36597D01*
X35530Y36721D01*
X35385Y36818D01*
X35223Y36885D01*
X35065Y36916D01*
D02*
G37*
G36*
X34865D02*
X34706Y36885D01*
X34544Y36818D01*
X34399Y36721D01*
X34275Y36597D01*
X34178Y36452D01*
X34111Y36290D01*
X34080Y36131D01*
X34865D01*
Y36916D01*
D02*
G37*
G36*
X23630Y36432D02*
X23276D01*
Y36077D01*
X23630D01*
Y36432D01*
D02*
G37*
G36*
X23076D02*
X22721D01*
Y36077D01*
X23076D01*
Y36432D01*
D02*
G37*
G36*
X21630D02*
X21276D01*
Y36077D01*
X21630D01*
Y36432D01*
D02*
G37*
G36*
X21076D02*
X20721D01*
Y36077D01*
X21076D01*
Y36432D01*
D02*
G37*
G36*
X20222Y38261D02*
X20130D01*
X20041Y38237D01*
X19961Y38191D01*
X19896Y38126D01*
X19850Y38046D01*
X19826Y37957D01*
Y37865D01*
X19850Y37776D01*
X19896Y37696D01*
X19961Y37631D01*
X20013Y37601D01*
Y36986D01*
X19721D01*
Y36077D01*
X20630D01*
Y36986D01*
X20339D01*
Y37601D01*
X20391Y37631D01*
X20456Y37696D01*
X20502Y37776D01*
X20526Y37865D01*
Y37957D01*
X20502Y38046D01*
X20456Y38126D01*
X20391Y38191D01*
X20311Y38237D01*
X20222Y38261D01*
D02*
G37*
G36*
X16630Y36432D02*
X16276D01*
Y36077D01*
X16630D01*
Y36432D01*
D02*
G37*
G36*
X16076D02*
X15721D01*
Y36077D01*
X16076D01*
Y36432D01*
D02*
G37*
G36*
X15746Y42734D02*
X14561D01*
Y41550D01*
X14950D01*
Y40222D01*
X14032Y39304D01*
X13987Y39238D01*
X13972Y39160D01*
Y36986D01*
X13721D01*
Y36077D01*
X14630D01*
Y36986D01*
X14380D01*
Y39076D01*
X15298Y39994D01*
X15342Y40060D01*
X15357Y40138D01*
Y41550D01*
X15746D01*
Y42734D01*
D02*
G37*
G36*
X13630Y36432D02*
X13276D01*
Y36077D01*
X13630D01*
Y36432D01*
D02*
G37*
G36*
X13076D02*
X12721D01*
Y36077D01*
X13076D01*
Y36432D01*
D02*
G37*
G36*
X8246Y42734D02*
X7061D01*
Y41550D01*
X7450D01*
Y40409D01*
X7465Y40331D01*
X7509Y40265D01*
X7950Y39824D01*
X8016Y39780D01*
X8094Y39765D01*
X10963D01*
X12024Y38703D01*
Y36986D01*
X11721D01*
Y36077D01*
X12630D01*
Y36986D01*
X12432D01*
Y38787D01*
X12417Y38865D01*
X12373Y38932D01*
X12373Y38932D01*
X11191Y40113D01*
X11125Y40157D01*
X11047Y40172D01*
X9388D01*
X9383Y40222D01*
X9430Y40232D01*
X9602Y40303D01*
X9757Y40407D01*
X9889Y40538D01*
X9992Y40693D01*
X10064Y40866D01*
X10099Y41042D01*
X8208D01*
X8243Y40866D01*
X8315Y40693D01*
X8418Y40538D01*
X8550Y40407D01*
X8705Y40303D01*
X8877Y40232D01*
X8924Y40222D01*
X8919Y40172D01*
X8179D01*
X7857Y40494D01*
Y41550D01*
X8246D01*
Y42734D01*
D02*
G37*
G36*
X9630Y36432D02*
X9276D01*
Y36077D01*
X9630D01*
Y36432D01*
D02*
G37*
G36*
X9076D02*
X8721D01*
Y36077D01*
X9076D01*
Y36432D01*
D02*
G37*
G36*
X26630Y35986D02*
X26276D01*
Y35631D01*
X26630D01*
Y35986D01*
D02*
G37*
G36*
X26076D02*
X25721D01*
Y35631D01*
X26076D01*
Y35986D01*
D02*
G37*
G36*
X19630D02*
X19276D01*
Y35631D01*
X19630D01*
Y35986D01*
D02*
G37*
G36*
X19076D02*
X18721D01*
Y35631D01*
X19076D01*
Y35986D01*
D02*
G37*
G36*
X11630D02*
X11276D01*
Y35631D01*
X11630D01*
Y35986D01*
D02*
G37*
G36*
X11076D02*
X10721D01*
Y35631D01*
X11076D01*
Y35986D01*
D02*
G37*
G36*
X71978Y36124D02*
X71387D01*
Y35533D01*
X71978D01*
Y36124D01*
D02*
G37*
G36*
X71187D02*
X70597D01*
Y35533D01*
X71187D01*
Y36124D01*
D02*
G37*
G36*
X67978D02*
X67387D01*
Y35533D01*
X67978D01*
Y36124D01*
D02*
G37*
G36*
X67187D02*
X66597D01*
Y35533D01*
X67187D01*
Y36124D01*
D02*
G37*
G36*
X43112D02*
X42521D01*
Y35533D01*
X43112D01*
Y36124D01*
D02*
G37*
G36*
X42321D02*
X41731D01*
Y35533D01*
X42321D01*
Y36124D01*
D02*
G37*
G36*
X41112D02*
X40521D01*
Y35533D01*
X41112D01*
Y36124D01*
D02*
G37*
G36*
X40321D02*
X39731D01*
Y35533D01*
X40321D01*
Y36124D01*
D02*
G37*
G36*
X35849Y35931D02*
X35065D01*
Y35147D01*
X35223Y35178D01*
X35385Y35245D01*
X35530Y35342D01*
X35654Y35466D01*
X35751Y35611D01*
X35818Y35773D01*
X35849Y35931D01*
D02*
G37*
G36*
X34865D02*
X34080D01*
X34111Y35773D01*
X34178Y35611D01*
X34275Y35466D01*
X34399Y35342D01*
X34544Y35245D01*
X34706Y35178D01*
X34865Y35147D01*
Y35931D01*
D02*
G37*
G36*
X26630Y35431D02*
X26276D01*
Y35077D01*
X26630D01*
Y35431D01*
D02*
G37*
G36*
X26076D02*
X25721D01*
Y35077D01*
X26076D01*
Y35431D01*
D02*
G37*
G36*
X19630D02*
X19276D01*
Y35077D01*
X19630D01*
Y35431D01*
D02*
G37*
G36*
X19076D02*
X18721D01*
Y35077D01*
X19076D01*
Y35431D01*
D02*
G37*
G36*
X18630Y35986D02*
X17721D01*
Y35077D01*
X18630D01*
Y35986D01*
D02*
G37*
G36*
X17630D02*
X16721D01*
Y35077D01*
X17630D01*
Y35986D01*
D02*
G37*
G36*
X16630D02*
X15721D01*
Y35077D01*
X16630D01*
Y35986D01*
D02*
G37*
G36*
X15630D02*
X14721D01*
Y35077D01*
X15630D01*
Y35986D01*
D02*
G37*
G36*
X11630Y35431D02*
X11276D01*
Y35077D01*
X11630D01*
Y35431D01*
D02*
G37*
G36*
X11076D02*
X10721D01*
Y35077D01*
X11076D01*
Y35431D01*
D02*
G37*
G36*
X28190Y37017D02*
X27996D01*
X27806Y36979D01*
X27626Y36905D01*
X27465Y36797D01*
X27327Y36660D01*
X27219Y36498D01*
X27145Y36319D01*
X27107Y36129D01*
Y35934D01*
X27145Y35744D01*
X27219Y35565D01*
X27327Y35403D01*
X27465Y35266D01*
X27626Y35158D01*
X27806Y35084D01*
X27996Y35046D01*
X28190D01*
X28381Y35084D01*
X28560Y35158D01*
X28721Y35266D01*
X28859Y35403D01*
X28967Y35565D01*
X29041Y35744D01*
X29079Y35934D01*
Y36129D01*
X29041Y36319D01*
X28967Y36498D01*
X28859Y36660D01*
X28721Y36797D01*
X28560Y36905D01*
X28381Y36979D01*
X28190Y37017D01*
D02*
G37*
G36*
X71978Y35333D02*
X71387D01*
Y34743D01*
X71978D01*
Y35333D01*
D02*
G37*
G36*
X71187D02*
X70597D01*
Y34743D01*
X71187D01*
Y35333D01*
D02*
G37*
G36*
X67978D02*
X67387D01*
Y34743D01*
X67978D01*
Y35333D01*
D02*
G37*
G36*
X67187D02*
X66597D01*
Y34743D01*
X67187D01*
Y35333D01*
D02*
G37*
G36*
X65978Y36124D02*
X64597D01*
Y34743D01*
X65978D01*
Y36124D01*
D02*
G37*
G36*
X61978Y35333D02*
X61387D01*
Y34743D01*
X61978D01*
Y35333D01*
D02*
G37*
G36*
X61187D02*
X60597D01*
Y34743D01*
X61187D01*
Y35333D01*
D02*
G37*
G36*
X43112D02*
X42521D01*
Y34743D01*
X43112D01*
Y35333D01*
D02*
G37*
G36*
X42321D02*
X41731D01*
Y34743D01*
X42321D01*
Y35333D01*
D02*
G37*
G36*
X41112D02*
X40521D01*
Y34743D01*
X41112D01*
Y35333D01*
D02*
G37*
G36*
X40321D02*
X39731D01*
Y34743D01*
X40321D01*
Y35333D01*
D02*
G37*
G36*
X73057Y32979D02*
Y32194D01*
X73842D01*
X73810Y32353D01*
X73743Y32515D01*
X73646Y32660D01*
X73522Y32784D01*
X73377Y32881D01*
X73216Y32948D01*
X73057Y32979D01*
D02*
G37*
G36*
X55734Y32979D02*
Y32194D01*
X56519D01*
X56487Y32353D01*
X56420Y32515D01*
X56323Y32660D01*
X56200Y32784D01*
X56054Y32881D01*
X55893Y32948D01*
X55734Y32979D01*
D02*
G37*
G36*
X55534D02*
X55375Y32948D01*
X55214Y32881D01*
X55068Y32784D01*
X54945Y32660D01*
X54847Y32515D01*
X54781Y32353D01*
X54749Y32194D01*
X55534D01*
Y32979D01*
D02*
G37*
G36*
X72857Y32979D02*
X72698Y32948D01*
X72536Y32881D01*
X72391Y32784D01*
X72267Y32660D01*
X72170Y32515D01*
X72103Y32353D01*
X72072Y32194D01*
X72857D01*
Y32979D01*
D02*
G37*
G36*
X4584Y32985D02*
X4401D01*
X4319Y32974D01*
X4242Y32942D01*
X4177Y32892D01*
X4127Y32826D01*
X4095Y32750D01*
X4084Y32668D01*
Y32387D01*
X4095Y32305D01*
X4127Y32229D01*
X4177Y32163D01*
X4242Y32113D01*
X4319Y32081D01*
X4401Y32071D01*
X4584D01*
X4666Y32081D01*
X4742Y32113D01*
X4807Y32163D01*
X4858Y32229D01*
X4889Y32305D01*
X4900Y32387D01*
Y32668D01*
X4889Y32750D01*
X4858Y32826D01*
X4807Y32892D01*
X4742Y32942D01*
X4666Y32974D01*
X4584Y32985D01*
D02*
G37*
G36*
X5574Y32640D02*
X5536D01*
X5466Y32631D01*
X5401Y32603D01*
X5345Y32560D01*
X5302Y32504D01*
X5275Y32439D01*
X5266Y32369D01*
Y32214D01*
X5275Y32144D01*
X5302Y32078D01*
X5345Y32022D01*
X5401Y31979D01*
X5466Y31952D01*
X5536Y31943D01*
X5574D01*
X5644Y31952D01*
X5709Y31979D01*
X5765Y32022D01*
X5808Y32078D01*
X5835Y32144D01*
X5844Y32214D01*
Y32369D01*
X5835Y32439D01*
X5808Y32504D01*
X5765Y32560D01*
X5709Y32603D01*
X5644Y32631D01*
X5574Y32640D01*
D02*
G37*
G36*
X73842Y31994D02*
X73057D01*
Y31210D01*
X73216Y31241D01*
X73377Y31308D01*
X73522Y31405D01*
X73646Y31529D01*
X73743Y31674D01*
X73810Y31836D01*
X73842Y31994D01*
D02*
G37*
G36*
X56519D02*
X55734D01*
Y31210D01*
X55893Y31241D01*
X56054Y31308D01*
X56200Y31405D01*
X56323Y31529D01*
X56420Y31674D01*
X56487Y31836D01*
X56519Y31994D01*
D02*
G37*
G36*
X55534D02*
X54749D01*
X54781Y31836D01*
X54847Y31674D01*
X54945Y31529D01*
X55068Y31405D01*
X55214Y31308D01*
X55375Y31241D01*
X55534Y31210D01*
Y31994D01*
D02*
G37*
G36*
X72857D02*
X72072D01*
X72103Y31836D01*
X72170Y31674D01*
X72267Y31529D01*
X72391Y31405D01*
X72536Y31308D01*
X72698Y31241D01*
X72857Y31210D01*
Y31994D01*
D02*
G37*
G36*
X5574Y30671D02*
X5536D01*
X5466Y30662D01*
X5401Y30635D01*
X5345Y30592D01*
X5302Y30536D01*
X5275Y30471D01*
X5266Y30401D01*
Y30245D01*
X5275Y30175D01*
X5302Y30110D01*
X5345Y30054D01*
X5401Y30011D01*
X5466Y29984D01*
X5536Y29974D01*
X5574D01*
X5644Y29984D01*
X5709Y30011D01*
X5765Y30054D01*
X5808Y30110D01*
X5835Y30175D01*
X5844Y30245D01*
Y30401D01*
X5835Y30471D01*
X5808Y30536D01*
X5765Y30592D01*
X5709Y30635D01*
X5644Y30662D01*
X5574Y30671D01*
D02*
G37*
G36*
X4584Y30544D02*
X4401D01*
X4319Y30533D01*
X4242Y30501D01*
X4177Y30451D01*
X4127Y30386D01*
X4095Y30309D01*
X4084Y30227D01*
Y29946D01*
X4095Y29864D01*
X4127Y29788D01*
X4177Y29722D01*
X4242Y29672D01*
X4319Y29640D01*
X4401Y29630D01*
X4584D01*
X4666Y29640D01*
X4742Y29672D01*
X4807Y29722D01*
X4858Y29788D01*
X4889Y29864D01*
X4900Y29946D01*
Y30227D01*
X4889Y30309D01*
X4858Y30386D01*
X4807Y30451D01*
X4742Y30501D01*
X4666Y30533D01*
X4584Y30544D01*
D02*
G37*
G36*
X71978Y28848D02*
X71387D01*
Y28257D01*
X71978D01*
Y28848D01*
D02*
G37*
G36*
X71187D02*
X70597D01*
Y28257D01*
X71187D01*
Y28848D01*
D02*
G37*
G36*
X69978D02*
X69387D01*
Y28257D01*
X69978D01*
Y28848D01*
D02*
G37*
G36*
X69187D02*
X68597D01*
Y28257D01*
X69187D01*
Y28848D01*
D02*
G37*
G36*
X59978D02*
X59387D01*
Y28257D01*
X59978D01*
Y28848D01*
D02*
G37*
G36*
X59187D02*
X58597D01*
Y28257D01*
X59187D01*
Y28848D01*
D02*
G37*
G36*
X49112D02*
X48521D01*
Y28257D01*
X49112D01*
Y28848D01*
D02*
G37*
G36*
X48321D02*
X47731D01*
Y28257D01*
X48321D01*
Y28848D01*
D02*
G37*
G36*
X45112D02*
X44521D01*
Y28257D01*
X45112D01*
Y28848D01*
D02*
G37*
G36*
X44321D02*
X43731D01*
Y28257D01*
X44321D01*
Y28848D01*
D02*
G37*
G36*
X71978Y28057D02*
X71387D01*
Y27467D01*
X71978D01*
Y28057D01*
D02*
G37*
G36*
X71187D02*
X70597D01*
Y27467D01*
X71187D01*
Y28057D01*
D02*
G37*
G36*
X69978D02*
X69387D01*
Y27467D01*
X69978D01*
Y28057D01*
D02*
G37*
G36*
X69187D02*
X68597D01*
Y27467D01*
X69187D01*
Y28057D01*
D02*
G37*
G36*
X61978Y28848D02*
X60597D01*
Y27467D01*
X61978D01*
Y28848D01*
D02*
G37*
G36*
X59978Y28057D02*
X59387D01*
Y27467D01*
X59978D01*
Y28057D01*
D02*
G37*
G36*
X59187D02*
X58597D01*
Y27467D01*
X59187D01*
Y28057D01*
D02*
G37*
G36*
X57978Y28848D02*
X56597D01*
Y27467D01*
X57978D01*
Y28848D01*
D02*
G37*
G36*
X49112Y28057D02*
X48521D01*
Y27467D01*
X49112D01*
Y28057D01*
D02*
G37*
G36*
X48321D02*
X47731D01*
Y27467D01*
X48321D01*
Y28057D01*
D02*
G37*
G36*
X47112Y28848D02*
X45731D01*
Y27467D01*
X47112D01*
Y28848D01*
D02*
G37*
G36*
X45112Y28057D02*
X44521D01*
Y27467D01*
X45112D01*
Y28057D01*
D02*
G37*
G36*
X44321D02*
X43731D01*
Y27467D01*
X44321D01*
Y28057D01*
D02*
G37*
G36*
X35065Y27861D02*
Y27076D01*
X35849D01*
X35818Y27235D01*
X35751Y27397D01*
X35654Y27542D01*
X35530Y27666D01*
X35385Y27763D01*
X35223Y27830D01*
X35065Y27861D01*
D02*
G37*
G36*
X14592D02*
Y27076D01*
X15377D01*
X15345Y27235D01*
X15279Y27397D01*
X15181Y27542D01*
X15058Y27666D01*
X14912Y27763D01*
X14751Y27830D01*
X14592Y27861D01*
D02*
G37*
G36*
X34865D02*
X34706Y27830D01*
X34544Y27763D01*
X34399Y27666D01*
X34275Y27542D01*
X34178Y27397D01*
X34111Y27235D01*
X34080Y27076D01*
X34865D01*
Y27861D01*
D02*
G37*
G36*
X14392D02*
X14233Y27830D01*
X14072Y27763D01*
X13926Y27666D01*
X13803Y27542D01*
X13706Y27397D01*
X13639Y27235D01*
X13607Y27076D01*
X14392D01*
Y27861D01*
D02*
G37*
G36*
X15377Y26876D02*
X14592D01*
Y26091D01*
X14751Y26123D01*
X14912Y26190D01*
X15058Y26287D01*
X15181Y26411D01*
X15279Y26556D01*
X15345Y26718D01*
X15377Y26876D01*
D02*
G37*
G36*
X35849D02*
X35065D01*
Y26091D01*
X35223Y26123D01*
X35385Y26190D01*
X35530Y26287D01*
X35654Y26411D01*
X35751Y26556D01*
X35818Y26718D01*
X35849Y26876D01*
D02*
G37*
G36*
X14392D02*
X13607D01*
X13639Y26718D01*
X13706Y26556D01*
X13803Y26411D01*
X13926Y26287D01*
X14072Y26190D01*
X14233Y26123D01*
X14392Y26091D01*
Y26876D01*
D02*
G37*
G36*
X34865D02*
X34080D01*
X34111Y26718D01*
X34178Y26556D01*
X34275Y26411D01*
X34399Y26287D01*
X34544Y26190D01*
X34706Y26123D01*
X34865Y26091D01*
Y26876D01*
D02*
G37*
G36*
X28190Y27962D02*
X27996D01*
X27806Y27924D01*
X27626Y27850D01*
X27465Y27742D01*
X27327Y27605D01*
X27219Y27443D01*
X27145Y27264D01*
X27107Y27073D01*
Y26879D01*
X27145Y26689D01*
X27219Y26509D01*
X27327Y26348D01*
X27465Y26211D01*
X27626Y26103D01*
X27806Y26028D01*
X27996Y25991D01*
X28190D01*
X28381Y26028D01*
X28560Y26103D01*
X28721Y26211D01*
X28859Y26348D01*
X28967Y26509D01*
X29041Y26689D01*
X29079Y26879D01*
Y27073D01*
X29041Y27264D01*
X28967Y27443D01*
X28859Y27605D01*
X28721Y27742D01*
X28560Y27850D01*
X28381Y27924D01*
X28190Y27962D01*
D02*
G37*
G36*
X5356D02*
X5161D01*
X4971Y27924D01*
X4791Y27850D01*
X4630Y27742D01*
X4493Y27605D01*
X4385Y27443D01*
X4310Y27264D01*
X4273Y27073D01*
Y26879D01*
X4310Y26689D01*
X4385Y26509D01*
X4493Y26348D01*
X4630Y26211D01*
X4791Y26103D01*
X4971Y26028D01*
X5161Y25991D01*
X5356D01*
X5546Y26028D01*
X5725Y26103D01*
X5887Y26211D01*
X6024Y26348D01*
X6132Y26509D01*
X6206Y26689D01*
X6244Y26879D01*
Y27073D01*
X6206Y27264D01*
X6132Y27443D01*
X6024Y27605D01*
X5887Y27742D01*
X5725Y27850D01*
X5546Y27924D01*
X5356Y27962D01*
D02*
G37*
%LPD*%
D30*
X48076Y36622D02*
X69112D01*
X69287Y35433D02*
Y36446D01*
X69112Y36622D02*
X69287Y36446D01*
X47531Y36078D02*
X48076Y36622D01*
X25176Y34600D02*
Y35531D01*
X25516Y34260D02*
X46783D01*
X25176Y34600D02*
X25516Y34260D01*
X46783D02*
X47531Y35008D01*
Y36078D01*
D31*
X42388Y30217D02*
X67898D01*
X68358Y30677D01*
X66309D02*
X66362D01*
X66099Y30467D02*
X66309Y30677D01*
X42491Y30467D02*
X66099D01*
X19314Y31425D02*
Y31494D01*
Y31425D02*
X20065Y30675D01*
X18626Y31409D02*
X19610Y30425D01*
X18626Y31409D02*
Y31494D01*
X19610Y30425D02*
X41827D01*
X20065Y30675D02*
X41931D01*
X19914Y31495D02*
X20485Y30925D01*
X19914Y31495D02*
Y31504D01*
X20485Y30925D02*
X42034D01*
X42491Y30467D01*
X41931Y30675D02*
X42388Y30217D01*
X42284Y29967D02*
X69648D01*
X70358Y30677D01*
X41827Y30425D02*
X42284Y29967D01*
D32*
X12302Y28906D02*
G03*
X12303Y28905I86J84D01*
G01*
X49433Y36130D02*
X49615Y36312D01*
X63287Y35433D02*
Y36154D01*
X63129Y36312D02*
X63287Y36154D01*
X49615Y36312D02*
X63129D01*
X25223Y33950D02*
X47745D01*
X48421Y34626D02*
Y35433D01*
X47745Y33950D02*
X48421Y34626D01*
X49433Y34654D02*
Y36130D01*
X24077Y33730D02*
X48509D01*
X49433Y34654D01*
X49667Y33510D02*
X50421Y34264D01*
Y35433D01*
X23313Y33510D02*
X49667D01*
X52367Y35378D02*
X52421Y35433D01*
X22647Y33290D02*
X50924D01*
X52367Y34733D01*
Y35378D01*
X14228Y35114D02*
Y35526D01*
Y35114D02*
X19153Y30190D01*
X14176Y35578D02*
X14228Y35526D01*
X19153Y30190D02*
X41730D01*
X12117Y28780D02*
X12247Y28650D01*
X41639Y29970D02*
X42096Y29512D01*
X41891Y28688D02*
Y28784D01*
X39327Y28870D02*
X39397Y28799D01*
X12303Y28905D02*
X12338Y28870D01*
X41456Y29530D02*
X41914Y29072D01*
X42096Y29512D02*
X63933D01*
X41365Y29310D02*
X41891Y28784D01*
X41730Y30190D02*
X42187Y29732D01*
X42005Y29292D02*
X62153D01*
X12247Y28650D02*
X39107D01*
X8176Y35064D02*
X14151Y29090D01*
X12176Y34903D02*
X17329Y29750D01*
X10176Y34934D02*
X15581Y29530D01*
X17329Y29750D02*
X41547D01*
X14242Y29310D02*
X41365D01*
X41891Y28688D02*
X42421Y28157D01*
X18192Y29970D02*
X41639D01*
X39177Y27569D02*
Y28579D01*
X39107Y28650D02*
X39177Y28579D01*
X39397Y27660D02*
Y28799D01*
X39489Y29090D02*
X40421Y28157D01*
X15581Y29530D02*
X41456D01*
X41914Y29072D02*
X49602D01*
X41547Y29750D02*
X42005Y29292D01*
X42187Y29732D02*
X65713D01*
X6661Y34769D02*
X12302Y28906D01*
X13176Y34986D02*
X18192Y29970D01*
X14151Y29090D02*
X39489D01*
X12338Y28870D02*
X39327D01*
X9176Y34376D02*
X14242Y29310D01*
X65713Y29732D02*
X67287Y28157D01*
X49602Y29072D02*
X49891Y28784D01*
Y28688D02*
Y28784D01*
X39397Y27660D02*
X39863Y27194D01*
X39177Y27569D02*
X39772Y26974D01*
X49891Y28688D02*
X50421Y28157D01*
X13176Y34986D02*
Y35578D01*
X23176Y34631D02*
X24077Y33730D01*
X23176Y34631D02*
Y35531D01*
X20176Y34482D02*
X21588Y33070D01*
X20176Y34482D02*
Y35531D01*
X21588Y33070D02*
X52058D01*
X21176Y34761D02*
Y35531D01*
Y34761D02*
X22647Y33290D01*
X52058Y33070D02*
X54421Y35433D01*
X22176Y34647D02*
Y35531D01*
Y34647D02*
X23313Y33510D01*
X24176Y34821D02*
X25047Y33950D01*
X24176Y34821D02*
Y35531D01*
X25047Y33950D02*
X25223D01*
X6421Y34850D02*
X6441Y34678D01*
X12117Y28780D01*
X6661Y34818D02*
X6661Y36999D01*
X6421Y34897D02*
X6421Y34850D01*
X6421Y34897D02*
Y37213D01*
X6661Y34769D02*
Y34818D01*
X6421Y37213D02*
X6616Y37407D01*
X6781Y37179D02*
X9671D01*
X6661Y36999D02*
X6711Y37109D01*
X6781Y37179D01*
X6616Y37407D02*
X10443D01*
X9671Y37179D02*
X9881Y36969D01*
X26602Y37808D02*
X26748Y37662D01*
X26602Y37808D02*
Y37911D01*
X26748Y37657D02*
Y37662D01*
X20176Y36578D02*
Y37911D01*
X46421Y35433D02*
Y36189D01*
X44953Y37657D02*
X46421Y36189D01*
X26748Y37657D02*
X44953D01*
X44421Y35433D02*
Y36417D01*
X26412Y37321D02*
X43517D01*
X44421Y36417D01*
X26176Y37085D02*
X26412Y37321D01*
X26176Y36578D02*
Y37085D01*
X12176Y34903D02*
Y35578D01*
X62153Y29292D02*
X63287Y28157D01*
X63933Y29512D02*
X65287Y28157D01*
X8176Y35064D02*
Y35578D01*
X9176Y34376D02*
Y35578D01*
X10176Y34934D02*
Y35578D01*
X54059Y26974D02*
X54421Y27336D01*
X52212Y27194D02*
X52421Y27403D01*
X39772Y26974D02*
X54059D01*
X39863Y27194D02*
X52212D01*
X10881Y36873D02*
X11176Y36578D01*
X10881Y36873D02*
Y36969D01*
X52421Y27403D02*
Y28157D01*
X9881Y36873D02*
Y36969D01*
X10443Y37407D02*
X10881Y36969D01*
X9881Y36873D02*
X10176Y36578D01*
X54421Y27336D02*
Y28157D01*
D33*
X4492Y30087D02*
D03*
Y32528D02*
D03*
D34*
X5555Y30323D02*
D03*
Y32291D02*
D03*
D35*
X40421Y35433D02*
D03*
X54421D02*
D03*
X52421D02*
D03*
X44421D02*
D03*
X42421D02*
D03*
X50421D02*
D03*
X46421D02*
D03*
X48421D02*
D03*
X57287D02*
D03*
X59287D02*
D03*
X61287D02*
D03*
X67287D02*
D03*
X69287D02*
D03*
X65287D02*
D03*
X71287D02*
D03*
X63287D02*
D03*
X40421Y28157D02*
D03*
X54421D02*
D03*
X52421D02*
D03*
X44421D02*
D03*
X42421D02*
D03*
X50421D02*
D03*
X46421D02*
D03*
X48421D02*
D03*
X57287D02*
D03*
X59287D02*
D03*
X61287D02*
D03*
X67287D02*
D03*
X69287D02*
D03*
X65287D02*
D03*
X71287D02*
D03*
X63287D02*
D03*
D36*
X67654Y42142D02*
D03*
X70154Y43142D02*
D03*
X7654Y42142D02*
D03*
X10154Y43142D02*
D03*
X15154Y42142D02*
D03*
X17654Y43142D02*
D03*
X22654Y42142D02*
D03*
X25154Y43142D02*
D03*
X30154Y42142D02*
D03*
X32654Y43142D02*
D03*
X37654Y42126D02*
D03*
X40154Y43126D02*
D03*
X45154Y42142D02*
D03*
X47654Y43142D02*
D03*
X52654Y42126D02*
D03*
X55154Y43126D02*
D03*
X60154Y42142D02*
D03*
X62654Y43142D02*
D03*
D37*
X69154Y41142D02*
D03*
X9154D02*
D03*
X16654D02*
D03*
X24154D02*
D03*
X31654D02*
D03*
X39154Y41126D02*
D03*
X46654Y41142D02*
D03*
X54154Y41126D02*
D03*
X61654Y41142D02*
D03*
D38*
X22176Y36532D02*
D03*
X23176D02*
D03*
X21176D02*
D03*
X25176D02*
D03*
X26176D02*
D03*
X24176D02*
D03*
X17176D02*
D03*
X18176D02*
D03*
X16176D02*
D03*
X19176D02*
D03*
X20176D02*
D03*
X16176Y35531D02*
D03*
X23176D02*
D03*
X22176D02*
D03*
X25176D02*
D03*
X26176D02*
D03*
X24176D02*
D03*
X18176D02*
D03*
X19176D02*
D03*
X17176D02*
D03*
X21176D02*
D03*
X20176D02*
D03*
X11176Y36532D02*
D03*
X12176D02*
D03*
X14176D02*
D03*
X15176D02*
D03*
X13176D02*
D03*
X8176D02*
D03*
X9176D02*
D03*
X10176D02*
D03*
X7176Y35531D02*
D03*
X12176D02*
D03*
X13176D02*
D03*
X14176D02*
D03*
X15176D02*
D03*
X8176D02*
D03*
X9176D02*
D03*
X11176D02*
D03*
X10176D02*
D03*
D39*
X7176Y36532D02*
D03*
D40*
X28093Y26976D02*
D03*
X5258D02*
D03*
Y36031D02*
D03*
X28093D02*
D03*
D41*
X55634Y32094D02*
D03*
X14492Y26976D02*
D03*
X24728Y45874D02*
D03*
X53665D02*
D03*
D03*
X72957D02*
D03*
X72957Y32094D02*
D03*
X5437Y45874D02*
D03*
X34965Y26976D02*
D03*
Y36031D02*
D03*
D42*
X68358Y30677D02*
D03*
X19314Y31494D02*
D03*
X18626Y31494D02*
D03*
X19914Y31504D02*
D03*
X70358Y30677D02*
D03*
X66362D02*
D03*
X26602Y37911D02*
D03*
X20176D02*
D03*
D43*
X25824Y39467D02*
X25918Y39561D01*
X19306Y39467D02*
X25824D01*
X27873Y39861D02*
X30154Y42142D01*
X20482Y39167D02*
X25948D01*
X52363Y38961D02*
X52654Y39252D01*
X26197Y38567D02*
X26291Y38661D01*
X26321Y38267D02*
X26415Y38361D01*
X25394Y38567D02*
X26197D01*
X67019Y38361D02*
X67654Y38996D01*
X26167Y38961D02*
X52363D01*
X44789Y39261D02*
X45154Y39626D01*
X23147Y39861D02*
X27873D01*
X59740Y38661D02*
X60154Y39075D01*
X26176Y38267D02*
X26321D01*
X26291Y38661D02*
X59740D01*
X25948Y39167D02*
X26043Y39261D01*
X25918Y39561D02*
X36919D01*
X37654Y40295D01*
X26043Y39261D02*
X44789D01*
X18326Y39767D02*
X23052D01*
X23528Y38867D02*
X26073D01*
X26415Y38361D02*
X67019D01*
X26073Y38867D02*
X26167Y38961D01*
X23052Y39767D02*
X23147Y39861D01*
X24176Y37349D02*
X25394Y38567D01*
X22176Y37514D02*
X23528Y38867D01*
X25176Y37266D02*
X26176Y38267D01*
X15870Y40067D02*
X20579D01*
X22654Y42142D01*
X19176Y37861D02*
X20482Y39167D01*
X17176Y38617D02*
X18326Y39767D01*
X15176Y39373D02*
X15870Y40067D01*
X18176Y38337D02*
X19306Y39467D01*
X25176Y36578D02*
Y37266D01*
X24176Y36578D02*
Y37349D01*
X45154Y39626D02*
Y42142D01*
X60154Y39075D02*
Y42142D01*
X52654Y39252D02*
Y42126D01*
X22176Y36578D02*
Y37514D01*
X67654Y38996D02*
Y42142D01*
X37654Y40295D02*
Y42126D01*
X19176Y36578D02*
Y37861D01*
X18176Y36578D02*
Y38337D01*
X15176Y36578D02*
Y39373D01*
X8094Y39969D02*
X11047D01*
X12228Y38787D01*
Y36631D02*
Y38787D01*
X7654Y40409D02*
X8094Y39969D01*
X7654Y40409D02*
Y42142D01*
X17176Y36578D02*
Y38617D01*
X14176Y36578D02*
Y39160D01*
X15154Y40138D02*
Y42142D01*
X14176Y39160D02*
X15154Y40138D01*
X12176Y36578D02*
X12228Y36631D01*
M02*
