G04*
G04 #@! TF.GenerationSoftware,Altium Limited,Altium Designer,22.7.1 (60)*
G04*
G04 Layer_Color=8388736*
%FSLAX24Y24*%
%MOIN*%
G70*
G04*
G04 #@! TF.SameCoordinates,DC1CCC30-8026-4ED1-971E-78593126AE31*
G04*
G04*
G04 #@! TF.FilePolarity,Negative*
G04*
G01*
G75*
%ADD16R,0.0690X0.0671*%
%ADD17R,0.0611X0.0237*%
%ADD18R,0.0710X0.0434*%
%ADD19R,0.0434X0.0710*%
G04:AMPARAMS|DCode=20|XSize=69mil|YSize=78.9mil|CornerRadius=25.4mil|HoleSize=0mil|Usage=FLASHONLY|Rotation=0.000|XOffset=0mil|YOffset=0mil|HoleType=Round|Shape=RoundedRectangle|*
%AMROUNDEDRECTD20*
21,1,0.0690,0.0281,0,0,0.0*
21,1,0.0183,0.0789,0,0,0.0*
1,1,0.0507,0.0092,-0.0141*
1,1,0.0507,-0.0092,-0.0141*
1,1,0.0507,-0.0092,0.0141*
1,1,0.0507,0.0092,0.0141*
%
%ADD20ROUNDEDRECTD20*%
G04:AMPARAMS|DCode=21|XSize=57.2mil|YSize=45.4mil|CornerRadius=20.8mil|HoleSize=0mil|Usage=FLASHONLY|Rotation=270.000|XOffset=0mil|YOffset=0mil|HoleType=Round|Shape=RoundedRectangle|*
%AMROUNDEDRECTD21*
21,1,0.0572,0.0037,0,0,270.0*
21,1,0.0156,0.0454,0,0,270.0*
1,1,0.0417,-0.0019,-0.0078*
1,1,0.0417,-0.0019,0.0078*
1,1,0.0417,0.0019,0.0078*
1,1,0.0417,0.0019,-0.0078*
%
%ADD21ROUNDEDRECTD21*%
%ADD22R,0.1261X0.1261*%
%ADD23R,0.1064X0.1064*%
%ADD24C,0.1773*%
%ADD25R,0.0789X0.0789*%
%ADD26R,0.0789X0.0789*%
%ADD27C,0.1852*%
%ADD28C,0.1655*%
%ADD29C,0.0580*%
D16*
X4492Y30913D02*
D03*
Y31701D02*
D03*
D17*
X5555Y30795D02*
D03*
Y31051D02*
D03*
Y31307D02*
D03*
Y31563D02*
D03*
Y31819D02*
D03*
D18*
X16176Y33217D02*
D03*
Y34358D02*
D03*
X70358Y32094D02*
D03*
Y33236D02*
D03*
X66358D02*
D03*
Y32094D02*
D03*
X68358D02*
D03*
Y33236D02*
D03*
X12894Y40846D02*
D03*
Y41988D02*
D03*
X20386Y40846D02*
D03*
Y41988D02*
D03*
X27879Y40846D02*
D03*
Y41988D02*
D03*
X35372Y40846D02*
D03*
Y41988D02*
D03*
X42864Y40846D02*
D03*
Y41988D02*
D03*
X50357Y40846D02*
D03*
Y41988D02*
D03*
X57849Y40846D02*
D03*
Y41988D02*
D03*
X65342Y40846D02*
D03*
Y41988D02*
D03*
X72835Y40846D02*
D03*
Y41988D02*
D03*
X18176Y33217D02*
D03*
Y34358D02*
D03*
X17176Y33217D02*
D03*
Y34358D02*
D03*
D19*
X69724Y39173D02*
D03*
X68583D02*
D03*
X9724D02*
D03*
X8583D02*
D03*
X17224D02*
D03*
X16083D02*
D03*
X24724D02*
D03*
X23583D02*
D03*
X32224D02*
D03*
X31083D02*
D03*
X39724D02*
D03*
X38583D02*
D03*
X47224D02*
D03*
X46083D02*
D03*
X54724D02*
D03*
X53583D02*
D03*
X62224D02*
D03*
X61083D02*
D03*
D20*
X4492Y30087D02*
D03*
Y32528D02*
D03*
D21*
X5555Y30323D02*
D03*
Y32291D02*
D03*
D22*
X40421Y35433D02*
D03*
X54421D02*
D03*
X52421D02*
D03*
X44421D02*
D03*
X42421D02*
D03*
X50421D02*
D03*
X46421D02*
D03*
X48421D02*
D03*
X57287D02*
D03*
X59287D02*
D03*
X61287D02*
D03*
X67287D02*
D03*
X69287D02*
D03*
X65287D02*
D03*
X71287D02*
D03*
X63287D02*
D03*
X40421Y28157D02*
D03*
X54421D02*
D03*
X52421D02*
D03*
X44421D02*
D03*
X42421D02*
D03*
X50421D02*
D03*
X46421D02*
D03*
X48421D02*
D03*
X57287D02*
D03*
X59287D02*
D03*
X61287D02*
D03*
X67287D02*
D03*
X69287D02*
D03*
X65287D02*
D03*
X71287D02*
D03*
X63287D02*
D03*
D23*
X67654Y42142D02*
D03*
X70154Y43142D02*
D03*
X7654Y42142D02*
D03*
X10154Y43142D02*
D03*
X15154Y42142D02*
D03*
X17654Y43142D02*
D03*
X22654Y42142D02*
D03*
X25154Y43142D02*
D03*
X30154Y42142D02*
D03*
X32654Y43142D02*
D03*
X37654Y42126D02*
D03*
X40154Y43126D02*
D03*
X45154Y42142D02*
D03*
X47654Y43142D02*
D03*
X52654Y42126D02*
D03*
X55154Y43126D02*
D03*
X60154Y42142D02*
D03*
X62654Y43142D02*
D03*
D24*
X69154Y41142D02*
D03*
X9154D02*
D03*
X16654D02*
D03*
X24154D02*
D03*
X31654D02*
D03*
X39154Y41126D02*
D03*
X46654Y41142D02*
D03*
X54154Y41126D02*
D03*
X61654Y41142D02*
D03*
D25*
X22176Y36532D02*
D03*
X23176D02*
D03*
X21176D02*
D03*
X25176D02*
D03*
X26176D02*
D03*
X24176D02*
D03*
X17176D02*
D03*
X18176D02*
D03*
X16176D02*
D03*
X19176D02*
D03*
X20176D02*
D03*
X16176Y35531D02*
D03*
X23176D02*
D03*
X22176D02*
D03*
X25176D02*
D03*
X26176D02*
D03*
X24176D02*
D03*
X18176D02*
D03*
X19176D02*
D03*
X17176D02*
D03*
X21176D02*
D03*
X20176D02*
D03*
X11176Y36532D02*
D03*
X12176D02*
D03*
X14176D02*
D03*
X15176D02*
D03*
X13176D02*
D03*
X8176D02*
D03*
X9176D02*
D03*
X10176D02*
D03*
X7176Y35531D02*
D03*
X12176D02*
D03*
X13176D02*
D03*
X14176D02*
D03*
X15176D02*
D03*
X8176D02*
D03*
X9176D02*
D03*
X11176D02*
D03*
X10176D02*
D03*
D26*
X7176Y36532D02*
D03*
D27*
X28093Y26976D02*
D03*
X5258D02*
D03*
Y36031D02*
D03*
X28093D02*
D03*
D28*
X55634Y32094D02*
D03*
X14492Y26976D02*
D03*
X24728Y45874D02*
D03*
X53665D02*
D03*
D03*
X72957D02*
D03*
X72957Y32094D02*
D03*
X5437Y45874D02*
D03*
X34965Y26976D02*
D03*
Y36031D02*
D03*
D29*
X68358Y30677D02*
D03*
X19314Y31494D02*
D03*
X18626Y31494D02*
D03*
X19914Y31504D02*
D03*
X70358Y30677D02*
D03*
X66362D02*
D03*
X26602Y37911D02*
D03*
X20176D02*
D03*
M02*
