G04*
G04 #@! TF.GenerationSoftware,Altium Limited,Altium Designer,22.7.1 (60)*
G04*
G04 Layer_Physical_Order=1*
G04 Layer_Color=255*
%FSLAX24Y24*%
%MOIN*%
G70*
G04*
G04 #@! TF.SameCoordinates,DC1CCC30-8026-4ED1-971E-78593126AE31*
G04*
G04*
G04 #@! TF.FilePolarity,Positive*
G04*
G01*
G75*
%ADD12R,0.0610X0.0591*%
%ADD13R,0.0531X0.0157*%
%ADD14R,0.0630X0.0354*%
%ADD15R,0.0354X0.0630*%
%ADD30C,0.0300*%
%ADD31C,0.0150*%
%ADD32C,0.0120*%
G04:AMPARAMS|DCode=33|XSize=61mil|YSize=70.9mil|CornerRadius=21.4mil|HoleSize=0mil|Usage=FLASHONLY|Rotation=0.000|XOffset=0mil|YOffset=0mil|HoleType=Round|Shape=RoundedRectangle|*
%AMROUNDEDRECTD33*
21,1,0.0610,0.0281,0,0,0.0*
21,1,0.0183,0.0709,0,0,0.0*
1,1,0.0427,0.0092,-0.0141*
1,1,0.0427,-0.0092,-0.0141*
1,1,0.0427,-0.0092,0.0141*
1,1,0.0427,0.0092,0.0141*
%
%ADD33ROUNDEDRECTD33*%
G04:AMPARAMS|DCode=34|XSize=49.2mil|YSize=37.4mil|CornerRadius=16.8mil|HoleSize=0mil|Usage=FLASHONLY|Rotation=270.000|XOffset=0mil|YOffset=0mil|HoleType=Round|Shape=RoundedRectangle|*
%AMROUNDEDRECTD34*
21,1,0.0492,0.0037,0,0,270.0*
21,1,0.0156,0.0374,0,0,270.0*
1,1,0.0337,-0.0019,-0.0078*
1,1,0.0337,-0.0019,0.0078*
1,1,0.0337,0.0019,0.0078*
1,1,0.0337,0.0019,-0.0078*
%
%ADD34ROUNDEDRECTD34*%
%ADD35R,0.1181X0.1181*%
%ADD36R,0.0984X0.0984*%
%ADD37C,0.1693*%
%ADD38R,0.0709X0.0709*%
%ADD39R,0.0709X0.0709*%
%ADD40C,0.1772*%
%ADD41C,0.1575*%
%ADD42C,0.0500*%
G36*
X74335Y25598D02*
X3862D01*
Y47055D01*
X74335D01*
Y25598D01*
D02*
G37*
%LPC*%
G36*
X24828Y46759D02*
Y45974D01*
X25613D01*
X25582Y46133D01*
X25515Y46294D01*
X25418Y46440D01*
X25294Y46563D01*
X25149Y46660D01*
X24987Y46727D01*
X24828Y46759D01*
D02*
G37*
G36*
X5537D02*
Y45974D01*
X6322D01*
X6290Y46133D01*
X6223Y46294D01*
X6126Y46440D01*
X6003Y46563D01*
X5857Y46660D01*
X5696Y46727D01*
X5537Y46759D01*
D02*
G37*
G36*
X53765Y46759D02*
Y45974D01*
X54550D01*
X54519Y46133D01*
X54452Y46294D01*
X54355Y46440D01*
X54231Y46563D01*
X54086Y46660D01*
X53924Y46727D01*
X53765Y46759D01*
D02*
G37*
G36*
X73057Y46759D02*
Y45974D01*
X73842D01*
X73810Y46133D01*
X73743Y46294D01*
X73646Y46440D01*
X73522Y46563D01*
X73377Y46660D01*
X73216Y46727D01*
X73057Y46759D01*
D02*
G37*
G36*
X72857Y46759D02*
X72698Y46727D01*
X72536Y46660D01*
X72391Y46563D01*
X72267Y46440D01*
X72170Y46294D01*
X72103Y46133D01*
X72072Y45974D01*
X72857D01*
Y46759D01*
D02*
G37*
G36*
X53565Y46759D02*
X53407Y46727D01*
X53245Y46660D01*
X53100Y46563D01*
X52976Y46440D01*
X52879Y46294D01*
X52812Y46133D01*
X52780Y45974D01*
X53565D01*
Y46759D01*
D02*
G37*
G36*
X5337Y46759D02*
X5178Y46727D01*
X5017Y46660D01*
X4871Y46563D01*
X4748Y46440D01*
X4651Y46294D01*
X4584Y46133D01*
X4552Y45974D01*
X5337D01*
Y46759D01*
D02*
G37*
G36*
X24628D02*
X24469Y46727D01*
X24308Y46660D01*
X24163Y46563D01*
X24039Y46440D01*
X23942Y46294D01*
X23875Y46133D01*
X23843Y45974D01*
X24628D01*
Y46759D01*
D02*
G37*
G36*
X72857Y45774D02*
X72072D01*
X72103Y45615D01*
X72170Y45454D01*
X72267Y45308D01*
X72391Y45185D01*
X72536Y45088D01*
X72698Y45021D01*
X72857Y44989D01*
Y45774D01*
D02*
G37*
G36*
X53565D02*
X52780D01*
X52812Y45615D01*
X52879Y45454D01*
X52976Y45308D01*
X53100Y45185D01*
X53245Y45088D01*
X53407Y45021D01*
X53565Y44989D01*
Y45774D01*
D02*
G37*
G36*
X25613D02*
X24828D01*
Y44989D01*
X24987Y45021D01*
X25149Y45088D01*
X25294Y45185D01*
X25418Y45308D01*
X25515Y45454D01*
X25582Y45615D01*
X25613Y45774D01*
D02*
G37*
G36*
X6322D02*
X5537D01*
Y44989D01*
X5696Y45021D01*
X5857Y45088D01*
X6003Y45185D01*
X6126Y45308D01*
X6223Y45454D01*
X6290Y45615D01*
X6322Y45774D01*
D02*
G37*
G36*
X5337D02*
X4552D01*
X4584Y45615D01*
X4651Y45454D01*
X4748Y45308D01*
X4871Y45185D01*
X5017Y45088D01*
X5178Y45021D01*
X5337Y44989D01*
Y45774D01*
D02*
G37*
G36*
X24628D02*
X23843D01*
X23875Y45615D01*
X23942Y45454D01*
X24039Y45308D01*
X24163Y45185D01*
X24308Y45088D01*
X24469Y45021D01*
X24628Y44989D01*
Y45774D01*
D02*
G37*
G36*
X54550D02*
X53765D01*
Y44989D01*
X53924Y45021D01*
X54086Y45088D01*
X54231Y45185D01*
X54355Y45308D01*
X54452Y45454D01*
X54519Y45615D01*
X54550Y45774D01*
D02*
G37*
G36*
X73842D02*
X73057D01*
Y44989D01*
X73216Y45021D01*
X73377Y45088D01*
X73522Y45185D01*
X73646Y45308D01*
X73743Y45454D01*
X73810Y45615D01*
X73842Y45774D01*
D02*
G37*
G36*
X70746Y43734D02*
X70254D01*
Y43242D01*
X70746D01*
Y43734D01*
D02*
G37*
G36*
X70054D02*
X69561D01*
Y43242D01*
X70054D01*
Y43734D01*
D02*
G37*
G36*
X63246D02*
X62754D01*
Y43242D01*
X63246D01*
Y43734D01*
D02*
G37*
G36*
X62554D02*
X62061D01*
Y43242D01*
X62554D01*
Y43734D01*
D02*
G37*
G36*
X48246D02*
X47754D01*
Y43242D01*
X48246D01*
Y43734D01*
D02*
G37*
G36*
X47554D02*
X47061D01*
Y43242D01*
X47554D01*
Y43734D01*
D02*
G37*
G36*
X33246D02*
X32754D01*
Y43242D01*
X33246D01*
Y43734D01*
D02*
G37*
G36*
X32554D02*
X32061D01*
Y43242D01*
X32554D01*
Y43734D01*
D02*
G37*
G36*
X25746D02*
X25254D01*
Y43242D01*
X25746D01*
Y43734D01*
D02*
G37*
G36*
X25054D02*
X24561D01*
Y43242D01*
X25054D01*
Y43734D01*
D02*
G37*
G36*
X18246D02*
X17754D01*
Y43242D01*
X18246D01*
Y43734D01*
D02*
G37*
G36*
X17554D02*
X17061D01*
Y43242D01*
X17554D01*
Y43734D01*
D02*
G37*
G36*
X10746D02*
X10254D01*
Y43242D01*
X10746D01*
Y43734D01*
D02*
G37*
G36*
X10054D02*
X9561D01*
Y43242D01*
X10054D01*
Y43734D01*
D02*
G37*
G36*
X55746Y43718D02*
X55254D01*
Y43226D01*
X55746D01*
Y43718D01*
D02*
G37*
G36*
X55054D02*
X54561D01*
Y43226D01*
X55054D01*
Y43718D01*
D02*
G37*
G36*
X40746D02*
X40254D01*
Y43226D01*
X40746D01*
Y43718D01*
D02*
G37*
G36*
X40054D02*
X39561D01*
Y43226D01*
X40054D01*
Y43718D01*
D02*
G37*
G36*
X70746Y43042D02*
X70254D01*
Y42550D01*
X70746D01*
Y43042D01*
D02*
G37*
G36*
X70054D02*
X69561D01*
Y42550D01*
X70054D01*
Y43042D01*
D02*
G37*
G36*
X63246D02*
X62754D01*
Y42550D01*
X63246D01*
Y43042D01*
D02*
G37*
G36*
X62554D02*
X62061D01*
Y42550D01*
X62554D01*
Y43042D01*
D02*
G37*
G36*
X48246D02*
X47754D01*
Y42550D01*
X48246D01*
Y43042D01*
D02*
G37*
G36*
X47554D02*
X47061D01*
Y42550D01*
X47554D01*
Y43042D01*
D02*
G37*
G36*
X33246D02*
X32754D01*
Y42550D01*
X33246D01*
Y43042D01*
D02*
G37*
G36*
X32554D02*
X32061D01*
Y42550D01*
X32554D01*
Y43042D01*
D02*
G37*
G36*
X25746D02*
X25254D01*
Y42550D01*
X25746D01*
Y43042D01*
D02*
G37*
G36*
X25054D02*
X24561D01*
Y42550D01*
X25054D01*
Y43042D01*
D02*
G37*
G36*
X18246D02*
X17754D01*
Y42550D01*
X18246D01*
Y43042D01*
D02*
G37*
G36*
X17554D02*
X17061D01*
Y42550D01*
X17554D01*
Y43042D01*
D02*
G37*
G36*
X10746D02*
X10254D01*
Y42550D01*
X10746D01*
Y43042D01*
D02*
G37*
G36*
X10054D02*
X9561D01*
Y42550D01*
X10054D01*
Y43042D01*
D02*
G37*
G36*
X55746Y43026D02*
X55254D01*
Y42534D01*
X55746D01*
Y43026D01*
D02*
G37*
G36*
X55054D02*
X54561D01*
Y42534D01*
X55054D01*
Y43026D01*
D02*
G37*
G36*
X40746D02*
X40254D01*
Y42534D01*
X40746D01*
Y43026D01*
D02*
G37*
G36*
X40054D02*
X39561D01*
Y42534D01*
X40054D01*
Y43026D01*
D02*
G37*
G36*
X73250Y42265D02*
X72935D01*
Y42088D01*
X73250D01*
Y42265D01*
D02*
G37*
G36*
X72735D02*
X72420D01*
Y42088D01*
X72735D01*
Y42265D01*
D02*
G37*
G36*
X20801D02*
X20486D01*
Y42088D01*
X20801D01*
Y42265D01*
D02*
G37*
G36*
X65757D02*
X65442D01*
Y42088D01*
X65757D01*
Y42265D01*
D02*
G37*
G36*
X50772D02*
X50457D01*
Y42088D01*
X50772D01*
Y42265D01*
D02*
G37*
G36*
X35787D02*
X35472D01*
Y42088D01*
X35787D01*
Y42265D01*
D02*
G37*
G36*
X20286D02*
X19971D01*
Y42088D01*
X20286D01*
Y42265D01*
D02*
G37*
G36*
X50257D02*
X49942D01*
Y42088D01*
X50257D01*
Y42265D01*
D02*
G37*
G36*
X65242D02*
X64927D01*
Y42088D01*
X65242D01*
Y42265D01*
D02*
G37*
G36*
X35272D02*
X34957D01*
Y42088D01*
X35272D01*
Y42265D01*
D02*
G37*
G36*
X13309D02*
X12994D01*
Y42088D01*
X13309D01*
Y42265D01*
D02*
G37*
G36*
X12794D02*
X12479D01*
Y42088D01*
X12794D01*
Y42265D01*
D02*
G37*
G36*
X28294D02*
X27979D01*
Y42088D01*
X28294D01*
Y42265D01*
D02*
G37*
G36*
X58264D02*
X57949D01*
Y42088D01*
X58264D01*
Y42265D01*
D02*
G37*
G36*
X43279D02*
X42964D01*
Y42088D01*
X43279D01*
Y42265D01*
D02*
G37*
G36*
X27779D02*
X27464D01*
Y42088D01*
X27779D01*
Y42265D01*
D02*
G37*
G36*
X42764D02*
X42449D01*
Y42088D01*
X42764D01*
Y42265D01*
D02*
G37*
G36*
X57749D02*
X57434D01*
Y42088D01*
X57749D01*
Y42265D01*
D02*
G37*
G36*
X73250Y41888D02*
X72935D01*
Y41711D01*
X73250D01*
Y41888D01*
D02*
G37*
G36*
X72735D02*
X72420D01*
Y41711D01*
X72735D01*
Y41888D01*
D02*
G37*
G36*
X65757Y41888D02*
X65442D01*
Y41711D01*
X65757D01*
Y41888D01*
D02*
G37*
G36*
X65242D02*
X64927D01*
Y41711D01*
X65242D01*
Y41888D01*
D02*
G37*
G36*
X58264Y41888D02*
X57949D01*
Y41711D01*
X58264D01*
Y41888D01*
D02*
G37*
G36*
X57749D02*
X57434D01*
Y41711D01*
X57749D01*
Y41888D01*
D02*
G37*
G36*
X50772Y41888D02*
X50457D01*
Y41711D01*
X50772D01*
Y41888D01*
D02*
G37*
G36*
X50257D02*
X49942D01*
Y41711D01*
X50257D01*
Y41888D01*
D02*
G37*
G36*
X43279Y41888D02*
X42964D01*
Y41711D01*
X43279D01*
Y41888D01*
D02*
G37*
G36*
X42764D02*
X42449D01*
Y41711D01*
X42764D01*
Y41888D01*
D02*
G37*
G36*
X35787Y41888D02*
X35472D01*
Y41711D01*
X35787D01*
Y41888D01*
D02*
G37*
G36*
X35272D02*
X34957D01*
Y41711D01*
X35272D01*
Y41888D01*
D02*
G37*
G36*
X28294Y41888D02*
X27979D01*
Y41711D01*
X28294D01*
Y41888D01*
D02*
G37*
G36*
X27779D02*
X27464D01*
Y41711D01*
X27779D01*
Y41888D01*
D02*
G37*
G36*
X20801Y41888D02*
X20486D01*
Y41711D01*
X20801D01*
Y41888D01*
D02*
G37*
G36*
X20286D02*
X19971D01*
Y41711D01*
X20286D01*
Y41888D01*
D02*
G37*
G36*
X13309Y41888D02*
X12994D01*
Y41711D01*
X13309D01*
Y41888D01*
D02*
G37*
G36*
X12794D02*
X12479D01*
Y41711D01*
X12794D01*
Y41888D01*
D02*
G37*
G36*
X68246Y42734D02*
X67061D01*
Y41550D01*
X68246D01*
Y42734D01*
D02*
G37*
G36*
X60746D02*
X59561D01*
Y41550D01*
X60746D01*
Y42734D01*
D02*
G37*
G36*
X45746D02*
X44561D01*
Y41550D01*
X45746D01*
Y42734D01*
D02*
G37*
G36*
X30746D02*
X29561D01*
Y41550D01*
X30746D01*
Y42734D01*
D02*
G37*
G36*
X23246D02*
X22061D01*
Y41550D01*
X23246D01*
Y42734D01*
D02*
G37*
G36*
X15746D02*
X14561D01*
Y41550D01*
X15746D01*
Y42734D01*
D02*
G37*
G36*
X8246D02*
X7061D01*
Y41550D01*
X8246D01*
Y42734D01*
D02*
G37*
G36*
X53246Y42718D02*
X52061D01*
Y41534D01*
X53246D01*
Y42718D01*
D02*
G37*
G36*
X38246D02*
X37061D01*
Y41534D01*
X38246D01*
Y42718D01*
D02*
G37*
G36*
X69254Y42087D02*
Y41242D01*
X70099D01*
X70064Y41418D01*
X69992Y41590D01*
X69889Y41745D01*
X69757Y41877D01*
X69602Y41980D01*
X69430Y42052D01*
X69254Y42087D01*
D02*
G37*
G36*
X69054D02*
X68877Y42052D01*
X68705Y41980D01*
X68550Y41877D01*
X68418Y41745D01*
X68315Y41590D01*
X68243Y41418D01*
X68208Y41242D01*
X69054D01*
Y42087D01*
D02*
G37*
G36*
X61754D02*
Y41242D01*
X62599D01*
X62564Y41418D01*
X62492Y41590D01*
X62389Y41745D01*
X62257Y41877D01*
X62102Y41980D01*
X61930Y42052D01*
X61754Y42087D01*
D02*
G37*
G36*
X61554D02*
X61377Y42052D01*
X61205Y41980D01*
X61050Y41877D01*
X60918Y41745D01*
X60815Y41590D01*
X60743Y41418D01*
X60708Y41242D01*
X61554D01*
Y42087D01*
D02*
G37*
G36*
X46754D02*
Y41242D01*
X47599D01*
X47564Y41418D01*
X47492Y41590D01*
X47389Y41745D01*
X47257Y41877D01*
X47102Y41980D01*
X46930Y42052D01*
X46754Y42087D01*
D02*
G37*
G36*
X46554D02*
X46377Y42052D01*
X46205Y41980D01*
X46050Y41877D01*
X45918Y41745D01*
X45815Y41590D01*
X45743Y41418D01*
X45708Y41242D01*
X46554D01*
Y42087D01*
D02*
G37*
G36*
X31754D02*
Y41242D01*
X32599D01*
X32564Y41418D01*
X32492Y41590D01*
X32389Y41745D01*
X32257Y41877D01*
X32102Y41980D01*
X31930Y42052D01*
X31754Y42087D01*
D02*
G37*
G36*
X31554D02*
X31377Y42052D01*
X31205Y41980D01*
X31050Y41877D01*
X30918Y41745D01*
X30815Y41590D01*
X30743Y41418D01*
X30708Y41242D01*
X31554D01*
Y42087D01*
D02*
G37*
G36*
X24254D02*
Y41242D01*
X25099D01*
X25064Y41418D01*
X24992Y41590D01*
X24889Y41745D01*
X24757Y41877D01*
X24602Y41980D01*
X24430Y42052D01*
X24254Y42087D01*
D02*
G37*
G36*
X24054D02*
X23877Y42052D01*
X23705Y41980D01*
X23550Y41877D01*
X23418Y41745D01*
X23315Y41590D01*
X23243Y41418D01*
X23208Y41242D01*
X24054D01*
Y42087D01*
D02*
G37*
G36*
X16754D02*
Y41242D01*
X17599D01*
X17564Y41418D01*
X17492Y41590D01*
X17389Y41745D01*
X17257Y41877D01*
X17102Y41980D01*
X16930Y42052D01*
X16754Y42087D01*
D02*
G37*
G36*
X16554D02*
X16377Y42052D01*
X16205Y41980D01*
X16050Y41877D01*
X15918Y41745D01*
X15815Y41590D01*
X15743Y41418D01*
X15708Y41242D01*
X16554D01*
Y42087D01*
D02*
G37*
G36*
X9254D02*
Y41242D01*
X10099D01*
X10064Y41418D01*
X9992Y41590D01*
X9889Y41745D01*
X9757Y41877D01*
X9602Y41980D01*
X9430Y42052D01*
X9254Y42087D01*
D02*
G37*
G36*
X9054D02*
X8877Y42052D01*
X8705Y41980D01*
X8550Y41877D01*
X8418Y41745D01*
X8315Y41590D01*
X8243Y41418D01*
X8208Y41242D01*
X9054D01*
Y42087D01*
D02*
G37*
G36*
X54254Y42071D02*
Y41226D01*
X55099D01*
X55064Y41402D01*
X54992Y41574D01*
X54889Y41729D01*
X54757Y41861D01*
X54602Y41965D01*
X54430Y42036D01*
X54254Y42071D01*
D02*
G37*
G36*
X54054D02*
X53877Y42036D01*
X53705Y41965D01*
X53550Y41861D01*
X53418Y41729D01*
X53315Y41574D01*
X53243Y41402D01*
X53208Y41226D01*
X54054D01*
Y42071D01*
D02*
G37*
G36*
X39254D02*
Y41226D01*
X40099D01*
X40064Y41402D01*
X39992Y41574D01*
X39889Y41729D01*
X39757Y41861D01*
X39602Y41965D01*
X39430Y42036D01*
X39254Y42071D01*
D02*
G37*
G36*
X39054D02*
X38877Y42036D01*
X38705Y41965D01*
X38550Y41861D01*
X38418Y41729D01*
X38315Y41574D01*
X38243Y41402D01*
X38208Y41226D01*
X39054D01*
Y42071D01*
D02*
G37*
G36*
X70099Y41042D02*
X69254D01*
Y40197D01*
X69430Y40232D01*
X69602Y40303D01*
X69757Y40407D01*
X69889Y40538D01*
X69992Y40693D01*
X70064Y40866D01*
X70099Y41042D01*
D02*
G37*
G36*
X69054D02*
X68208D01*
X68243Y40866D01*
X68315Y40693D01*
X68418Y40538D01*
X68550Y40407D01*
X68705Y40303D01*
X68877Y40232D01*
X69054Y40197D01*
Y41042D01*
D02*
G37*
G36*
X16554D02*
X15708D01*
X15743Y40866D01*
X15815Y40693D01*
X15918Y40538D01*
X16050Y40407D01*
X16205Y40303D01*
X16377Y40232D01*
X16554Y40197D01*
Y41042D01*
D02*
G37*
G36*
X10099D02*
X9254D01*
Y40197D01*
X9430Y40232D01*
X9602Y40303D01*
X9757Y40407D01*
X9889Y40538D01*
X9992Y40693D01*
X10064Y40866D01*
X10099Y41042D01*
D02*
G37*
G36*
X9054D02*
X8208D01*
X8243Y40866D01*
X8315Y40693D01*
X8418Y40538D01*
X8550Y40407D01*
X8705Y40303D01*
X8877Y40232D01*
X9054Y40197D01*
Y41042D01*
D02*
G37*
G36*
X62599D02*
X61754D01*
Y40197D01*
X61930Y40232D01*
X62102Y40303D01*
X62257Y40407D01*
X62389Y40538D01*
X62492Y40693D01*
X62564Y40866D01*
X62599Y41042D01*
D02*
G37*
G36*
X61554D02*
X60708D01*
X60743Y40866D01*
X60815Y40693D01*
X60918Y40538D01*
X61050Y40407D01*
X61205Y40303D01*
X61377Y40232D01*
X61554Y40197D01*
Y41042D01*
D02*
G37*
G36*
X47599D02*
X46754D01*
Y40197D01*
X46930Y40232D01*
X47102Y40303D01*
X47257Y40407D01*
X47389Y40538D01*
X47492Y40693D01*
X47564Y40866D01*
X47599Y41042D01*
D02*
G37*
G36*
X46554D02*
X45708D01*
X45743Y40866D01*
X45815Y40693D01*
X45918Y40538D01*
X46050Y40407D01*
X46205Y40303D01*
X46377Y40232D01*
X46554Y40197D01*
Y41042D01*
D02*
G37*
G36*
X32599D02*
X31754D01*
Y40197D01*
X31930Y40232D01*
X32102Y40303D01*
X32257Y40407D01*
X32389Y40538D01*
X32492Y40693D01*
X32564Y40866D01*
X32599Y41042D01*
D02*
G37*
G36*
X31554D02*
X30708D01*
X30743Y40866D01*
X30815Y40693D01*
X30918Y40538D01*
X31050Y40407D01*
X31205Y40303D01*
X31377Y40232D01*
X31554Y40197D01*
Y41042D01*
D02*
G37*
G36*
X25099D02*
X24254D01*
Y40197D01*
X24430Y40232D01*
X24602Y40303D01*
X24757Y40407D01*
X24889Y40538D01*
X24992Y40693D01*
X25064Y40866D01*
X25099Y41042D01*
D02*
G37*
G36*
X24054D02*
X23208D01*
X23243Y40866D01*
X23315Y40693D01*
X23418Y40538D01*
X23550Y40407D01*
X23705Y40303D01*
X23877Y40232D01*
X24054Y40197D01*
Y41042D01*
D02*
G37*
G36*
X17599D02*
X16754D01*
Y40197D01*
X16930Y40232D01*
X17102Y40303D01*
X17257Y40407D01*
X17389Y40538D01*
X17492Y40693D01*
X17564Y40866D01*
X17599Y41042D01*
D02*
G37*
G36*
X55099Y41026D02*
X54254D01*
Y40181D01*
X54430Y40216D01*
X54602Y40287D01*
X54757Y40391D01*
X54889Y40523D01*
X54992Y40678D01*
X55064Y40850D01*
X55099Y41026D01*
D02*
G37*
G36*
X54054D02*
X53208D01*
X53243Y40850D01*
X53315Y40678D01*
X53418Y40523D01*
X53550Y40391D01*
X53705Y40287D01*
X53877Y40216D01*
X54054Y40181D01*
Y41026D01*
D02*
G37*
G36*
X40099D02*
X39254D01*
Y40181D01*
X39430Y40216D01*
X39602Y40287D01*
X39757Y40391D01*
X39889Y40523D01*
X39992Y40678D01*
X40064Y40850D01*
X40099Y41026D01*
D02*
G37*
G36*
X39054D02*
X38208D01*
X38243Y40850D01*
X38315Y40678D01*
X38418Y40523D01*
X38550Y40391D01*
X38705Y40287D01*
X38877Y40216D01*
X39054Y40181D01*
Y41026D01*
D02*
G37*
G36*
X73250Y41124D02*
X72420D01*
Y40569D01*
X72580D01*
Y39952D01*
X72056Y39428D01*
X70002D01*
Y39588D01*
X69447D01*
Y38758D01*
X70002D01*
Y38918D01*
X72161D01*
X72259Y38938D01*
X72342Y38993D01*
X73015Y39666D01*
X73070Y39749D01*
X73090Y39846D01*
Y40569D01*
X73250D01*
Y41124D01*
D02*
G37*
G36*
X65757D02*
X64927D01*
Y40569D01*
X65087D01*
Y39841D01*
X64674Y39428D01*
X62502D01*
Y39588D01*
X61947D01*
Y38797D01*
X61947Y38758D01*
X61902Y38747D01*
X61405D01*
X61360Y38758D01*
Y39588D01*
X60806D01*
Y38758D01*
X60760Y38747D01*
X55047D01*
X55002Y38758D01*
X55002Y38797D01*
Y38918D01*
X57102D01*
X57200Y38938D01*
X57283Y38993D01*
X58030Y39740D01*
X58085Y39823D01*
X58104Y39920D01*
Y40569D01*
X58264D01*
Y41124D01*
X57434D01*
Y40569D01*
X57595D01*
Y40026D01*
X56997Y39428D01*
X55002D01*
Y39588D01*
X54447D01*
Y38797D01*
X54447Y38758D01*
X54402Y38747D01*
X53905D01*
X53860Y38758D01*
Y39588D01*
X53306D01*
Y38758D01*
X53260Y38747D01*
X47547D01*
X47502Y38758D01*
X47502Y38797D01*
Y38918D01*
X49622D01*
X49720Y38938D01*
X49802Y38993D01*
X50537Y39728D01*
X50592Y39810D01*
X50612Y39908D01*
Y40569D01*
X50772D01*
Y41124D01*
X49942D01*
Y40569D01*
X50102D01*
Y40014D01*
X49516Y39428D01*
X47502D01*
Y39588D01*
X46947D01*
Y38797D01*
X46947Y38758D01*
X46902Y38747D01*
X46405D01*
X46360Y38758D01*
X46360Y38797D01*
Y39588D01*
X45806D01*
Y38797D01*
X45806Y38758D01*
X45760Y38747D01*
X40047D01*
X40002Y38758D01*
X40002Y38797D01*
Y38918D01*
X42339D01*
X42436Y38938D01*
X42519Y38993D01*
X43044Y39519D01*
X43100Y39601D01*
X43119Y39699D01*
Y40569D01*
X43279D01*
Y41124D01*
X42449D01*
Y40569D01*
X42609D01*
Y39804D01*
X42233Y39428D01*
X40002D01*
Y39588D01*
X39447D01*
Y38797D01*
X39447Y38758D01*
X39402Y38747D01*
X38905D01*
X38860Y38758D01*
Y39588D01*
X38306D01*
Y38758D01*
X38260Y38747D01*
X32547D01*
X32502Y38758D01*
X32502Y38797D01*
Y38918D01*
X34465D01*
X34562Y38938D01*
X34645Y38993D01*
X35552Y39900D01*
X35607Y39983D01*
X35626Y40080D01*
Y40569D01*
X35787D01*
Y41124D01*
X34957D01*
Y40569D01*
X35117D01*
Y40186D01*
X34359Y39428D01*
X32502D01*
Y39588D01*
X31947D01*
Y38797D01*
X31947Y38758D01*
X31902Y38747D01*
X31405D01*
X31360Y38758D01*
Y39588D01*
X30806D01*
Y38758D01*
X30760Y38747D01*
X25047D01*
X25002Y38758D01*
X25002Y38797D01*
Y38918D01*
X26787D01*
X26885Y38938D01*
X26968Y38993D01*
X28059Y40085D01*
X28114Y40167D01*
X28134Y40265D01*
Y40569D01*
X28294D01*
Y41124D01*
X27464D01*
Y40569D01*
X27624D01*
Y40370D01*
X26682Y39428D01*
X25002D01*
Y39588D01*
X24447D01*
Y38797D01*
X24447Y38758D01*
X24402Y38747D01*
X23905D01*
X23860Y38758D01*
Y39588D01*
X23306D01*
Y38758D01*
X23260Y38747D01*
X17547D01*
X17502Y38758D01*
X17502Y38797D01*
Y38918D01*
X19602D01*
X19700Y38938D01*
X19783Y38993D01*
X20567Y39777D01*
X20622Y39860D01*
X20641Y39957D01*
Y40569D01*
X20801D01*
Y41124D01*
X19971D01*
Y40569D01*
X20131D01*
Y40063D01*
X19497Y39428D01*
X17502D01*
Y39588D01*
X16947D01*
Y38797D01*
X16947Y38758D01*
X16902Y38747D01*
X16405D01*
X16360Y38758D01*
Y39588D01*
X15806D01*
Y38758D01*
X15760Y38747D01*
X10047D01*
X10002Y38758D01*
X10002Y38797D01*
Y38918D01*
X12024D01*
X12121Y38938D01*
X12204Y38993D01*
X13074Y39863D01*
X13129Y39946D01*
X13149Y40043D01*
Y40569D01*
X13309D01*
Y41124D01*
X12479D01*
Y40569D01*
X12639D01*
Y40149D01*
X11918Y39428D01*
X10002D01*
Y39588D01*
X9447D01*
Y38797D01*
X9447Y38758D01*
X9402Y38747D01*
X9232D01*
X8860Y39119D01*
Y39588D01*
X8306D01*
Y38758D01*
X8499D01*
X8946Y38312D01*
X9028Y38257D01*
X9126Y38237D01*
X19949D01*
X19953Y38219D01*
X19957Y38187D01*
X19896Y38126D01*
X19850Y38046D01*
X19826Y37957D01*
Y37865D01*
X19850Y37776D01*
X19884Y37716D01*
X19859Y37666D01*
X7286D01*
X7188Y37647D01*
X7106Y37591D01*
X7105Y37590D01*
X6718D01*
X6718Y37590D01*
X6650Y37576D01*
X6592Y37537D01*
X6295Y37240D01*
X6256Y37182D01*
X6243Y37114D01*
Y36362D01*
X6193Y36352D01*
X6132Y36498D01*
X6024Y36660D01*
X5887Y36797D01*
X5725Y36905D01*
X5546Y36979D01*
X5356Y37017D01*
X5161D01*
X4971Y36979D01*
X4791Y36905D01*
X4630Y36797D01*
X4493Y36660D01*
X4385Y36498D01*
X4310Y36319D01*
X4273Y36129D01*
Y35934D01*
X4310Y35744D01*
X4385Y35565D01*
X4493Y35403D01*
X4630Y35266D01*
X4791Y35158D01*
X4971Y35084D01*
X5161Y35046D01*
X5356D01*
X5546Y35084D01*
X5725Y35158D01*
X5887Y35266D01*
X6024Y35403D01*
X6132Y35565D01*
X6193Y35711D01*
X6243Y35701D01*
Y32267D01*
X5973Y31997D01*
X5921D01*
Y31998D01*
X5809D01*
X5785Y32048D01*
X5808Y32078D01*
X5835Y32144D01*
X5844Y32214D01*
Y32369D01*
X5835Y32439D01*
X5808Y32504D01*
X5765Y32560D01*
X5709Y32603D01*
X5644Y32631D01*
X5574Y32640D01*
X5536D01*
X5466Y32631D01*
X5401Y32603D01*
X5345Y32560D01*
X5302Y32504D01*
X5275Y32439D01*
X5266Y32369D01*
Y32214D01*
X5275Y32144D01*
X5302Y32078D01*
X5326Y32048D01*
X5301Y31998D01*
X5189D01*
Y31640D01*
Y31384D01*
Y31128D01*
Y30872D01*
Y30872D01*
X5555D01*
X5921D01*
Y30872D01*
Y31128D01*
Y31384D01*
Y31640D01*
X6047D01*
X6116Y31654D01*
X6173Y31693D01*
X6547Y32067D01*
X6547Y32067D01*
X6586Y32125D01*
X6600Y32193D01*
Y37040D01*
X6792Y37233D01*
X6855D01*
Y36986D01*
X6721D01*
Y36077D01*
X7630D01*
Y36986D01*
X7365D01*
Y37130D01*
X7366Y37131D01*
X7383Y37156D01*
X7921D01*
Y36986D01*
X7721D01*
Y36077D01*
X8630D01*
Y36986D01*
X8431D01*
Y37156D01*
X54444D01*
X55477Y36123D01*
Y34555D01*
X55497Y34458D01*
X55552Y34375D01*
X57225Y32702D01*
X57308Y32646D01*
X57406Y32627D01*
X60891D01*
Y32121D01*
X57617Y28848D01*
X56597D01*
Y27467D01*
X57978D01*
Y28488D01*
X61326Y31836D01*
X61381Y31918D01*
X61401Y32016D01*
Y33575D01*
X61381Y33672D01*
X61326Y33755D01*
X59978Y35103D01*
Y36124D01*
X58597D01*
Y34743D01*
X59617D01*
X60891Y33469D01*
Y33159D01*
X60878Y33150D01*
X60864Y33137D01*
X57511D01*
X55987Y34661D01*
Y36228D01*
X55968Y36326D01*
X55913Y36409D01*
X54730Y37591D01*
X54647Y37647D01*
X54550Y37666D01*
X26918D01*
X26893Y37716D01*
X26928Y37776D01*
X26952Y37865D01*
Y37957D01*
X26928Y38046D01*
X26882Y38126D01*
X26821Y38187D01*
X26824Y38219D01*
X26829Y38237D01*
X57032D01*
Y36124D01*
X56597D01*
Y34743D01*
X57978D01*
Y36124D01*
X57542D01*
Y38237D01*
X67902D01*
X67999Y38257D01*
X68082Y38312D01*
X68523Y38753D01*
X68556D01*
X68580Y38758D01*
X68860D01*
Y39588D01*
X68306D01*
Y39234D01*
X68237Y39189D01*
X67796Y38747D01*
X62547D01*
X62502Y38758D01*
X62502Y38797D01*
Y38918D01*
X64780D01*
X64877Y38938D01*
X64960Y38993D01*
X65522Y39555D01*
X65578Y39638D01*
X65597Y39736D01*
Y40569D01*
X65757D01*
Y41124D01*
D02*
G37*
G36*
X23630Y36986D02*
X23276D01*
Y36632D01*
X23630D01*
Y36986D01*
D02*
G37*
G36*
X23076D02*
X22721D01*
Y36632D01*
X23076D01*
Y36986D01*
D02*
G37*
G36*
X21630D02*
X21276D01*
Y36632D01*
X21630D01*
Y36986D01*
D02*
G37*
G36*
X21076D02*
X20721D01*
Y36632D01*
X21076D01*
Y36986D01*
D02*
G37*
G36*
X16630D02*
X16276D01*
Y36632D01*
X16630D01*
Y36986D01*
D02*
G37*
G36*
X16076D02*
X15721D01*
Y36632D01*
X16076D01*
Y36986D01*
D02*
G37*
G36*
X13630D02*
X13276D01*
Y36632D01*
X13630D01*
Y36986D01*
D02*
G37*
G36*
X13076D02*
X12721D01*
Y36632D01*
X13076D01*
Y36986D01*
D02*
G37*
G36*
X9630D02*
X9276D01*
Y36632D01*
X9630D01*
Y36986D01*
D02*
G37*
G36*
X9076D02*
X8721D01*
Y36632D01*
X9076D01*
Y36986D01*
D02*
G37*
G36*
X35065Y36916D02*
Y36131D01*
X35849D01*
X35818Y36290D01*
X35751Y36452D01*
X35654Y36597D01*
X35530Y36721D01*
X35385Y36818D01*
X35223Y36885D01*
X35065Y36916D01*
D02*
G37*
G36*
X34865D02*
X34706Y36885D01*
X34544Y36818D01*
X34399Y36721D01*
X34275Y36597D01*
X34178Y36452D01*
X34111Y36290D01*
X34080Y36131D01*
X34865D01*
Y36916D01*
D02*
G37*
G36*
X26630Y36986D02*
X25721D01*
Y36077D01*
X26630D01*
Y36986D01*
D02*
G37*
G36*
X25630D02*
X24721D01*
Y36077D01*
X25630D01*
Y36986D01*
D02*
G37*
G36*
X24630D02*
X23721D01*
Y36077D01*
X24630D01*
Y36986D01*
D02*
G37*
G36*
X23630Y36432D02*
X23276D01*
Y36077D01*
X23630D01*
Y36432D01*
D02*
G37*
G36*
X23076D02*
X22721D01*
Y36077D01*
X23076D01*
Y36432D01*
D02*
G37*
G36*
X22630Y36986D02*
X21721D01*
Y36077D01*
X22630D01*
Y36986D01*
D02*
G37*
G36*
X21630Y36432D02*
X21276D01*
Y36077D01*
X21630D01*
Y36432D01*
D02*
G37*
G36*
X21076D02*
X20721D01*
Y36077D01*
X21076D01*
Y36432D01*
D02*
G37*
G36*
X20630Y36986D02*
X19721D01*
Y36077D01*
X20630D01*
Y36986D01*
D02*
G37*
G36*
X19630D02*
X18721D01*
Y36077D01*
X19630D01*
Y36986D01*
D02*
G37*
G36*
X18630D02*
X17721D01*
Y36077D01*
X18630D01*
Y36986D01*
D02*
G37*
G36*
X17630D02*
X16721D01*
Y36077D01*
X17630D01*
Y36986D01*
D02*
G37*
G36*
X16630Y36432D02*
X16276D01*
Y36077D01*
X16630D01*
Y36432D01*
D02*
G37*
G36*
X16076D02*
X15721D01*
Y36077D01*
X16076D01*
Y36432D01*
D02*
G37*
G36*
X15630Y36986D02*
X14721D01*
Y36077D01*
X15630D01*
Y36986D01*
D02*
G37*
G36*
X14630D02*
X13721D01*
Y36077D01*
X14630D01*
Y36986D01*
D02*
G37*
G36*
X13630Y36432D02*
X13276D01*
Y36077D01*
X13630D01*
Y36432D01*
D02*
G37*
G36*
X13076D02*
X12721D01*
Y36077D01*
X13076D01*
Y36432D01*
D02*
G37*
G36*
X12630Y36986D02*
X11721D01*
Y36077D01*
X12630D01*
Y36986D01*
D02*
G37*
G36*
X11630D02*
X10721D01*
Y36077D01*
X11630D01*
Y36986D01*
D02*
G37*
G36*
X10630D02*
X9721D01*
Y36077D01*
X10630D01*
Y36986D01*
D02*
G37*
G36*
X9630Y36432D02*
X9276D01*
Y36077D01*
X9630D01*
Y36432D01*
D02*
G37*
G36*
X9076D02*
X8721D01*
Y36077D01*
X9076D01*
Y36432D01*
D02*
G37*
G36*
X26630Y35986D02*
X26276D01*
Y35631D01*
X26630D01*
Y35986D01*
D02*
G37*
G36*
X26076D02*
X25721D01*
Y35631D01*
X26076D01*
Y35986D01*
D02*
G37*
G36*
X19630D02*
X19276D01*
Y35631D01*
X19630D01*
Y35986D01*
D02*
G37*
G36*
X19076D02*
X18721D01*
Y35631D01*
X19076D01*
Y35986D01*
D02*
G37*
G36*
X11630D02*
X11276D01*
Y35631D01*
X11630D01*
Y35986D01*
D02*
G37*
G36*
X11076D02*
X10721D01*
Y35631D01*
X11076D01*
Y35986D01*
D02*
G37*
G36*
X71978Y36124D02*
X71387D01*
Y35533D01*
X71978D01*
Y36124D01*
D02*
G37*
G36*
X71187D02*
X70597D01*
Y35533D01*
X71187D01*
Y36124D01*
D02*
G37*
G36*
X67978D02*
X67387D01*
Y35533D01*
X67978D01*
Y36124D01*
D02*
G37*
G36*
X67187D02*
X66597D01*
Y35533D01*
X67187D01*
Y36124D01*
D02*
G37*
G36*
X61978D02*
X61387D01*
Y35533D01*
X61978D01*
Y36124D01*
D02*
G37*
G36*
X61187D02*
X60597D01*
Y35533D01*
X61187D01*
Y36124D01*
D02*
G37*
G36*
X43112D02*
X42521D01*
Y35533D01*
X43112D01*
Y36124D01*
D02*
G37*
G36*
X42321D02*
X41731D01*
Y35533D01*
X42321D01*
Y36124D01*
D02*
G37*
G36*
X41112D02*
X40521D01*
Y35533D01*
X41112D01*
Y36124D01*
D02*
G37*
G36*
X40321D02*
X39731D01*
Y35533D01*
X40321D01*
Y36124D01*
D02*
G37*
G36*
X35849Y35931D02*
X35065D01*
Y35147D01*
X35223Y35178D01*
X35385Y35245D01*
X35530Y35342D01*
X35654Y35466D01*
X35751Y35611D01*
X35818Y35773D01*
X35849Y35931D01*
D02*
G37*
G36*
X34865D02*
X34080D01*
X34111Y35773D01*
X34178Y35611D01*
X34275Y35466D01*
X34399Y35342D01*
X34544Y35245D01*
X34706Y35178D01*
X34865Y35147D01*
Y35931D01*
D02*
G37*
G36*
X26630Y35431D02*
X26276D01*
Y35077D01*
X26630D01*
Y35431D01*
D02*
G37*
G36*
X26076D02*
X25721D01*
Y35077D01*
X26076D01*
Y35431D01*
D02*
G37*
G36*
X25630Y35986D02*
X24721D01*
Y35077D01*
X25630D01*
Y35986D01*
D02*
G37*
G36*
X24630D02*
X23721D01*
Y35077D01*
X24630D01*
Y35986D01*
D02*
G37*
G36*
X23630D02*
X22721D01*
Y35077D01*
X23630D01*
Y35986D01*
D02*
G37*
G36*
X22630D02*
X21721D01*
Y35077D01*
X22630D01*
Y35986D01*
D02*
G37*
G36*
X21630D02*
X20721D01*
Y35077D01*
X21630D01*
Y35986D01*
D02*
G37*
G36*
X20630D02*
X19721D01*
Y35077D01*
X20630D01*
Y35986D01*
D02*
G37*
G36*
X19630Y35431D02*
X19276D01*
Y35077D01*
X19630D01*
Y35431D01*
D02*
G37*
G36*
X19076D02*
X18721D01*
Y35077D01*
X19076D01*
Y35431D01*
D02*
G37*
G36*
X14630Y35986D02*
X13721D01*
Y35077D01*
X14630D01*
Y35986D01*
D02*
G37*
G36*
X13630D02*
X12721D01*
Y35077D01*
X13630D01*
Y35986D01*
D02*
G37*
G36*
X12630D02*
X11721D01*
Y35077D01*
X12630D01*
Y35986D01*
D02*
G37*
G36*
X11630Y35431D02*
X11276D01*
Y35077D01*
X11630D01*
Y35431D01*
D02*
G37*
G36*
X11076D02*
X10721D01*
Y35077D01*
X11076D01*
Y35431D01*
D02*
G37*
G36*
X10630Y35986D02*
X9721D01*
Y35077D01*
X10630D01*
Y35986D01*
D02*
G37*
G36*
X9630D02*
X8721D01*
Y35077D01*
X9630D01*
Y35986D01*
D02*
G37*
G36*
X8630D02*
X7721D01*
Y35077D01*
X8630D01*
Y35986D01*
D02*
G37*
G36*
X28190Y37017D02*
X27996D01*
X27806Y36979D01*
X27626Y36905D01*
X27465Y36797D01*
X27327Y36660D01*
X27219Y36498D01*
X27145Y36319D01*
X27107Y36129D01*
Y35934D01*
X27145Y35744D01*
X27219Y35565D01*
X27327Y35403D01*
X27465Y35266D01*
X27626Y35158D01*
X27806Y35084D01*
X27996Y35046D01*
X28190D01*
X28381Y35084D01*
X28560Y35158D01*
X28721Y35266D01*
X28859Y35403D01*
X28967Y35565D01*
X29041Y35744D01*
X29079Y35934D01*
Y36129D01*
X29041Y36319D01*
X28967Y36498D01*
X28859Y36660D01*
X28721Y36797D01*
X28560Y36905D01*
X28381Y36979D01*
X28190Y37017D01*
D02*
G37*
G36*
X71978Y35333D02*
X71387D01*
Y34743D01*
X71978D01*
Y35333D01*
D02*
G37*
G36*
X71187D02*
X70597D01*
Y34743D01*
X71187D01*
Y35333D01*
D02*
G37*
G36*
X69978Y36124D02*
X68597D01*
Y34743D01*
X69978D01*
Y36124D01*
D02*
G37*
G36*
X67978Y35333D02*
X67387D01*
Y34743D01*
X67978D01*
Y35333D01*
D02*
G37*
G36*
X67187D02*
X66597D01*
Y34743D01*
X67187D01*
Y35333D01*
D02*
G37*
G36*
X63978Y36124D02*
X62597D01*
Y34743D01*
X63978D01*
Y36124D01*
D02*
G37*
G36*
X61978Y35333D02*
X61387D01*
Y34743D01*
X61978D01*
Y35333D01*
D02*
G37*
G36*
X61187D02*
X60597D01*
Y34743D01*
X61187D01*
Y35333D01*
D02*
G37*
G36*
X55112Y36124D02*
X53731D01*
Y34743D01*
X55112D01*
Y36124D01*
D02*
G37*
G36*
X53112D02*
X51731D01*
Y34743D01*
X53112D01*
Y36124D01*
D02*
G37*
G36*
X51112D02*
X49731D01*
Y34743D01*
X51112D01*
Y36124D01*
D02*
G37*
G36*
X49112D02*
X47731D01*
Y34743D01*
X49112D01*
Y36124D01*
D02*
G37*
G36*
X47112D02*
X45731D01*
Y34743D01*
X47112D01*
Y36124D01*
D02*
G37*
G36*
X45112D02*
X43731D01*
Y34743D01*
X45112D01*
Y36124D01*
D02*
G37*
G36*
X43112Y35333D02*
X42521D01*
Y34743D01*
X43112D01*
Y35333D01*
D02*
G37*
G36*
X42321D02*
X41731D01*
Y34743D01*
X42321D01*
Y35333D01*
D02*
G37*
G36*
X41112D02*
X40521D01*
Y34743D01*
X41112D01*
Y35333D01*
D02*
G37*
G36*
X40321D02*
X39731D01*
Y34743D01*
X40321D01*
Y35333D01*
D02*
G37*
G36*
X18630Y35986D02*
X17721D01*
Y35077D01*
X17997D01*
Y34635D01*
X17761D01*
Y34081D01*
X18591D01*
Y34635D01*
X18354D01*
Y35077D01*
X18630D01*
Y35986D01*
D02*
G37*
G36*
X17630D02*
X16721D01*
Y35077D01*
X16997D01*
Y34635D01*
X16761D01*
Y34081D01*
X17591D01*
Y34635D01*
X17354D01*
Y35077D01*
X17630D01*
Y35986D01*
D02*
G37*
G36*
X16630D02*
X15721D01*
Y35077D01*
X15997D01*
Y34635D01*
X15761D01*
Y34081D01*
X16591D01*
Y34635D01*
X16354D01*
Y35077D01*
X16630D01*
Y35986D01*
D02*
G37*
G36*
X66773Y33513D02*
X66458D01*
Y33336D01*
X66773D01*
Y33513D01*
D02*
G37*
G36*
X66258D02*
X65943D01*
Y33336D01*
X66258D01*
Y33513D01*
D02*
G37*
G36*
X70773D02*
X70458D01*
Y33336D01*
X70773D01*
Y33513D01*
D02*
G37*
G36*
X68773D02*
X68458D01*
Y33336D01*
X68773D01*
Y33513D01*
D02*
G37*
G36*
X68258D02*
X67943D01*
Y33336D01*
X68258D01*
Y33513D01*
D02*
G37*
G36*
X70258D02*
X69943D01*
Y33336D01*
X70258D01*
Y33513D01*
D02*
G37*
G36*
X70773Y33136D02*
X70458D01*
Y32959D01*
X70773D01*
Y33136D01*
D02*
G37*
G36*
X70258D02*
X69943D01*
Y32959D01*
X70258D01*
Y33136D01*
D02*
G37*
G36*
X68773D02*
X68458D01*
Y32959D01*
X68773D01*
Y33136D01*
D02*
G37*
G36*
X68258D02*
X67943D01*
Y32959D01*
X68258D01*
Y33136D01*
D02*
G37*
G36*
X66773Y33136D02*
X66458D01*
Y32959D01*
X66773D01*
Y33136D01*
D02*
G37*
G36*
X66258D02*
X65943D01*
Y32959D01*
X66258D01*
Y33136D01*
D02*
G37*
G36*
X18591Y33494D02*
X17761D01*
Y32939D01*
X17997D01*
Y32742D01*
X18011Y32673D01*
X18050Y32615D01*
X18303Y32362D01*
X18303Y32362D01*
X18361Y32323D01*
X18363Y32323D01*
X18358Y32273D01*
X17912D01*
X17354Y32831D01*
Y32939D01*
X17591D01*
Y33494D01*
X16761D01*
Y32939D01*
X16997D01*
Y32757D01*
X17011Y32689D01*
X17050Y32631D01*
X17712Y31968D01*
X17770Y31930D01*
X17839Y31916D01*
X17839Y31916D01*
X18618D01*
X18634Y31894D01*
X18609Y31844D01*
X18580D01*
X18491Y31821D01*
X18411Y31775D01*
X18346Y31709D01*
X18325Y31673D01*
X17430D01*
X16354Y32749D01*
Y32939D01*
X16591D01*
Y33494D01*
X15761D01*
Y32939D01*
X15997D01*
Y32675D01*
X16011Y32606D01*
X16050Y32548D01*
X17230Y31368D01*
X17288Y31330D01*
X17356Y31316D01*
X18325D01*
X18346Y31280D01*
X18411Y31214D01*
X18491Y31168D01*
X18580Y31144D01*
X18672D01*
X18761Y31168D01*
X18841Y31214D01*
X18906Y31280D01*
X18942Y31343D01*
X18948Y31345D01*
X18993Y31344D01*
X18998Y31343D01*
X19034Y31279D01*
X19100Y31214D01*
X19179Y31168D01*
X19268Y31144D01*
X19361D01*
X19450Y31168D01*
X19529Y31214D01*
X19587Y31271D01*
X19605Y31278D01*
X19649Y31274D01*
X19699Y31224D01*
X19779Y31178D01*
X19868Y31154D01*
X19960D01*
X20049Y31178D01*
X20129Y31224D01*
X20194Y31289D01*
X20240Y31369D01*
X20264Y31458D01*
Y31550D01*
X20240Y31639D01*
X20194Y31719D01*
X20129Y31784D01*
X20049Y31830D01*
X19960Y31854D01*
X19868D01*
X19828Y31843D01*
X19056Y32614D01*
X18999Y32653D01*
X18930Y32667D01*
X18503D01*
X18354Y32815D01*
Y32939D01*
X18591D01*
Y33494D01*
D02*
G37*
G36*
X73057Y32979D02*
Y32194D01*
X73842D01*
X73810Y32353D01*
X73743Y32515D01*
X73646Y32660D01*
X73522Y32784D01*
X73377Y32881D01*
X73216Y32948D01*
X73057Y32979D01*
D02*
G37*
G36*
X55734Y32979D02*
Y32194D01*
X56519D01*
X56487Y32353D01*
X56420Y32515D01*
X56323Y32660D01*
X56200Y32784D01*
X56054Y32881D01*
X55893Y32948D01*
X55734Y32979D01*
D02*
G37*
G36*
X55534D02*
X55375Y32948D01*
X55214Y32881D01*
X55068Y32784D01*
X54945Y32660D01*
X54847Y32515D01*
X54781Y32353D01*
X54749Y32194D01*
X55534D01*
Y32979D01*
D02*
G37*
G36*
X72857Y32979D02*
X72698Y32948D01*
X72536Y32881D01*
X72391Y32784D01*
X72267Y32660D01*
X72170Y32515D01*
X72103Y32353D01*
X72072Y32194D01*
X72857D01*
Y32979D01*
D02*
G37*
G36*
X73842Y31994D02*
X73057D01*
Y31210D01*
X73216Y31241D01*
X73377Y31308D01*
X73522Y31405D01*
X73646Y31529D01*
X73743Y31674D01*
X73810Y31836D01*
X73842Y31994D01*
D02*
G37*
G36*
X56519D02*
X55734D01*
Y31210D01*
X55893Y31241D01*
X56054Y31308D01*
X56200Y31405D01*
X56323Y31529D01*
X56420Y31674D01*
X56487Y31836D01*
X56519Y31994D01*
D02*
G37*
G36*
X55534D02*
X54749D01*
X54781Y31836D01*
X54847Y31674D01*
X54945Y31529D01*
X55068Y31405D01*
X55214Y31308D01*
X55375Y31241D01*
X55534Y31210D01*
Y31994D01*
D02*
G37*
G36*
X72857D02*
X72072D01*
X72103Y31836D01*
X72170Y31674D01*
X72267Y31529D01*
X72391Y31405D01*
X72536Y31308D01*
X72698Y31241D01*
X72857Y31210D01*
Y31994D01*
D02*
G37*
G36*
X70773Y32372D02*
X69943D01*
Y31817D01*
X70180D01*
Y30978D01*
X70143Y30957D01*
X70078Y30892D01*
X70032Y30812D01*
X70008Y30723D01*
Y30631D01*
X70032Y30542D01*
X70078Y30462D01*
X70143Y30397D01*
X70223Y30351D01*
X70312Y30327D01*
X70404D01*
X70493Y30351D01*
X70573Y30397D01*
X70638Y30462D01*
X70684Y30542D01*
X70708Y30631D01*
Y30723D01*
X70684Y30812D01*
X70638Y30892D01*
X70573Y30957D01*
X70537Y30978D01*
Y31817D01*
X70773D01*
Y32372D01*
D02*
G37*
G36*
X68773D02*
X67943D01*
Y31817D01*
X68180D01*
Y30978D01*
X68143Y30957D01*
X68078Y30892D01*
X68032Y30812D01*
X68008Y30723D01*
Y30631D01*
X68032Y30542D01*
X68078Y30462D01*
X68143Y30397D01*
X68223Y30351D01*
X68312Y30327D01*
X68404D01*
X68493Y30351D01*
X68573Y30397D01*
X68638Y30462D01*
X68684Y30542D01*
X68708Y30631D01*
Y30723D01*
X68684Y30812D01*
X68638Y30892D01*
X68573Y30957D01*
X68537Y30978D01*
Y31817D01*
X68773D01*
Y32372D01*
D02*
G37*
G36*
X66773D02*
X65943D01*
Y31817D01*
X66184D01*
Y30978D01*
X66147Y30957D01*
X66082Y30892D01*
X66036Y30812D01*
X66012Y30723D01*
Y30631D01*
X66036Y30542D01*
X66082Y30462D01*
X66147Y30397D01*
X66227Y30351D01*
X66316Y30327D01*
X66408D01*
X66497Y30351D01*
X66577Y30397D01*
X66642Y30462D01*
X66688Y30542D01*
X66712Y30631D01*
Y30723D01*
X66688Y30812D01*
X66642Y30892D01*
X66577Y30957D01*
X66541Y30978D01*
Y31817D01*
X66773D01*
Y32372D01*
D02*
G37*
G36*
X5921Y30695D02*
X5555D01*
X5189D01*
Y30617D01*
X5301D01*
X5326Y30567D01*
X5302Y30536D01*
X5275Y30471D01*
X5266Y30401D01*
Y30245D01*
X5275Y30175D01*
X5302Y30110D01*
X5345Y30054D01*
X5401Y30011D01*
X5466Y29984D01*
X5536Y29974D01*
X5574D01*
X5644Y29984D01*
X5709Y30011D01*
X5765Y30054D01*
X5808Y30110D01*
X5835Y30175D01*
X5844Y30245D01*
Y30401D01*
X5835Y30471D01*
X5808Y30536D01*
X5785Y30567D01*
X5809Y30617D01*
X5921D01*
Y30695D01*
D02*
G37*
G36*
X4584Y32985D02*
X4401D01*
X4319Y32974D01*
X4242Y32942D01*
X4177Y32892D01*
X4127Y32826D01*
X4095Y32750D01*
X4084Y32668D01*
Y32387D01*
X4095Y32305D01*
X4127Y32229D01*
X4177Y32163D01*
X4199Y32146D01*
X4182Y32096D01*
X4087D01*
Y31306D01*
Y30518D01*
X4182D01*
X4199Y30468D01*
X4177Y30451D01*
X4127Y30386D01*
X4095Y30309D01*
X4084Y30227D01*
Y29946D01*
X4095Y29864D01*
X4127Y29788D01*
X4177Y29722D01*
X4242Y29672D01*
X4319Y29640D01*
X4401Y29630D01*
X4584D01*
X4666Y29640D01*
X4742Y29672D01*
X4807Y29722D01*
X4858Y29788D01*
X4889Y29864D01*
X4900Y29946D01*
Y30227D01*
X4889Y30309D01*
X4858Y30386D01*
X4807Y30451D01*
X4785Y30468D01*
X4802Y30518D01*
X4897D01*
Y31306D01*
Y32096D01*
X4802D01*
X4785Y32146D01*
X4807Y32163D01*
X4858Y32229D01*
X4889Y32305D01*
X4900Y32387D01*
Y32668D01*
X4889Y32750D01*
X4858Y32826D01*
X4807Y32892D01*
X4742Y32942D01*
X4666Y32974D01*
X4584Y32985D01*
D02*
G37*
G36*
X71978Y28848D02*
X71387D01*
Y28257D01*
X71978D01*
Y28848D01*
D02*
G37*
G36*
X71187D02*
X70597D01*
Y28257D01*
X71187D01*
Y28848D01*
D02*
G37*
G36*
X69978D02*
X69387D01*
Y28257D01*
X69978D01*
Y28848D01*
D02*
G37*
G36*
X69187D02*
X68597D01*
Y28257D01*
X69187D01*
Y28848D01*
D02*
G37*
G36*
X59187D02*
X58597D01*
Y28257D01*
X59187D01*
Y28848D01*
D02*
G37*
G36*
X49112D02*
X48521D01*
Y28257D01*
X49112D01*
Y28848D01*
D02*
G37*
G36*
X48321D02*
X47731D01*
Y28257D01*
X48321D01*
Y28848D01*
D02*
G37*
G36*
X45112D02*
X44521D01*
Y28257D01*
X45112D01*
Y28848D01*
D02*
G37*
G36*
X44321D02*
X43731D01*
Y28257D01*
X44321D01*
Y28848D01*
D02*
G37*
G36*
X71978Y28057D02*
X71387D01*
Y27467D01*
X71978D01*
Y28057D01*
D02*
G37*
G36*
X71187D02*
X70597D01*
Y27467D01*
X71187D01*
Y28057D01*
D02*
G37*
G36*
X69978D02*
X69387D01*
Y27467D01*
X69978D01*
Y28057D01*
D02*
G37*
G36*
X69187D02*
X68597D01*
Y27467D01*
X69187D01*
Y28057D01*
D02*
G37*
G36*
X67978Y28848D02*
X66597D01*
Y27467D01*
X67978D01*
Y28848D01*
D02*
G37*
G36*
X65978D02*
X64597D01*
Y27467D01*
X65978D01*
Y28848D01*
D02*
G37*
G36*
X63978D02*
X62597D01*
Y27467D01*
X63978D01*
Y28848D01*
D02*
G37*
G36*
X59187Y28057D02*
X58597D01*
Y27467D01*
X59187D01*
Y28057D01*
D02*
G37*
G36*
X55112Y28848D02*
X53731D01*
Y27467D01*
X55112D01*
Y28848D01*
D02*
G37*
G36*
X53112D02*
X51731D01*
Y27467D01*
X53112D01*
Y28848D01*
D02*
G37*
G36*
X51112D02*
X49731D01*
Y27467D01*
X51112D01*
Y28848D01*
D02*
G37*
G36*
X49112Y28057D02*
X48521D01*
Y27467D01*
X49112D01*
Y28057D01*
D02*
G37*
G36*
X48321D02*
X47731D01*
Y27467D01*
X48321D01*
Y28057D01*
D02*
G37*
G36*
X45112D02*
X44521D01*
Y27467D01*
X45112D01*
Y28057D01*
D02*
G37*
G36*
X44321D02*
X43731D01*
Y27467D01*
X44321D01*
Y28057D01*
D02*
G37*
G36*
X43112Y28848D02*
X41731D01*
Y27467D01*
X43112D01*
Y28848D01*
D02*
G37*
G36*
X41112D02*
X39731D01*
Y27467D01*
X41112D01*
Y28848D01*
D02*
G37*
G36*
X35065Y27861D02*
Y27076D01*
X35849D01*
X35818Y27235D01*
X35751Y27397D01*
X35654Y27542D01*
X35530Y27666D01*
X35385Y27763D01*
X35223Y27830D01*
X35065Y27861D01*
D02*
G37*
G36*
X14592D02*
Y27076D01*
X15377D01*
X15345Y27235D01*
X15279Y27397D01*
X15181Y27542D01*
X15058Y27666D01*
X14912Y27763D01*
X14751Y27830D01*
X14592Y27861D01*
D02*
G37*
G36*
X34865D02*
X34706Y27830D01*
X34544Y27763D01*
X34399Y27666D01*
X34275Y27542D01*
X34178Y27397D01*
X34111Y27235D01*
X34080Y27076D01*
X34865D01*
Y27861D01*
D02*
G37*
G36*
X14392D02*
X14233Y27830D01*
X14072Y27763D01*
X13926Y27666D01*
X13803Y27542D01*
X13706Y27397D01*
X13639Y27235D01*
X13607Y27076D01*
X14392D01*
Y27861D01*
D02*
G37*
G36*
X65978Y36124D02*
X64597D01*
Y35017D01*
X64592Y34993D01*
Y34819D01*
X60052Y30279D01*
X59997Y30196D01*
X59977Y30098D01*
Y28848D01*
X59387D01*
Y28157D01*
Y27467D01*
X59977D01*
Y27208D01*
X59607Y26838D01*
X46676D01*
Y27467D01*
X47112D01*
Y28848D01*
X45731D01*
Y27467D01*
X46166D01*
Y26838D01*
X39598D01*
X36523Y29913D01*
X36440Y29968D01*
X36343Y29987D01*
X12531D01*
X11204Y31314D01*
Y33513D01*
X14098D01*
X14196Y33532D01*
X14279Y33587D01*
X15356Y34665D01*
X15411Y34747D01*
X15431Y34845D01*
Y35077D01*
X15630D01*
Y35986D01*
X14721D01*
Y35077D01*
X14921D01*
Y34951D01*
X13993Y34023D01*
X8200D01*
X7431Y34792D01*
Y35077D01*
X7630D01*
Y35986D01*
X6721D01*
Y35077D01*
X6921D01*
Y34686D01*
X6940Y34589D01*
X6995Y34506D01*
X7914Y33587D01*
X7997Y33532D01*
X8094Y33513D01*
X10694D01*
Y31209D01*
X10713Y31111D01*
X10769Y31028D01*
X12245Y29552D01*
X12328Y29497D01*
X12425Y29477D01*
X36237D01*
X39312Y26402D01*
X39395Y26347D01*
X39492Y26328D01*
X59713D01*
X59810Y26347D01*
X59893Y26402D01*
X60413Y26922D01*
X60468Y27005D01*
X60487Y27102D01*
Y27903D01*
X60597D01*
Y27467D01*
X61978D01*
Y28848D01*
X60597D01*
Y28412D01*
X60487D01*
Y29993D01*
X65027Y34533D01*
X65082Y34615D01*
X65102Y34713D01*
Y34743D01*
X65978D01*
Y36124D01*
D02*
G37*
G36*
X15377Y26876D02*
X14592D01*
Y26091D01*
X14751Y26123D01*
X14912Y26190D01*
X15058Y26287D01*
X15181Y26411D01*
X15279Y26556D01*
X15345Y26718D01*
X15377Y26876D01*
D02*
G37*
G36*
X35849D02*
X35065D01*
Y26091D01*
X35223Y26123D01*
X35385Y26190D01*
X35530Y26287D01*
X35654Y26411D01*
X35751Y26556D01*
X35818Y26718D01*
X35849Y26876D01*
D02*
G37*
G36*
X14392D02*
X13607D01*
X13639Y26718D01*
X13706Y26556D01*
X13803Y26411D01*
X13926Y26287D01*
X14072Y26190D01*
X14233Y26123D01*
X14392Y26091D01*
Y26876D01*
D02*
G37*
G36*
X34865D02*
X34080D01*
X34111Y26718D01*
X34178Y26556D01*
X34275Y26411D01*
X34399Y26287D01*
X34544Y26190D01*
X34706Y26123D01*
X34865Y26091D01*
Y26876D01*
D02*
G37*
G36*
X28190Y27962D02*
X27996D01*
X27806Y27924D01*
X27626Y27850D01*
X27465Y27742D01*
X27327Y27605D01*
X27219Y27443D01*
X27145Y27264D01*
X27107Y27073D01*
Y26879D01*
X27145Y26689D01*
X27219Y26509D01*
X27327Y26348D01*
X27465Y26211D01*
X27626Y26103D01*
X27806Y26028D01*
X27996Y25991D01*
X28190D01*
X28381Y26028D01*
X28560Y26103D01*
X28721Y26211D01*
X28859Y26348D01*
X28967Y26509D01*
X29041Y26689D01*
X29079Y26879D01*
Y27073D01*
X29041Y27264D01*
X28967Y27443D01*
X28859Y27605D01*
X28721Y27742D01*
X28560Y27850D01*
X28381Y27924D01*
X28190Y27962D01*
D02*
G37*
G36*
X5356D02*
X5161D01*
X4971Y27924D01*
X4791Y27850D01*
X4630Y27742D01*
X4493Y27605D01*
X4385Y27443D01*
X4310Y27264D01*
X4273Y27073D01*
Y26879D01*
X4310Y26689D01*
X4385Y26509D01*
X4493Y26348D01*
X4630Y26211D01*
X4791Y26103D01*
X4971Y26028D01*
X5161Y25991D01*
X5356D01*
X5546Y26028D01*
X5725Y26103D01*
X5887Y26211D01*
X6024Y26348D01*
X6132Y26509D01*
X6206Y26689D01*
X6244Y26879D01*
Y27073D01*
X6206Y27264D01*
X6132Y27443D01*
X6024Y27605D01*
X5887Y27742D01*
X5725Y27850D01*
X5546Y27924D01*
X5356Y27962D01*
D02*
G37*
%LPD*%
D12*
X4492Y30913D02*
D03*
Y31701D02*
D03*
D13*
X5555Y30795D02*
D03*
Y31051D02*
D03*
Y31307D02*
D03*
Y31563D02*
D03*
Y31819D02*
D03*
D14*
X16176Y33217D02*
D03*
Y34358D02*
D03*
X70358Y32094D02*
D03*
Y33236D02*
D03*
X66358D02*
D03*
Y32094D02*
D03*
X68358D02*
D03*
Y33236D02*
D03*
X12894Y40846D02*
D03*
Y41988D02*
D03*
X20386Y40846D02*
D03*
Y41988D02*
D03*
X27879Y40846D02*
D03*
Y41988D02*
D03*
X35372Y40846D02*
D03*
Y41988D02*
D03*
X42864Y40846D02*
D03*
Y41988D02*
D03*
X50357Y40846D02*
D03*
Y41988D02*
D03*
X57849Y40846D02*
D03*
Y41988D02*
D03*
X65342Y40846D02*
D03*
Y41988D02*
D03*
X72835Y40846D02*
D03*
Y41988D02*
D03*
X18176Y33217D02*
D03*
Y34358D02*
D03*
X17176Y33217D02*
D03*
Y34358D02*
D03*
D15*
X69724Y39173D02*
D03*
X68583D02*
D03*
X9724D02*
D03*
X8583D02*
D03*
X17224D02*
D03*
X16083D02*
D03*
X24724D02*
D03*
X23583D02*
D03*
X32224D02*
D03*
X31083D02*
D03*
X39724D02*
D03*
X38583D02*
D03*
X47224D02*
D03*
X46083D02*
D03*
X54724D02*
D03*
X53583D02*
D03*
X62224D02*
D03*
X61083D02*
D03*
D30*
X7176Y34686D02*
X8094Y33768D01*
X7176Y34686D02*
Y35578D01*
X55732Y34555D02*
X57406Y32882D01*
X55732Y34555D02*
Y36228D01*
X60232Y30098D02*
X64847Y34713D01*
Y34993D02*
X65287Y35433D01*
X64847Y34713D02*
Y34993D01*
X7110Y37235D02*
X7186Y37311D01*
X10949Y31209D02*
Y33768D01*
Y31209D02*
X12425Y29732D01*
X36343D01*
X8094Y33768D02*
X10949D01*
X14098D01*
X36343Y29732D02*
X39492Y26583D01*
X14098Y33768D02*
X15176Y34845D01*
X46480Y26583D02*
X59713D01*
X39492D02*
X46480D01*
X46421Y26642D02*
Y28157D01*
Y26642D02*
X46480Y26583D01*
X60232Y28059D02*
Y30098D01*
Y27102D02*
Y28059D01*
X60331Y28157D01*
X61287D01*
X59713Y26583D02*
X60232Y27102D01*
X15176Y34845D02*
Y35578D01*
X60970Y32882D02*
X61058Y32970D01*
X57406Y32882D02*
X60970D01*
X61146Y32016D02*
Y33575D01*
X59287Y35433D02*
X61146Y33575D01*
X57287Y28157D02*
X61146Y32016D01*
X8094Y36660D02*
X8176Y36578D01*
X8193Y37411D02*
X54550D01*
X7286D02*
X8193D01*
X8176Y36578D02*
Y37394D01*
X8193Y37411D01*
X7110Y36644D02*
Y37235D01*
Y36644D02*
X7176Y36578D01*
X54550Y37411D02*
X55732Y36228D01*
X61083Y38492D02*
X67902D01*
X68418Y39008D01*
X57287Y38492D02*
X61083D01*
X53583D02*
X57287D01*
X57287D02*
X57287Y38492D01*
Y35433D02*
Y38492D01*
X61083Y38492D02*
Y39173D01*
X38583Y38492D02*
X53583D01*
Y39173D01*
X38583Y38492D02*
Y39173D01*
X31083Y38492D02*
X38583D01*
X8583Y39035D02*
X9126Y38492D01*
X16083D01*
Y39173D01*
Y38492D02*
X23583D01*
Y39173D01*
X31083Y38492D02*
Y39173D01*
X23583Y38492D02*
X31083D01*
X49622Y39173D02*
X50357Y39908D01*
Y40846D01*
X47224Y39173D02*
X49622D01*
X68583Y39035D02*
Y39173D01*
X68556Y39008D02*
X68583Y39035D01*
X68418Y39008D02*
X68556D01*
X8583Y39035D02*
Y39173D01*
X12024D02*
X12894Y40043D01*
Y40846D01*
X9724Y39173D02*
X12024D01*
X62224D02*
X64780D01*
X65342Y39736D01*
X72161Y39173D02*
X72835Y39846D01*
Y40846D01*
X69724Y39173D02*
X72161D01*
X65342Y39736D02*
Y40846D01*
X57102Y39173D02*
X57849Y39920D01*
Y40846D01*
X54724Y39173D02*
X57102D01*
X42339D02*
X42864Y39699D01*
Y40846D01*
X39724Y39173D02*
X42339D01*
X34465D02*
X35372Y40080D01*
Y40846D01*
X32224Y39173D02*
X34465D01*
X19602D02*
X20386Y39957D01*
Y40846D01*
X17224Y39173D02*
X19602D01*
X26787D02*
X27879Y40265D01*
Y40846D01*
X24724Y39173D02*
X26787D01*
D31*
X66358Y32094D02*
X66362Y32091D01*
Y30677D02*
Y32091D01*
X18176Y34358D02*
Y35531D01*
X17176Y34358D02*
Y35531D01*
X16176Y34358D02*
Y35531D01*
Y32675D02*
X17356Y31494D01*
X18626D01*
X17176Y32757D02*
X17839Y32094D01*
X18714D01*
X19314Y31494D01*
X18930Y32488D02*
X19914Y31504D01*
X18429Y32488D02*
X18930D01*
X18176Y32742D02*
X18429Y32488D01*
X18176Y32742D02*
Y33217D01*
X17176Y32757D02*
Y33217D01*
X16176Y32675D02*
Y33217D01*
X70358Y30677D02*
Y32094D01*
X68358Y30677D02*
Y32094D01*
X6421Y32193D02*
Y37114D01*
X6718Y37411D01*
X7286D01*
X6047Y31819D02*
X6421Y32193D01*
X7186Y37311D02*
X7286Y37411D01*
X5555Y31819D02*
X6047D01*
D32*
X20223Y37864D02*
X26555D01*
X26602Y37911D01*
X20176D02*
X20223Y37864D01*
D33*
X4492Y30087D02*
D03*
Y32528D02*
D03*
D34*
X5555Y30323D02*
D03*
Y32291D02*
D03*
D35*
X40421Y35433D02*
D03*
X54421D02*
D03*
X52421D02*
D03*
X44421D02*
D03*
X42421D02*
D03*
X50421D02*
D03*
X46421D02*
D03*
X48421D02*
D03*
X57287D02*
D03*
X59287D02*
D03*
X61287D02*
D03*
X67287D02*
D03*
X69287D02*
D03*
X65287D02*
D03*
X71287D02*
D03*
X63287D02*
D03*
X40421Y28157D02*
D03*
X54421D02*
D03*
X52421D02*
D03*
X44421D02*
D03*
X42421D02*
D03*
X50421D02*
D03*
X46421D02*
D03*
X48421D02*
D03*
X57287D02*
D03*
X59287D02*
D03*
X61287D02*
D03*
X67287D02*
D03*
X69287D02*
D03*
X65287D02*
D03*
X71287D02*
D03*
X63287D02*
D03*
D36*
X67654Y42142D02*
D03*
X70154Y43142D02*
D03*
X7654Y42142D02*
D03*
X10154Y43142D02*
D03*
X15154Y42142D02*
D03*
X17654Y43142D02*
D03*
X22654Y42142D02*
D03*
X25154Y43142D02*
D03*
X30154Y42142D02*
D03*
X32654Y43142D02*
D03*
X37654Y42126D02*
D03*
X40154Y43126D02*
D03*
X45154Y42142D02*
D03*
X47654Y43142D02*
D03*
X52654Y42126D02*
D03*
X55154Y43126D02*
D03*
X60154Y42142D02*
D03*
X62654Y43142D02*
D03*
D37*
X69154Y41142D02*
D03*
X9154D02*
D03*
X16654D02*
D03*
X24154D02*
D03*
X31654D02*
D03*
X39154Y41126D02*
D03*
X46654Y41142D02*
D03*
X54154Y41126D02*
D03*
X61654Y41142D02*
D03*
D38*
X22176Y36532D02*
D03*
X23176D02*
D03*
X21176D02*
D03*
X25176D02*
D03*
X26176D02*
D03*
X24176D02*
D03*
X17176D02*
D03*
X18176D02*
D03*
X16176D02*
D03*
X19176D02*
D03*
X20176D02*
D03*
X16176Y35531D02*
D03*
X23176D02*
D03*
X22176D02*
D03*
X25176D02*
D03*
X26176D02*
D03*
X24176D02*
D03*
X18176D02*
D03*
X19176D02*
D03*
X17176D02*
D03*
X21176D02*
D03*
X20176D02*
D03*
X11176Y36532D02*
D03*
X12176D02*
D03*
X14176D02*
D03*
X15176D02*
D03*
X13176D02*
D03*
X8176D02*
D03*
X9176D02*
D03*
X10176D02*
D03*
X7176Y35531D02*
D03*
X12176D02*
D03*
X13176D02*
D03*
X14176D02*
D03*
X15176D02*
D03*
X8176D02*
D03*
X9176D02*
D03*
X11176D02*
D03*
X10176D02*
D03*
D39*
X7176Y36532D02*
D03*
D40*
X28093Y26976D02*
D03*
X5258D02*
D03*
Y36031D02*
D03*
X28093D02*
D03*
D41*
X55634Y32094D02*
D03*
X14492Y26976D02*
D03*
X24728Y45874D02*
D03*
X53665D02*
D03*
D03*
X72957D02*
D03*
X72957Y32094D02*
D03*
X5437Y45874D02*
D03*
X34965Y26976D02*
D03*
Y36031D02*
D03*
D42*
X68358Y30677D02*
D03*
X19314Y31494D02*
D03*
X18626Y31494D02*
D03*
X19914Y31504D02*
D03*
X70358Y30677D02*
D03*
X66362D02*
D03*
X26602Y37911D02*
D03*
X20176D02*
D03*
M02*
