G04*
G04 #@! TF.GenerationSoftware,Altium Limited,Altium Designer,22.7.1 (60)*
G04*
G04 Layer_Physical_Order=2*
G04 Layer_Color=16711680*
%FSLAX44Y44*%
%MOMM*%
G71*
G04*
G04 #@! TF.SameCoordinates,DB13E346-2415-4756-B0CF-76E855EA8E03*
G04*
G04*
G04 #@! TF.FilePolarity,Positive*
G04*
G01*
G75*
%ADD31C,0.7620*%
%ADD32C,0.3048*%
G04:AMPARAMS|DCode=33|XSize=1.55mm|YSize=1.8mm|CornerRadius=0.5425mm|HoleSize=0mm|Usage=FLASHONLY|Rotation=0.000|XOffset=0mm|YOffset=0mm|HoleType=Round|Shape=RoundedRectangle|*
%AMROUNDEDRECTD33*
21,1,1.5500,0.7150,0,0,0.0*
21,1,0.4650,1.8000,0,0,0.0*
1,1,1.0850,0.2325,-0.3575*
1,1,1.0850,-0.2325,-0.3575*
1,1,1.0850,-0.2325,0.3575*
1,1,1.0850,0.2325,0.3575*
%
%ADD33ROUNDEDRECTD33*%
G04:AMPARAMS|DCode=34|XSize=1.25mm|YSize=0.95mm|CornerRadius=0.4275mm|HoleSize=0mm|Usage=FLASHONLY|Rotation=270.000|XOffset=0mm|YOffset=0mm|HoleType=Round|Shape=RoundedRectangle|*
%AMROUNDEDRECTD34*
21,1,1.2500,0.0950,0,0,270.0*
21,1,0.3950,0.9500,0,0,270.0*
1,1,0.8550,-0.0475,-0.1975*
1,1,0.8550,-0.0475,0.1975*
1,1,0.8550,0.0475,0.1975*
1,1,0.8550,0.0475,-0.1975*
%
%ADD34ROUNDEDRECTD34*%
%ADD35R,3.0000X3.0000*%
%ADD36R,2.5000X2.5000*%
%ADD37C,4.3000*%
%ADD38R,1.8000X1.8000*%
%ADD39R,1.8000X1.8000*%
%ADD40C,4.5000*%
%ADD41C,4.0000*%
%ADD42C,1.2700*%
%ADD43C,0.5080*%
G36*
X1520000Y-35000D02*
X-270000D01*
Y510000D01*
X1520000D01*
Y-35000D01*
D02*
G37*
%LPC*%
G36*
X262540Y502476D02*
Y482540D01*
X282476D01*
X281674Y486575D01*
X279975Y490677D01*
X277508Y494368D01*
X274368Y497508D01*
X270677Y499975D01*
X266575Y501674D01*
X262540Y502476D01*
D02*
G37*
G36*
X-227460D02*
Y482540D01*
X-207524D01*
X-208326Y486575D01*
X-210025Y490677D01*
X-212492Y494368D01*
X-215632Y497508D01*
X-219323Y499975D01*
X-223425Y501674D01*
X-227460Y502476D01*
D02*
G37*
G36*
X997540Y502476D02*
Y482540D01*
X1017476D01*
X1016674Y486575D01*
X1014975Y490677D01*
X1012508Y494368D01*
X1009368Y497508D01*
X1005677Y499975D01*
X1001575Y501674D01*
X997540Y502476D01*
D02*
G37*
G36*
X1487540Y502476D02*
Y482540D01*
X1507476D01*
X1506674Y486575D01*
X1504975Y490677D01*
X1502508Y494368D01*
X1499368Y497508D01*
X1495677Y499975D01*
X1491575Y501674D01*
X1487540Y502476D01*
D02*
G37*
G36*
X1482460Y502476D02*
X1478425Y501674D01*
X1474323Y499975D01*
X1470632Y497508D01*
X1467492Y494368D01*
X1465025Y490677D01*
X1463326Y486575D01*
X1462524Y482540D01*
X1482460D01*
Y502476D01*
D02*
G37*
G36*
X992460Y502476D02*
X988425Y501674D01*
X984323Y499975D01*
X980632Y497508D01*
X977492Y494368D01*
X975025Y490677D01*
X973326Y486575D01*
X972524Y482540D01*
X992460D01*
Y502476D01*
D02*
G37*
G36*
X-232540Y502476D02*
X-236575Y501674D01*
X-240677Y499975D01*
X-244368Y497508D01*
X-247508Y494368D01*
X-249975Y490677D01*
X-251674Y486575D01*
X-252476Y482540D01*
X-232540D01*
Y502476D01*
D02*
G37*
G36*
X257460D02*
X253425Y501674D01*
X249323Y499975D01*
X245632Y497508D01*
X242492Y494368D01*
X240025Y490677D01*
X238326Y486575D01*
X237524Y482540D01*
X257460D01*
Y502476D01*
D02*
G37*
G36*
X1482460Y477460D02*
X1462524D01*
X1463326Y473425D01*
X1465025Y469323D01*
X1467492Y465632D01*
X1470632Y462492D01*
X1474323Y460025D01*
X1478425Y458326D01*
X1482460Y457524D01*
Y477460D01*
D02*
G37*
G36*
X992460D02*
X972524D01*
X973326Y473425D01*
X975025Y469323D01*
X977492Y465632D01*
X980632Y462492D01*
X984323Y460025D01*
X988425Y458326D01*
X992460Y457524D01*
Y477460D01*
D02*
G37*
G36*
X282476D02*
X262540D01*
Y457524D01*
X266575Y458326D01*
X270677Y460025D01*
X274368Y462492D01*
X277508Y465632D01*
X279975Y469323D01*
X281674Y473425D01*
X282476Y477460D01*
D02*
G37*
G36*
X-207524D02*
X-227460D01*
Y457524D01*
X-223425Y458326D01*
X-219323Y460025D01*
X-215632Y462492D01*
X-212492Y465632D01*
X-210025Y469323D01*
X-208326Y473425D01*
X-207524Y477460D01*
D02*
G37*
G36*
X-232540D02*
X-252476D01*
X-251674Y473425D01*
X-249975Y469323D01*
X-247508Y465632D01*
X-244368Y462492D01*
X-240677Y460025D01*
X-236575Y458326D01*
X-232540Y457524D01*
Y477460D01*
D02*
G37*
G36*
X257460D02*
X237524D01*
X238326Y473425D01*
X240025Y469323D01*
X242492Y465632D01*
X245632Y462492D01*
X249323Y460025D01*
X253425Y458326D01*
X257460Y457524D01*
Y477460D01*
D02*
G37*
G36*
X1017476D02*
X997540D01*
Y457524D01*
X1001575Y458326D01*
X1005677Y460025D01*
X1009368Y462492D01*
X1012508Y465632D01*
X1014975Y469323D01*
X1016674Y473425D01*
X1017476Y477460D01*
D02*
G37*
G36*
X1507476D02*
X1487540D01*
Y457524D01*
X1491575Y458326D01*
X1495677Y460025D01*
X1499368Y462492D01*
X1502508Y465632D01*
X1504975Y469323D01*
X1506674Y473425D01*
X1507476Y477460D01*
D02*
G37*
G36*
X1428840Y425640D02*
X1416340D01*
Y413140D01*
X1428840D01*
Y425640D01*
D02*
G37*
G36*
X1411260D02*
X1398760D01*
Y413140D01*
X1411260D01*
Y425640D01*
D02*
G37*
G36*
X1238340D02*
X1225840D01*
Y413140D01*
X1238340D01*
Y425640D01*
D02*
G37*
G36*
X1220760D02*
X1208260D01*
Y413140D01*
X1220760D01*
Y425640D01*
D02*
G37*
G36*
X857340D02*
X844840D01*
Y413140D01*
X857340D01*
Y425640D01*
D02*
G37*
G36*
X839760D02*
X827260D01*
Y413140D01*
X839760D01*
Y425640D01*
D02*
G37*
G36*
X476340D02*
X463840D01*
Y413140D01*
X476340D01*
Y425640D01*
D02*
G37*
G36*
X458760D02*
X446260D01*
Y413140D01*
X458760D01*
Y425640D01*
D02*
G37*
G36*
X285840D02*
X273340D01*
Y413140D01*
X285840D01*
Y425640D01*
D02*
G37*
G36*
X268260D02*
X255760D01*
Y413140D01*
X268260D01*
Y425640D01*
D02*
G37*
G36*
X95340D02*
X82840D01*
Y413140D01*
X95340D01*
Y425640D01*
D02*
G37*
G36*
X77760D02*
X65260D01*
Y413140D01*
X77760D01*
Y425640D01*
D02*
G37*
G36*
X-95160D02*
X-107660D01*
Y413140D01*
X-95160D01*
Y425640D01*
D02*
G37*
G36*
X-112740D02*
X-125240D01*
Y413140D01*
X-112740D01*
Y425640D01*
D02*
G37*
G36*
X1047840Y425240D02*
X1035340D01*
Y412740D01*
X1047840D01*
Y425240D01*
D02*
G37*
G36*
X1030260D02*
X1017760D01*
Y412740D01*
X1030260D01*
Y425240D01*
D02*
G37*
G36*
X666840D02*
X654340D01*
Y412740D01*
X666840D01*
Y425240D01*
D02*
G37*
G36*
X649260D02*
X636760D01*
Y412740D01*
X649260D01*
Y425240D01*
D02*
G37*
G36*
X1428840Y408060D02*
X1416340D01*
Y395560D01*
X1428840D01*
Y408060D01*
D02*
G37*
G36*
X1411260D02*
X1398760D01*
Y395560D01*
X1411260D01*
Y408060D01*
D02*
G37*
G36*
X1238340D02*
X1225840D01*
Y395560D01*
X1238340D01*
Y408060D01*
D02*
G37*
G36*
X1220760D02*
X1208260D01*
Y395560D01*
X1220760D01*
Y408060D01*
D02*
G37*
G36*
X857340D02*
X844840D01*
Y395560D01*
X857340D01*
Y408060D01*
D02*
G37*
G36*
X839760D02*
X827260D01*
Y395560D01*
X839760D01*
Y408060D01*
D02*
G37*
G36*
X476340D02*
X463840D01*
Y395560D01*
X476340D01*
Y408060D01*
D02*
G37*
G36*
X458760D02*
X446260D01*
Y395560D01*
X458760D01*
Y408060D01*
D02*
G37*
G36*
X285840D02*
X273340D01*
Y395560D01*
X285840D01*
Y408060D01*
D02*
G37*
G36*
X268260D02*
X255760D01*
Y395560D01*
X268260D01*
Y408060D01*
D02*
G37*
G36*
X95340D02*
X82840D01*
Y395560D01*
X95340D01*
Y408060D01*
D02*
G37*
G36*
X77760D02*
X65260D01*
Y395560D01*
X77760D01*
Y408060D01*
D02*
G37*
G36*
X-95160D02*
X-107660D01*
Y395560D01*
X-95160D01*
Y408060D01*
D02*
G37*
G36*
X-112740D02*
X-125240D01*
Y395560D01*
X-112740D01*
Y408060D01*
D02*
G37*
G36*
X1047840Y407660D02*
X1035340D01*
Y395160D01*
X1047840D01*
Y407660D01*
D02*
G37*
G36*
X1030260D02*
X1017760D01*
Y395160D01*
X1030260D01*
Y407660D01*
D02*
G37*
G36*
X666840D02*
X654340D01*
Y395160D01*
X666840D01*
Y407660D01*
D02*
G37*
G36*
X649260D02*
X636760D01*
Y395160D01*
X649260D01*
Y407660D01*
D02*
G37*
G36*
X1390940Y383806D02*
Y362340D01*
X1412406D01*
X1411516Y366812D01*
X1409704Y371187D01*
X1407073Y375125D01*
X1403725Y378473D01*
X1399787Y381104D01*
X1395412Y382916D01*
X1390940Y383806D01*
D02*
G37*
G36*
X1385860D02*
X1381388Y382916D01*
X1377013Y381104D01*
X1373075Y378473D01*
X1369727Y375125D01*
X1367096Y371187D01*
X1365284Y366812D01*
X1364394Y362340D01*
X1385860D01*
Y383806D01*
D02*
G37*
G36*
X1200440D02*
Y362340D01*
X1221906D01*
X1221016Y366812D01*
X1219204Y371187D01*
X1216573Y375125D01*
X1213224Y378473D01*
X1209287Y381104D01*
X1204912Y382916D01*
X1200440Y383806D01*
D02*
G37*
G36*
X1195360D02*
X1190888Y382916D01*
X1186513Y381104D01*
X1182575Y378473D01*
X1179227Y375125D01*
X1176596Y371187D01*
X1174784Y366812D01*
X1173894Y362340D01*
X1195360D01*
Y383806D01*
D02*
G37*
G36*
X819440D02*
Y362340D01*
X840906D01*
X840016Y366812D01*
X838204Y371187D01*
X835573Y375125D01*
X832225Y378473D01*
X828287Y381104D01*
X823912Y382916D01*
X819440Y383806D01*
D02*
G37*
G36*
X814360D02*
X809888Y382916D01*
X805513Y381104D01*
X801575Y378473D01*
X798227Y375125D01*
X795596Y371187D01*
X793784Y366812D01*
X792894Y362340D01*
X814360D01*
Y383806D01*
D02*
G37*
G36*
X438440D02*
Y362340D01*
X459906D01*
X459016Y366812D01*
X457204Y371187D01*
X454573Y375125D01*
X451225Y378473D01*
X447287Y381104D01*
X442912Y382916D01*
X438440Y383806D01*
D02*
G37*
G36*
X433360D02*
X428888Y382916D01*
X424513Y381104D01*
X420575Y378473D01*
X417227Y375125D01*
X414596Y371187D01*
X412784Y366812D01*
X411894Y362340D01*
X433360D01*
Y383806D01*
D02*
G37*
G36*
X247940D02*
Y362340D01*
X269406D01*
X268516Y366812D01*
X266704Y371187D01*
X264073Y375125D01*
X260725Y378473D01*
X256787Y381104D01*
X252412Y382916D01*
X247940Y383806D01*
D02*
G37*
G36*
X242860D02*
X238388Y382916D01*
X234013Y381104D01*
X230075Y378473D01*
X226727Y375125D01*
X224096Y371187D01*
X222284Y366812D01*
X221394Y362340D01*
X242860D01*
Y383806D01*
D02*
G37*
G36*
X57440D02*
Y362340D01*
X78906D01*
X78016Y366812D01*
X76204Y371187D01*
X73573Y375125D01*
X70224Y378473D01*
X66287Y381104D01*
X61912Y382916D01*
X57440Y383806D01*
D02*
G37*
G36*
X52360D02*
X47888Y382916D01*
X43513Y381104D01*
X39575Y378473D01*
X36227Y375125D01*
X33596Y371187D01*
X31784Y366812D01*
X30894Y362340D01*
X52360D01*
Y383806D01*
D02*
G37*
G36*
X-133060D02*
Y362340D01*
X-111594D01*
X-112484Y366812D01*
X-114296Y371187D01*
X-116927Y375125D01*
X-120275Y378473D01*
X-124213Y381104D01*
X-128588Y382916D01*
X-133060Y383806D01*
D02*
G37*
G36*
X-138140D02*
X-142612Y382916D01*
X-146987Y381104D01*
X-150925Y378473D01*
X-154273Y375125D01*
X-156904Y371187D01*
X-158716Y366812D01*
X-159606Y362340D01*
X-138140D01*
Y383806D01*
D02*
G37*
G36*
X1009940Y383406D02*
Y361940D01*
X1031406D01*
X1030516Y366412D01*
X1028704Y370787D01*
X1026073Y374725D01*
X1022725Y378073D01*
X1018787Y380704D01*
X1014412Y382516D01*
X1009940Y383406D01*
D02*
G37*
G36*
X1004860D02*
X1000388Y382516D01*
X996013Y380704D01*
X992075Y378073D01*
X988727Y374725D01*
X986096Y370787D01*
X984284Y366412D01*
X983394Y361940D01*
X1004860D01*
Y383406D01*
D02*
G37*
G36*
X628940D02*
Y361940D01*
X650406D01*
X649516Y366412D01*
X647704Y370787D01*
X645073Y374725D01*
X641724Y378073D01*
X637787Y380704D01*
X633412Y382516D01*
X628940Y383406D01*
D02*
G37*
G36*
X623860D02*
X619388Y382516D01*
X615013Y380704D01*
X611075Y378073D01*
X607727Y374725D01*
X605096Y370787D01*
X603284Y366412D01*
X602394Y361940D01*
X623860D01*
Y383406D01*
D02*
G37*
G36*
X1221906Y357260D02*
X1200440D01*
Y335794D01*
X1204912Y336684D01*
X1209287Y338496D01*
X1213224Y341127D01*
X1216573Y344475D01*
X1219204Y348413D01*
X1221016Y352788D01*
X1221906Y357260D01*
D02*
G37*
G36*
X1195360D02*
X1173894D01*
X1174784Y352788D01*
X1176596Y348413D01*
X1179227Y344475D01*
X1182575Y341127D01*
X1186513Y338496D01*
X1190888Y336684D01*
X1195360Y335794D01*
Y357260D01*
D02*
G37*
G36*
X840906D02*
X819440D01*
Y335794D01*
X823912Y336684D01*
X828287Y338496D01*
X832225Y341127D01*
X835573Y344475D01*
X838204Y348413D01*
X840016Y352788D01*
X840906Y357260D01*
D02*
G37*
G36*
X814360D02*
X792894D01*
X793784Y352788D01*
X795596Y348413D01*
X798227Y344475D01*
X801575Y341127D01*
X805513Y338496D01*
X809888Y336684D01*
X814360Y335794D01*
Y357260D01*
D02*
G37*
G36*
X459906D02*
X438440D01*
Y335794D01*
X442912Y336684D01*
X447287Y338496D01*
X451225Y341127D01*
X454573Y344475D01*
X457204Y348413D01*
X459016Y352788D01*
X459906Y357260D01*
D02*
G37*
G36*
X433360D02*
X411894D01*
X412784Y352788D01*
X414596Y348413D01*
X417227Y344475D01*
X420575Y341127D01*
X424513Y338496D01*
X428888Y336684D01*
X433360Y335794D01*
Y357260D01*
D02*
G37*
G36*
X269406D02*
X247940D01*
Y335794D01*
X252412Y336684D01*
X256787Y338496D01*
X260725Y341127D01*
X264073Y344475D01*
X266704Y348413D01*
X268516Y352788D01*
X269406Y357260D01*
D02*
G37*
G36*
X242860D02*
X221394D01*
X222284Y352788D01*
X224096Y348413D01*
X226727Y344475D01*
X230075Y341127D01*
X234013Y338496D01*
X238388Y336684D01*
X242860Y335794D01*
Y357260D01*
D02*
G37*
G36*
X1412406D02*
X1390940D01*
Y335794D01*
X1395412Y336684D01*
X1399787Y338496D01*
X1403725Y341127D01*
X1407073Y344475D01*
X1409704Y348413D01*
X1411516Y352788D01*
X1412406Y357260D01*
D02*
G37*
G36*
X1385860D02*
X1364394D01*
X1365284Y352788D01*
X1367096Y348413D01*
X1369727Y344475D01*
X1373075Y341127D01*
X1377013Y338496D01*
X1381388Y336684D01*
X1385860Y335794D01*
Y357260D01*
D02*
G37*
G36*
X1031406Y356860D02*
X1009940D01*
Y335394D01*
X1014412Y336284D01*
X1018787Y338096D01*
X1022725Y340727D01*
X1026073Y344075D01*
X1028704Y348013D01*
X1030516Y352388D01*
X1031406Y356860D01*
D02*
G37*
G36*
X1004860D02*
X983394D01*
X984284Y352388D01*
X986096Y348013D01*
X988727Y344075D01*
X992075Y340727D01*
X996013Y338096D01*
X1000388Y336284D01*
X1004860Y335394D01*
Y356860D01*
D02*
G37*
G36*
X650406D02*
X628940D01*
Y335394D01*
X633412Y336284D01*
X637787Y338096D01*
X641724Y340727D01*
X645073Y344075D01*
X647704Y348013D01*
X649516Y352388D01*
X650406Y356860D01*
D02*
G37*
G36*
X623860D02*
X602394D01*
X603284Y352388D01*
X605096Y348013D01*
X607727Y344075D01*
X611075Y340727D01*
X615013Y338096D01*
X619388Y336284D01*
X623860Y335394D01*
Y356860D01*
D02*
G37*
G36*
X1365340Y400240D02*
X1335260D01*
Y370160D01*
X1345120D01*
Y307445D01*
X1332027Y294352D01*
X1155836D01*
X1155350Y295525D01*
X1163462Y303638D01*
X1164585Y305318D01*
X1164979Y307300D01*
Y370160D01*
X1174840D01*
Y400240D01*
X1144760D01*
Y370160D01*
X1154620D01*
Y309445D01*
X1147147Y301972D01*
X968456D01*
X967970Y303145D01*
X972962Y308137D01*
X974085Y309818D01*
X974480Y311800D01*
Y369760D01*
X984340D01*
Y399840D01*
X954260D01*
Y369760D01*
X964120D01*
Y313945D01*
X959767Y309592D01*
X776076D01*
X775590Y310765D01*
X782462Y317638D01*
X783585Y319318D01*
X783979Y321300D01*
Y370160D01*
X793840D01*
Y400240D01*
X763760D01*
Y370160D01*
X773620D01*
Y323445D01*
X767387Y317212D01*
X576196D01*
X575710Y318385D01*
X591962Y334637D01*
X593085Y336318D01*
X593479Y338300D01*
Y369760D01*
X603340D01*
Y399840D01*
X573260D01*
Y369760D01*
X583120D01*
Y340445D01*
X567507Y324832D01*
X346416D01*
X345930Y326005D01*
X390085Y370160D01*
X412840D01*
Y400240D01*
X382760D01*
Y377485D01*
X337727Y332452D01*
X219822D01*
X217840Y332058D01*
X216160Y330935D01*
X215285Y330060D01*
X161144D01*
X160658Y331233D01*
X199585Y370160D01*
X222340D01*
Y400240D01*
X192260D01*
Y377485D01*
X152455Y337679D01*
X67351D01*
X66966Y338950D01*
X70224Y341127D01*
X73573Y344475D01*
X76204Y348413D01*
X78016Y352788D01*
X78906Y357260D01*
X30894D01*
X31784Y352788D01*
X33596Y348413D01*
X36227Y344475D01*
X39575Y341127D01*
X42834Y338950D01*
X42449Y337679D01*
X35000D01*
X33018Y337285D01*
X31337Y336162D01*
X13701Y318526D01*
X12579Y316846D01*
X12184Y314864D01*
Y254240D01*
X5824D01*
Y231160D01*
X28904D01*
Y254240D01*
X22543D01*
Y312718D01*
X37145Y327321D01*
X90836D01*
X91322Y326147D01*
X64501Y299326D01*
X63379Y297646D01*
X62984Y295664D01*
Y254240D01*
X56624D01*
Y231160D01*
X79704D01*
Y254240D01*
X73343D01*
Y293518D01*
X99525Y319701D01*
X115716D01*
X116202Y318527D01*
X89901Y292226D01*
X88778Y290546D01*
X88384Y288564D01*
Y254240D01*
X82024D01*
Y231160D01*
X105104D01*
Y254240D01*
X98743D01*
Y286418D01*
X124405Y312080D01*
X145596D01*
X146082Y310907D01*
X115301Y280126D01*
X114178Y278446D01*
X113784Y276464D01*
Y254240D01*
X107424D01*
Y231160D01*
X130504D01*
Y254240D01*
X124143D01*
Y274318D01*
X154285Y304461D01*
X222976D01*
X223462Y303287D01*
X191501Y271326D01*
X190378Y269646D01*
X189984Y267664D01*
Y254240D01*
X183624D01*
Y231160D01*
X206704D01*
Y254240D01*
X200343D01*
Y265518D01*
X231665Y296840D01*
X270356D01*
X270842Y295667D01*
X242301Y267126D01*
X241178Y265446D01*
X240784Y263464D01*
Y254240D01*
X234424D01*
Y231160D01*
X257504D01*
Y254240D01*
X251143D01*
Y261318D01*
X279045Y289221D01*
X290236D01*
X290722Y288047D01*
X267701Y265026D01*
X266579Y263346D01*
X266184Y261364D01*
Y254240D01*
X259824D01*
Y231160D01*
X282904D01*
Y254240D01*
X276543D01*
Y259218D01*
X297801Y280476D01*
X298940Y279819D01*
X298697Y278913D01*
Y276572D01*
X299303Y274311D01*
X300473Y272284D01*
X302129Y270629D01*
X304156Y269458D01*
X306417Y268852D01*
X307695D01*
X308247Y268170D01*
X307750Y266900D01*
X302756D01*
X301171Y266584D01*
X299826Y265686D01*
X293834Y259694D01*
X292936Y258349D01*
X292620Y256764D01*
Y254240D01*
X285224D01*
Y231160D01*
X308304D01*
Y254240D01*
X301896D01*
X301370Y255510D01*
X304473Y258613D01*
X332653D01*
X332958Y257343D01*
X329719Y255693D01*
X325894Y252913D01*
X322551Y249570D01*
X319771Y245744D01*
X317625Y241531D01*
X316164Y237034D01*
X315424Y232364D01*
Y227636D01*
X316164Y222966D01*
X317625Y218469D01*
X319771Y214256D01*
X322551Y210430D01*
X325894Y207087D01*
X329719Y204307D01*
X333932Y202161D01*
X338429Y200700D01*
X343100Y199960D01*
X347828D01*
X352498Y200700D01*
X356995Y202161D01*
X361208Y204307D01*
X365033Y207087D01*
X368377Y210430D01*
X371156Y214256D01*
X373303Y218469D01*
X374764Y222966D01*
X375504Y227636D01*
Y232364D01*
X374764Y237034D01*
X373303Y241531D01*
X371156Y245744D01*
X368377Y249570D01*
X365033Y252913D01*
X361208Y255693D01*
X357970Y257343D01*
X358274Y258613D01*
X735527D01*
X756056Y238084D01*
Y232340D01*
X742660D01*
Y197260D01*
X777740D01*
Y232340D01*
X764344D01*
Y239800D01*
X764028Y241386D01*
X763130Y242730D01*
X740174Y265686D01*
X739884Y265880D01*
X740269Y267150D01*
X771990D01*
X805627Y233513D01*
X805141Y232340D01*
X793460D01*
Y197260D01*
X821625D01*
X822111Y196087D01*
X817498Y191474D01*
X282682D01*
X277838Y196318D01*
Y205760D01*
X282904D01*
Y228840D01*
X259824D01*
Y205760D01*
X264889D01*
Y193636D01*
X265382Y191159D01*
X266786Y189058D01*
X273401Y182443D01*
X272915Y181270D01*
X269819D01*
X250107Y200981D01*
Y205760D01*
X257504D01*
Y228840D01*
X234424D01*
Y205760D01*
X241820D01*
Y199265D01*
X242136Y197679D01*
X243034Y196334D01*
X262513Y176855D01*
X262027Y175682D01*
X245178D01*
X224707Y196153D01*
Y205760D01*
X232104D01*
Y228840D01*
X209024D01*
Y205760D01*
X216420D01*
Y194436D01*
X216736Y192851D01*
X217634Y191506D01*
X237873Y171267D01*
X237387Y170094D01*
X225766D01*
X199307Y196553D01*
Y205760D01*
X206704D01*
Y228840D01*
X183624D01*
Y205760D01*
X191020D01*
Y194836D01*
X191336Y193251D01*
X192234Y191906D01*
X218461Y165679D01*
X217975Y164506D01*
X208854D01*
X173907Y199453D01*
Y205760D01*
X181304D01*
Y228840D01*
X158224D01*
Y205760D01*
X165620D01*
Y197736D01*
X165936Y196150D01*
X166834Y194806D01*
X201549Y160091D01*
X201063Y158918D01*
X181942D01*
X148507Y192353D01*
Y205760D01*
X155904D01*
Y228840D01*
X132824D01*
Y205760D01*
X140220D01*
Y190636D01*
X140536Y189051D01*
X141434Y187706D01*
X177296Y151844D01*
X178640Y150946D01*
X180226Y150630D01*
X954174D01*
X955760Y150946D01*
X957104Y151844D01*
X1002520Y197260D01*
X1031740D01*
Y229720D01*
X1069460D01*
Y197260D01*
X1104540D01*
Y229720D01*
X1120260D01*
Y197260D01*
X1155340D01*
Y229720D01*
X1171060D01*
Y217340D01*
X1206140D01*
Y225488D01*
X1207313Y225974D01*
X1207941Y225346D01*
X1209286Y224448D01*
X1210871Y224132D01*
X1221860D01*
Y197260D01*
X1256940D01*
Y232340D01*
X1226324D01*
X1225924Y232420D01*
X1212588D01*
X1210917Y234090D01*
X1211403Y235264D01*
X1362180D01*
X1374260Y223184D01*
Y197260D01*
X1409340D01*
Y232340D01*
X1383416D01*
X1369440Y246316D01*
X1367340Y247719D01*
X1364862Y248212D01*
X849758D01*
X847280Y247719D01*
X845180Y246316D01*
X834616Y235752D01*
X833212Y233652D01*
X832719Y231174D01*
Y206695D01*
X829713Y203689D01*
X828540Y204175D01*
Y232340D01*
X815144D01*
Y234000D01*
X814828Y235586D01*
X813930Y236930D01*
X776637Y274223D01*
X775292Y275122D01*
X773707Y275437D01*
X317216D01*
X316443Y276445D01*
X316477Y276572D01*
Y278913D01*
X315871Y281174D01*
X314977Y282723D01*
X315596Y283993D01*
X1334172D01*
X1336154Y284387D01*
X1337835Y285510D01*
X1353962Y301637D01*
X1355085Y303318D01*
X1355479Y305300D01*
X1355479Y305300D01*
Y370160D01*
X1365340D01*
Y400240D01*
D02*
G37*
G36*
X232104Y254240D02*
X223104D01*
Y245240D01*
X232104D01*
Y254240D01*
D02*
G37*
G36*
X218024D02*
X209024D01*
Y245240D01*
X218024D01*
Y254240D01*
D02*
G37*
G36*
X181304D02*
X172304D01*
Y245240D01*
X181304D01*
Y254240D01*
D02*
G37*
G36*
X167224D02*
X158224D01*
Y245240D01*
X167224D01*
Y254240D01*
D02*
G37*
G36*
X54304D02*
X45304D01*
Y245240D01*
X54304D01*
Y254240D01*
D02*
G37*
G36*
X40224D02*
X31224D01*
Y245240D01*
X40224D01*
Y254240D01*
D02*
G37*
G36*
X-21896D02*
X-30896D01*
Y245240D01*
X-21896D01*
Y254240D01*
D02*
G37*
G36*
X-35976D02*
X-44976D01*
Y245240D01*
X-35976D01*
Y254240D01*
D02*
G37*
G36*
X-102846Y269085D02*
X-200059D01*
X-201644Y268770D01*
X-202989Y267871D01*
X-207930Y262930D01*
X-208828Y261586D01*
X-209144Y260000D01*
Y243547D01*
X-210378Y243250D01*
X-210982Y244434D01*
X-213530Y247941D01*
X-216595Y251006D01*
X-220102Y253554D01*
X-223965Y255522D01*
X-228087Y256862D01*
X-232369Y257540D01*
X-236704D01*
X-240985Y256862D01*
X-245108Y255522D01*
X-248970Y253554D01*
X-252477Y251006D01*
X-255543Y247941D01*
X-258090Y244434D01*
X-260058Y240572D01*
X-261398Y236449D01*
X-262076Y232167D01*
Y227833D01*
X-261398Y223551D01*
X-260058Y219428D01*
X-258090Y215566D01*
X-255543Y212059D01*
X-252477Y208994D01*
X-248970Y206446D01*
X-245108Y204478D01*
X-240985Y203138D01*
X-236704Y202460D01*
X-232369D01*
X-228087Y203138D01*
X-223965Y204478D01*
X-220102Y206446D01*
X-216595Y208994D01*
X-213530Y212059D01*
X-210982Y215566D01*
X-210378Y216750D01*
X-209144Y216453D01*
Y201179D01*
X-209144Y200000D01*
X-209096Y199761D01*
X-209116Y199519D01*
X-208604Y195142D01*
X-208440Y194636D01*
X-208346Y194112D01*
X-208193Y193873D01*
X-208106Y193604D01*
X-207761Y193199D01*
X-207474Y192750D01*
X-63323Y42935D01*
X-63289Y42912D01*
X-63267Y42878D01*
X-59959Y39570D01*
X-58614Y38672D01*
X-57029Y38356D01*
X622848D01*
Y15044D01*
X623164Y13459D01*
X624062Y12114D01*
X639172Y-2995D01*
X640516Y-3893D01*
X642102Y-4209D01*
X1004996D01*
X1006581Y-3893D01*
X1007926Y-2995D01*
X1017130Y6209D01*
X1018028Y7553D01*
X1018344Y9139D01*
Y12460D01*
X1031740D01*
Y47540D01*
X996660D01*
Y12460D01*
X1010056D01*
Y10855D01*
X1003279Y4078D01*
X964159D01*
X963673Y5252D01*
X966330Y7909D01*
X967228Y9253D01*
X967544Y10839D01*
Y12460D01*
X980940D01*
Y47540D01*
X945860D01*
Y12460D01*
X957502D01*
X957988Y11287D01*
X956367Y9667D01*
X646133D01*
X644512Y11287D01*
X644998Y12460D01*
X676140D01*
Y47540D01*
X646920D01*
X640513Y53947D01*
X640999Y55120D01*
X680859D01*
X691780Y44199D01*
Y43476D01*
X691860Y43076D01*
Y12460D01*
X726940D01*
Y47540D01*
X700826D01*
X700657Y47822D01*
X701377Y49092D01*
X890087D01*
X894980Y44199D01*
Y43476D01*
X895060Y43076D01*
Y12460D01*
X930140D01*
Y47540D01*
X902926D01*
X902054Y48845D01*
X897392Y53507D01*
X897878Y54680D01*
X1208860D01*
X1221860Y41680D01*
Y12460D01*
X1256940D01*
Y47540D01*
X1227720D01*
X1216165Y59095D01*
X1216651Y60268D01*
X1254072D01*
X1272660Y41680D01*
Y12460D01*
X1307740D01*
Y47540D01*
X1278520D01*
X1261377Y64683D01*
X1261863Y65856D01*
X1299284D01*
X1323460Y41680D01*
Y12460D01*
X1358540D01*
Y47540D01*
X1329320D01*
X1303930Y72930D01*
X1302586Y73828D01*
X1301000Y74144D01*
X705166D01*
X694763Y84546D01*
X693419Y85444D01*
X691833Y85760D01*
X120100D01*
X1273Y204587D01*
X1759Y205760D01*
X3504D01*
Y228840D01*
X-19576D01*
Y205760D01*
X-10661D01*
X-10534Y205120D01*
X-9636Y203776D01*
X112795Y81345D01*
X112309Y80172D01*
X95688D01*
X-28630Y204490D01*
X-28104Y205760D01*
X-21896D01*
Y228840D01*
X-44976D01*
Y205760D01*
X-37580D01*
Y203436D01*
X-37264Y201850D01*
X-36366Y200506D01*
X88383Y75757D01*
X87897Y74584D01*
X73776D01*
X-54693Y203053D01*
Y205760D01*
X-47296D01*
Y228840D01*
X-70376D01*
Y205760D01*
X-62980D01*
Y201336D01*
X-62664Y199750D01*
X-61766Y198406D01*
X66471Y70169D01*
X65985Y68996D01*
X29364D01*
X-105493Y203853D01*
Y205760D01*
X-98096D01*
Y228840D01*
X-121176D01*
Y205760D01*
X-113780D01*
Y202136D01*
X-113464Y200550D01*
X-112566Y199206D01*
X22059Y64581D01*
X21573Y63408D01*
X-4645D01*
X-130893Y189655D01*
Y205760D01*
X-123496D01*
Y228840D01*
X-146576D01*
Y205760D01*
X-139180D01*
Y191699D01*
X-140353Y191213D01*
X-153727Y204587D01*
X-153241Y205760D01*
X-148896D01*
Y228840D01*
X-171976D01*
Y205760D01*
X-164580D01*
Y205436D01*
X-164264Y203850D01*
X-163366Y202506D01*
X-14265Y53405D01*
X-14751Y52232D01*
X-52985D01*
X-194757Y199608D01*
X-194757Y205760D01*
X-174296D01*
Y228840D01*
X-194757D01*
Y231160D01*
X-174296D01*
Y254240D01*
X-173340Y254998D01*
X-172932D01*
X-171976Y254240D01*
X-171976Y253728D01*
Y231160D01*
X-148896D01*
Y253728D01*
X-148896Y254240D01*
X-147940Y254998D01*
X-147532D01*
X-146576Y254240D01*
X-146576Y253728D01*
Y245240D01*
X-123496D01*
Y252535D01*
X-122226Y253061D01*
X-121256Y252091D01*
Y251368D01*
X-121176Y250968D01*
Y231160D01*
X-98096D01*
Y252535D01*
X-96826Y253061D01*
X-95856Y252091D01*
Y251368D01*
X-95776Y250968D01*
Y231160D01*
X-72696D01*
Y254240D01*
X-87655D01*
X-87884Y255393D01*
X-88782Y256737D01*
X-99916Y267871D01*
X-101261Y268770D01*
X-102846Y269085D01*
D02*
G37*
G36*
X522540Y252476D02*
Y232540D01*
X542476D01*
X541674Y236575D01*
X539975Y240677D01*
X537508Y244368D01*
X534368Y247508D01*
X530677Y249975D01*
X526575Y251674D01*
X522540Y252476D01*
D02*
G37*
G36*
X517460D02*
X513425Y251674D01*
X509323Y249975D01*
X505632Y247508D01*
X502492Y244368D01*
X500025Y240677D01*
X498326Y236575D01*
X497524Y232540D01*
X517460D01*
Y252476D01*
D02*
G37*
G36*
X232104Y240160D02*
X223104D01*
Y231160D01*
X232104D01*
Y240160D01*
D02*
G37*
G36*
X218024D02*
X209024D01*
Y231160D01*
X218024D01*
Y240160D01*
D02*
G37*
G36*
X181304D02*
X172304D01*
Y231160D01*
X181304D01*
Y240160D01*
D02*
G37*
G36*
X167224D02*
X158224D01*
Y231160D01*
X167224D01*
Y240160D01*
D02*
G37*
G36*
X145534Y286632D02*
X143193D01*
X140932Y286026D01*
X138905Y284856D01*
X137250Y283201D01*
X136080Y281174D01*
X135474Y278913D01*
Y276572D01*
X136080Y274311D01*
X137250Y272284D01*
X138905Y270629D01*
X140220Y269869D01*
Y254240D01*
X132824D01*
Y231160D01*
X155904D01*
Y254240D01*
X148507D01*
Y269869D01*
X149822Y270629D01*
X151477Y272284D01*
X152648Y274311D01*
X153254Y276572D01*
Y278913D01*
X152648Y281174D01*
X151477Y283201D01*
X149822Y284856D01*
X147795Y286026D01*
X145534Y286632D01*
D02*
G37*
G36*
X54304Y240160D02*
X45304D01*
Y231160D01*
X54304D01*
Y240160D01*
D02*
G37*
G36*
X40224D02*
X31224D01*
Y231160D01*
X40224D01*
Y240160D01*
D02*
G37*
G36*
X31840Y400240D02*
X1760D01*
Y370160D01*
X11620D01*
Y336445D01*
X-11699Y313126D01*
X-12822Y311446D01*
X-13216Y309464D01*
Y254240D01*
X-19576D01*
Y231160D01*
X3504D01*
Y254240D01*
X-2857D01*
Y307318D01*
X20462Y330638D01*
X21585Y332318D01*
X21979Y334300D01*
Y370160D01*
X31840D01*
Y400240D01*
D02*
G37*
G36*
X-21896Y240160D02*
X-30896D01*
Y231160D01*
X-21896D01*
Y240160D01*
D02*
G37*
G36*
X-35976D02*
X-44976D01*
Y231160D01*
X-35976D01*
Y240160D01*
D02*
G37*
G36*
X-158660Y400240D02*
X-188740D01*
Y370160D01*
X-178880D01*
Y341200D01*
X-178485Y339218D01*
X-177362Y337538D01*
X-166162Y326338D01*
X-164482Y325215D01*
X-162500Y324821D01*
X-89645D01*
X-62680Y297855D01*
Y254240D01*
X-70376D01*
Y231160D01*
X-47296D01*
Y254240D01*
X-52320D01*
Y300000D01*
X-52715Y301982D01*
X-53837Y303662D01*
X-53838Y303662D01*
X-83837Y333662D01*
X-85518Y334785D01*
X-87500Y335179D01*
X-129641D01*
X-129766Y336450D01*
X-128588Y336684D01*
X-124213Y338496D01*
X-120275Y341127D01*
X-116927Y344475D01*
X-114296Y348413D01*
X-112484Y352788D01*
X-111594Y357260D01*
X-159606D01*
X-158716Y352788D01*
X-156904Y348413D01*
X-154273Y344475D01*
X-150925Y341127D01*
X-146987Y338496D01*
X-142612Y336684D01*
X-141434Y336450D01*
X-141559Y335179D01*
X-160354D01*
X-168521Y343345D01*
Y370160D01*
X-158660D01*
Y400240D01*
D02*
G37*
G36*
X-123496Y240160D02*
X-132496D01*
Y231160D01*
X-123496D01*
Y240160D01*
D02*
G37*
G36*
X-137576D02*
X-146576D01*
Y231160D01*
X-137576D01*
Y240160D01*
D02*
G37*
G36*
X308304Y228840D02*
X299304D01*
Y219840D01*
X308304D01*
Y228840D01*
D02*
G37*
G36*
X294224D02*
X285224D01*
Y219840D01*
X294224D01*
Y228840D01*
D02*
G37*
G36*
X130504D02*
X121504D01*
Y219840D01*
X130504D01*
Y228840D01*
D02*
G37*
G36*
X116424D02*
X107424D01*
Y219840D01*
X116424D01*
Y228840D01*
D02*
G37*
G36*
X-72696D02*
X-81696D01*
Y219840D01*
X-72696D01*
Y228840D01*
D02*
G37*
G36*
X-86776D02*
X-95776D01*
Y219840D01*
X-86776D01*
Y228840D01*
D02*
G37*
G36*
X1460140Y232340D02*
X1445140D01*
Y217340D01*
X1460140D01*
Y232340D01*
D02*
G37*
G36*
X1440060D02*
X1425060D01*
Y217340D01*
X1440060D01*
Y232340D01*
D02*
G37*
G36*
X1358540D02*
X1343540D01*
Y217340D01*
X1358540D01*
Y232340D01*
D02*
G37*
G36*
X1338460D02*
X1323460D01*
Y217340D01*
X1338460D01*
Y232340D01*
D02*
G37*
G36*
X726940D02*
X711940D01*
Y217340D01*
X726940D01*
Y232340D01*
D02*
G37*
G36*
X706860D02*
X691860D01*
Y217340D01*
X706860D01*
Y232340D01*
D02*
G37*
G36*
X676140D02*
X661140D01*
Y217340D01*
X676140D01*
Y232340D01*
D02*
G37*
G36*
X656060D02*
X641060D01*
Y217340D01*
X656060D01*
Y232340D01*
D02*
G37*
G36*
X542476Y227460D02*
X522540D01*
Y207524D01*
X526575Y208326D01*
X530677Y210025D01*
X534368Y212492D01*
X537508Y215632D01*
X539975Y219323D01*
X541674Y223425D01*
X542476Y227460D01*
D02*
G37*
G36*
X517460D02*
X497524D01*
X498326Y223425D01*
X500025Y219323D01*
X502492Y215632D01*
X505632Y212492D01*
X509323Y210025D01*
X513425Y208326D01*
X517460Y207524D01*
Y227460D01*
D02*
G37*
G36*
X308304Y214760D02*
X299304D01*
Y205760D01*
X308304D01*
Y214760D01*
D02*
G37*
G36*
X294224D02*
X285224D01*
Y205760D01*
X294224D01*
Y214760D01*
D02*
G37*
G36*
X130504D02*
X121504D01*
Y205760D01*
X130504D01*
Y214760D01*
D02*
G37*
G36*
X116424D02*
X107424D01*
Y205760D01*
X116424D01*
Y214760D01*
D02*
G37*
G36*
X105104Y228840D02*
X82024D01*
Y205760D01*
X105104D01*
Y228840D01*
D02*
G37*
G36*
X79704D02*
X56624D01*
Y205760D01*
X79704D01*
Y228840D01*
D02*
G37*
G36*
X54304D02*
X31224D01*
Y205760D01*
X54304D01*
Y228840D01*
D02*
G37*
G36*
X28904D02*
X5824D01*
Y205760D01*
X28904D01*
Y228840D01*
D02*
G37*
G36*
X-72696Y214760D02*
X-81696D01*
Y205760D01*
X-72696D01*
Y214760D01*
D02*
G37*
G36*
X-86776D02*
X-95776D01*
Y205760D01*
X-86776D01*
Y214760D01*
D02*
G37*
G36*
X1460140Y212260D02*
X1445140D01*
Y197260D01*
X1460140D01*
Y212260D01*
D02*
G37*
G36*
X1440060D02*
X1425060D01*
Y197260D01*
X1440060D01*
Y212260D01*
D02*
G37*
G36*
X1358540D02*
X1343540D01*
Y197260D01*
X1358540D01*
Y212260D01*
D02*
G37*
G36*
X1338460D02*
X1323460D01*
Y197260D01*
X1338460D01*
Y212260D01*
D02*
G37*
G36*
X1307740Y232340D02*
X1272660D01*
Y197260D01*
X1307740D01*
Y232340D01*
D02*
G37*
G36*
X1206140Y212260D02*
X1191140D01*
Y197260D01*
X1206140D01*
Y212260D01*
D02*
G37*
G36*
X1186060D02*
X1171060D01*
Y197260D01*
X1186060D01*
Y212260D01*
D02*
G37*
G36*
X726940D02*
X711940D01*
Y197260D01*
X726940D01*
Y212260D01*
D02*
G37*
G36*
X706860D02*
X691860D01*
Y197260D01*
X706860D01*
Y212260D01*
D02*
G37*
G36*
X676140D02*
X661140D01*
Y197260D01*
X676140D01*
Y212260D01*
D02*
G37*
G36*
X656060D02*
X641060D01*
Y197260D01*
X656060D01*
Y212260D01*
D02*
G37*
G36*
X1487540Y152476D02*
Y132540D01*
X1507476D01*
X1506674Y136575D01*
X1504975Y140677D01*
X1502508Y144368D01*
X1499368Y147508D01*
X1495677Y149975D01*
X1491575Y151674D01*
X1487540Y152476D01*
D02*
G37*
G36*
X1047540Y152476D02*
Y132540D01*
X1067476D01*
X1066674Y136575D01*
X1064975Y140677D01*
X1062508Y144368D01*
X1059368Y147508D01*
X1055677Y149975D01*
X1051575Y151674D01*
X1047540Y152476D01*
D02*
G37*
G36*
X1042460D02*
X1038425Y151674D01*
X1034323Y149975D01*
X1030632Y147508D01*
X1027492Y144368D01*
X1025025Y140677D01*
X1023326Y136575D01*
X1022524Y132540D01*
X1042460D01*
Y152476D01*
D02*
G37*
G36*
X1482460Y152476D02*
X1478425Y151674D01*
X1474323Y149975D01*
X1470632Y147508D01*
X1467492Y144368D01*
X1465025Y140677D01*
X1463326Y136575D01*
X1462524Y132540D01*
X1482460D01*
Y152476D01*
D02*
G37*
G36*
X-251675Y152609D02*
X-256325D01*
X-258404Y152335D01*
X-260342Y151532D01*
X-262006Y150256D01*
X-263282Y148592D01*
X-264085Y146654D01*
X-264359Y144575D01*
Y137425D01*
X-264085Y135346D01*
X-263282Y133408D01*
X-262006Y131744D01*
X-260342Y130468D01*
X-258404Y129665D01*
X-256325Y129391D01*
X-251675D01*
X-249596Y129665D01*
X-247658Y130468D01*
X-245994Y131744D01*
X-244718Y133408D01*
X-243915Y135346D01*
X-243641Y137425D01*
Y144575D01*
X-243915Y146654D01*
X-244718Y148592D01*
X-245994Y150256D01*
X-247658Y151532D01*
X-249596Y152335D01*
X-251675Y152609D01*
D02*
G37*
G36*
X-226525Y143849D02*
X-227475D01*
X-229254Y143615D01*
X-230912Y142928D01*
X-232335Y141835D01*
X-233428Y140412D01*
X-234115Y138754D01*
X-234349Y136975D01*
Y133025D01*
X-234115Y131246D01*
X-233428Y129588D01*
X-232335Y128165D01*
X-230912Y127072D01*
X-229254Y126385D01*
X-227475Y126151D01*
X-226525D01*
X-224746Y126385D01*
X-223088Y127072D01*
X-221665Y128165D01*
X-220572Y129588D01*
X-219885Y131246D01*
X-219651Y133025D01*
Y136975D01*
X-219885Y138754D01*
X-220572Y140412D01*
X-221665Y141835D01*
X-223088Y142928D01*
X-224746Y143615D01*
X-226525Y143849D01*
D02*
G37*
G36*
X1507476Y127460D02*
X1487540D01*
Y107524D01*
X1491575Y108326D01*
X1495677Y110025D01*
X1499368Y112492D01*
X1502508Y115632D01*
X1504975Y119323D01*
X1506674Y123425D01*
X1507476Y127460D01*
D02*
G37*
G36*
X1067476D02*
X1047540D01*
Y107524D01*
X1051575Y108326D01*
X1055677Y110025D01*
X1059368Y112492D01*
X1062508Y115632D01*
X1064975Y119323D01*
X1066674Y123425D01*
X1067476Y127460D01*
D02*
G37*
G36*
X1042460D02*
X1022524D01*
X1023326Y123425D01*
X1025025Y119323D01*
X1027492Y115632D01*
X1030632Y112492D01*
X1034323Y110025D01*
X1038425Y108326D01*
X1042460Y107524D01*
Y127460D01*
D02*
G37*
G36*
X1482460D02*
X1462524D01*
X1463326Y123425D01*
X1465025Y119323D01*
X1467492Y115632D01*
X1470632Y112492D01*
X1474323Y110025D01*
X1478425Y108326D01*
X1482460Y107524D01*
Y127460D01*
D02*
G37*
G36*
X-226525Y93849D02*
X-227475D01*
X-229254Y93615D01*
X-230912Y92928D01*
X-232335Y91835D01*
X-233428Y90412D01*
X-234115Y88754D01*
X-234349Y86975D01*
Y83025D01*
X-234115Y81246D01*
X-233428Y79588D01*
X-232335Y78165D01*
X-230912Y77072D01*
X-229254Y76385D01*
X-227475Y76151D01*
X-226525D01*
X-224746Y76385D01*
X-223088Y77072D01*
X-221665Y78165D01*
X-220572Y79588D01*
X-219885Y81246D01*
X-219651Y83025D01*
Y86975D01*
X-219885Y88754D01*
X-220572Y90412D01*
X-221665Y91835D01*
X-223088Y92928D01*
X-224746Y93615D01*
X-226525Y93849D01*
D02*
G37*
G36*
X-251675Y90609D02*
X-256325D01*
X-258404Y90335D01*
X-260342Y89532D01*
X-262006Y88256D01*
X-263282Y86592D01*
X-264085Y84654D01*
X-264359Y82575D01*
Y75425D01*
X-264085Y73346D01*
X-263282Y71408D01*
X-262006Y69744D01*
X-260342Y68468D01*
X-258404Y67665D01*
X-256325Y67391D01*
X-251675D01*
X-249596Y67665D01*
X-247658Y68468D01*
X-245994Y69744D01*
X-244718Y71408D01*
X-243915Y73346D01*
X-243641Y75425D01*
Y82575D01*
X-243915Y84654D01*
X-244718Y86592D01*
X-245994Y88256D01*
X-247658Y89532D01*
X-249596Y90335D01*
X-251675Y90609D01*
D02*
G37*
G36*
X1460140Y47540D02*
X1445140D01*
Y32540D01*
X1460140D01*
Y47540D01*
D02*
G37*
G36*
X1440060D02*
X1425060D01*
Y32540D01*
X1440060D01*
Y47540D01*
D02*
G37*
G36*
X1409340D02*
X1394340D01*
Y32540D01*
X1409340D01*
Y47540D01*
D02*
G37*
G36*
X1389260D02*
X1374260D01*
Y32540D01*
X1389260D01*
Y47540D01*
D02*
G37*
G36*
X1155340D02*
X1140340D01*
Y32540D01*
X1155340D01*
Y47540D01*
D02*
G37*
G36*
X1135260D02*
X1120260D01*
Y32540D01*
X1135260D01*
Y47540D01*
D02*
G37*
G36*
X879340D02*
X864340D01*
Y32540D01*
X879340D01*
Y47540D01*
D02*
G37*
G36*
X859260D02*
X844260D01*
Y32540D01*
X859260D01*
Y47540D01*
D02*
G37*
G36*
X777740D02*
X762740D01*
Y32540D01*
X777740D01*
Y47540D01*
D02*
G37*
G36*
X757660D02*
X742660D01*
Y32540D01*
X757660D01*
Y47540D01*
D02*
G37*
G36*
X1460140Y27460D02*
X1445140D01*
Y12460D01*
X1460140D01*
Y27460D01*
D02*
G37*
G36*
X1440060D02*
X1425060D01*
Y12460D01*
X1440060D01*
Y27460D01*
D02*
G37*
G36*
X1409340D02*
X1394340D01*
Y12460D01*
X1409340D01*
Y27460D01*
D02*
G37*
G36*
X1389260D02*
X1374260D01*
Y12460D01*
X1389260D01*
Y27460D01*
D02*
G37*
G36*
X1206140Y47540D02*
X1171060D01*
Y12460D01*
X1206140D01*
Y47540D01*
D02*
G37*
G36*
X1155340Y27460D02*
X1140340D01*
Y12460D01*
X1155340D01*
Y27460D01*
D02*
G37*
G36*
X1135260D02*
X1120260D01*
Y12460D01*
X1135260D01*
Y27460D01*
D02*
G37*
G36*
X1104540Y47540D02*
X1069460D01*
Y12460D01*
X1104540D01*
Y47540D01*
D02*
G37*
G36*
X879340Y27460D02*
X864340D01*
Y12460D01*
X879340D01*
Y27460D01*
D02*
G37*
G36*
X859260D02*
X844260D01*
Y12460D01*
X859260D01*
Y27460D01*
D02*
G37*
G36*
X828540Y47540D02*
X793460D01*
Y12460D01*
X828540D01*
Y47540D01*
D02*
G37*
G36*
X777740Y27460D02*
X762740D01*
Y12460D01*
X777740D01*
Y27460D01*
D02*
G37*
G36*
X757660D02*
X742660D01*
Y12460D01*
X757660D01*
Y27460D01*
D02*
G37*
G36*
X522540Y22476D02*
Y2540D01*
X542476D01*
X541674Y6575D01*
X539975Y10677D01*
X537508Y14368D01*
X534368Y17508D01*
X530677Y19975D01*
X526575Y21674D01*
X522540Y22476D01*
D02*
G37*
G36*
X2540D02*
Y2540D01*
X22476D01*
X21674Y6575D01*
X19975Y10677D01*
X17508Y14368D01*
X14368Y17508D01*
X10677Y19975D01*
X6575Y21674D01*
X2540Y22476D01*
D02*
G37*
G36*
X517460D02*
X513425Y21674D01*
X509323Y19975D01*
X505632Y17508D01*
X502492Y14368D01*
X500025Y10677D01*
X498326Y6575D01*
X497524Y2540D01*
X517460D01*
Y22476D01*
D02*
G37*
G36*
X-2540D02*
X-6575Y21674D01*
X-10677Y19975D01*
X-14368Y17508D01*
X-17508Y14368D01*
X-19975Y10677D01*
X-21674Y6575D01*
X-22476Y2540D01*
X-2540D01*
Y22476D01*
D02*
G37*
G36*
X22476Y-2540D02*
X2540D01*
Y-22476D01*
X6575Y-21674D01*
X10677Y-19975D01*
X14368Y-17508D01*
X17508Y-14368D01*
X19975Y-10677D01*
X21674Y-6575D01*
X22476Y-2540D01*
D02*
G37*
G36*
X542476D02*
X522540D01*
Y-22476D01*
X526575Y-21674D01*
X530677Y-19975D01*
X534368Y-17508D01*
X537508Y-14368D01*
X539975Y-10677D01*
X541674Y-6575D01*
X542476Y-2540D01*
D02*
G37*
G36*
X-2540D02*
X-22476D01*
X-21674Y-6575D01*
X-19975Y-10677D01*
X-17508Y-14368D01*
X-14368Y-17508D01*
X-10677Y-19975D01*
X-6575Y-21674D01*
X-2540Y-22476D01*
Y-2540D01*
D02*
G37*
G36*
X517460D02*
X497524D01*
X498326Y-6575D01*
X500025Y-10677D01*
X502492Y-14368D01*
X505632Y-17508D01*
X509323Y-19975D01*
X513425Y-21674D01*
X517460Y-22476D01*
Y-2540D01*
D02*
G37*
G36*
X347828Y30040D02*
X343100D01*
X338429Y29300D01*
X333932Y27839D01*
X329719Y25693D01*
X325894Y22913D01*
X322551Y19570D01*
X319771Y15744D01*
X317625Y11531D01*
X316164Y7034D01*
X315424Y2364D01*
Y-2364D01*
X316164Y-7034D01*
X317625Y-11531D01*
X319771Y-15744D01*
X322551Y-19570D01*
X325894Y-22913D01*
X329719Y-25693D01*
X333932Y-27839D01*
X338429Y-29300D01*
X343100Y-30040D01*
X347828D01*
X352498Y-29300D01*
X356995Y-27839D01*
X361208Y-25693D01*
X365033Y-22913D01*
X368377Y-19570D01*
X371156Y-15744D01*
X373303Y-11531D01*
X374764Y-7034D01*
X375504Y-2364D01*
Y2364D01*
X374764Y7034D01*
X373303Y11531D01*
X371156Y15744D01*
X368377Y19570D01*
X365033Y22913D01*
X361208Y25693D01*
X356995Y27839D01*
X352498Y29300D01*
X347828Y30040D01*
D02*
G37*
G36*
X-232172D02*
X-236900D01*
X-241571Y29300D01*
X-246068Y27839D01*
X-250281Y25693D01*
X-254106Y22913D01*
X-257449Y19570D01*
X-260229Y15744D01*
X-262375Y11531D01*
X-263836Y7034D01*
X-264576Y2364D01*
Y-2364D01*
X-263836Y-7034D01*
X-262375Y-11531D01*
X-260229Y-15744D01*
X-257449Y-19570D01*
X-254106Y-22913D01*
X-250281Y-25693D01*
X-246068Y-27839D01*
X-241571Y-29300D01*
X-236900Y-30040D01*
X-232172D01*
X-227502Y-29300D01*
X-223005Y-27839D01*
X-218792Y-25693D01*
X-214967Y-22913D01*
X-211623Y-19570D01*
X-208844Y-15744D01*
X-206697Y-11531D01*
X-205236Y-7034D01*
X-204496Y-2364D01*
Y2364D01*
X-205236Y7034D01*
X-206697Y11531D01*
X-208844Y15744D01*
X-211623Y19570D01*
X-214967Y22913D01*
X-218792Y25693D01*
X-223005Y27839D01*
X-227502Y29300D01*
X-232172Y30040D01*
D02*
G37*
%LPD*%
D31*
X271364Y193636D02*
Y217300D01*
X280000Y185000D02*
X820180D01*
X271364Y193636D02*
X280000Y185000D01*
X820180D02*
X839194Y204014D01*
Y231174D01*
X849758Y241738D01*
X1364862D02*
X1391800Y214800D01*
X849758Y241738D02*
X1364862D01*
D32*
X-55627Y49001D02*
G03*
X-55607Y48981I2176J2135D01*
G01*
X220564Y194436D02*
X243462Y171538D01*
X220564Y194436D02*
Y217300D01*
X144364Y190636D02*
X180226Y154774D01*
X144364Y190636D02*
Y217300D01*
X180226Y154774D02*
X954174D01*
X169764Y197736D02*
Y217300D01*
Y197736D02*
X207138Y160362D01*
X954174Y154774D02*
X1014200Y214800D01*
X207138Y160362D02*
X893909D01*
X195164Y194836D02*
Y217300D01*
Y194836D02*
X224050Y165950D01*
X856600D01*
X893909Y160362D02*
X936556Y203008D01*
X856600Y165950D02*
X886913Y196263D01*
X243462Y171538D02*
X854285D01*
X245964Y199265D02*
X268102Y177126D01*
X245964Y199265D02*
Y217300D01*
X268102Y177126D02*
X272566D01*
X854285Y171538D02*
X881325Y198577D01*
X824126Y177126D02*
X861800Y214800D01*
X272566Y177126D02*
X824126D01*
X-205000Y200000D02*
X-204488Y195623D01*
X-60337Y45808D01*
X-57029Y42500D02*
X625206D01*
X-198900Y197938D02*
X-55627Y49001D01*
X-198900Y199166D02*
X-198900Y254576D01*
X-55607Y48981D02*
X-54714Y48088D01*
X630794D01*
X-205000Y201179D02*
X-205000Y200000D01*
X-205000Y201179D02*
Y260000D01*
X-60337Y45808D02*
X-57029Y42500D01*
X-198900Y197938D02*
Y199166D01*
X-205000Y260000D02*
X-200059Y264941D01*
X-195859Y259141D02*
X-122446D01*
X-198900Y254576D02*
X-197644Y257356D01*
X-195859Y259141D01*
X-200059Y264941D02*
X-102846D01*
X-122446Y259141D02*
X-117112Y253807D01*
X307587Y275131D02*
X311294Y271424D01*
X307587Y275131D02*
Y277742D01*
X311294Y271294D02*
Y271424D01*
X144364Y243892D02*
Y277742D01*
X811000Y214800D02*
Y234000D01*
X773707Y271294D02*
X811000Y234000D01*
X311294Y271294D02*
X773707D01*
X881325Y198577D02*
Y219272D01*
X895917Y233864D02*
X1205283D01*
X1225924Y228276D02*
X1239400Y214800D01*
X886913Y196263D02*
Y208685D01*
X1205283Y233864D02*
X1210871Y228276D01*
X886913Y208685D02*
X893028Y214800D01*
X1210871Y228276D02*
X1225924D01*
X881325Y219272D02*
X895917Y233864D01*
X936556Y203008D02*
Y207528D01*
X943828Y214800D01*
X963400D01*
X893028D02*
X912600D01*
X760200D02*
Y239800D01*
X302756Y262756D02*
X737244D01*
X760200Y239800D01*
X296764Y256764D02*
X302756Y262756D01*
X296764Y243892D02*
Y256764D01*
X-58836Y201336D02*
X72060Y70440D01*
X-58836Y201336D02*
Y218492D01*
X-6706Y206706D02*
X118384Y81616D01*
X-33436Y203436D02*
Y218492D01*
X-6706Y206706D02*
Y217162D01*
X-33436Y203436D02*
X93972Y76028D01*
X72060Y70440D02*
X687204D01*
X93972Y76028D02*
X689519D01*
X118384Y81616D02*
X691833D01*
X687204Y70440D02*
X698820Y58824D01*
X691833Y81616D02*
X703449Y70000D01*
X684890Y64852D02*
X696506Y53236D01*
X-135036Y187939D02*
X-6361Y59264D01*
X27648Y64852D02*
X684890D01*
X682575Y59264D02*
X695924Y45915D01*
X689519Y76028D02*
X701135Y64412D01*
X-109636Y202136D02*
X27648Y64852D01*
X630794Y48088D02*
X632580Y46302D01*
X625206Y42500D02*
X626992Y40715D01*
X632580Y17359D02*
Y46302D01*
X634924Y53676D02*
X658600Y30000D01*
X-8676Y53676D02*
X634924D01*
X-6361Y59264D02*
X682575D01*
X626992Y15044D02*
Y40715D01*
X-160436Y205436D02*
X-8676Y53676D01*
X703449Y70000D02*
X1301000D01*
X698820Y58824D02*
X1210576D01*
X1239400Y30000D01*
X1255788Y64412D02*
X1290200Y30000D01*
X696506Y53236D02*
X891803D01*
X701135Y64412D02*
X1255788D01*
X891803Y53236D02*
X899124Y45915D01*
X1301000Y70000D02*
X1341000Y30000D01*
X695924Y43476D02*
Y45915D01*
X-8036Y218492D02*
X-6706Y217162D01*
X-160436Y205436D02*
Y218492D01*
X-135036Y187939D02*
Y218492D01*
X-109636Y202136D02*
Y218492D01*
X695924Y43476D02*
X709400Y30000D01*
X1004996Y-65D02*
X1014200Y9139D01*
X958084Y5523D02*
X963400Y10839D01*
X642102Y-65D02*
X1004996D01*
X644416Y5523D02*
X958084D01*
X626992Y15044D02*
X642102Y-65D01*
X632580Y17359D02*
X644416Y5523D01*
X-91712Y251368D02*
X-84236Y243892D01*
X-91712Y251368D02*
Y253807D01*
X963400Y10839D02*
Y30000D01*
X-117112Y251368D02*
Y253807D01*
X-102846Y264941D02*
X-91712Y253807D01*
X899124Y43476D02*
X912600Y30000D01*
X899124Y43476D02*
Y45915D01*
X-117112Y251368D02*
X-109636Y243892D01*
X1014200Y9139D02*
Y30000D01*
D33*
X-254000Y79000D02*
D03*
Y141000D02*
D03*
D34*
X-227000Y85000D02*
D03*
Y135000D02*
D03*
D35*
X658600Y214800D02*
D03*
X1014200D02*
D03*
X963400D02*
D03*
X760200D02*
D03*
X709400D02*
D03*
X912600D02*
D03*
X811000D02*
D03*
X861800D02*
D03*
X1087000D02*
D03*
X1137800D02*
D03*
X1188600D02*
D03*
X1341000D02*
D03*
X1391800D02*
D03*
X1290200D02*
D03*
X1442600D02*
D03*
X1239400D02*
D03*
X658600Y30000D02*
D03*
X1014200D02*
D03*
X963400D02*
D03*
X760200D02*
D03*
X709400D02*
D03*
X912600D02*
D03*
X811000D02*
D03*
X861800D02*
D03*
X1087000D02*
D03*
X1137800D02*
D03*
X1188600D02*
D03*
X1341000D02*
D03*
X1391800D02*
D03*
X1290200D02*
D03*
X1442600D02*
D03*
X1239400D02*
D03*
D36*
X1350300Y385200D02*
D03*
X1413800Y410600D02*
D03*
X-173700Y385200D02*
D03*
X-110200Y410600D02*
D03*
X16800Y385200D02*
D03*
X80300Y410600D02*
D03*
X207300Y385200D02*
D03*
X270800Y410600D02*
D03*
X397800Y385200D02*
D03*
X461300Y410600D02*
D03*
X588300Y384800D02*
D03*
X651800Y410200D02*
D03*
X778800Y385200D02*
D03*
X842300Y410600D02*
D03*
X969300Y384800D02*
D03*
X1032800Y410200D02*
D03*
X1159800Y385200D02*
D03*
X1223300Y410600D02*
D03*
D37*
X1388400Y359800D02*
D03*
X-135600D02*
D03*
X54900D02*
D03*
X245400D02*
D03*
X435900D02*
D03*
X626400Y359400D02*
D03*
X816900Y359800D02*
D03*
X1007400Y359400D02*
D03*
X1197900Y359800D02*
D03*
D38*
X-109636Y217300D02*
D03*
X-84236D02*
D03*
X-135036D02*
D03*
X-160436D02*
D03*
X17364D02*
D03*
X-8036D02*
D03*
X-33436D02*
D03*
X-58836D02*
D03*
X-185836D02*
D03*
X-109636Y242700D02*
D03*
X-135036D02*
D03*
X-160436D02*
D03*
X-33436D02*
D03*
X17364D02*
D03*
X-8036D02*
D03*
X-58836D02*
D03*
X-84236D02*
D03*
X144364Y217300D02*
D03*
X169764D02*
D03*
X68164D02*
D03*
X118964D02*
D03*
X93564D02*
D03*
X245964D02*
D03*
X296764D02*
D03*
X271364D02*
D03*
X195164D02*
D03*
X220564D02*
D03*
X42764D02*
D03*
X144364Y242700D02*
D03*
X118964D02*
D03*
X42764D02*
D03*
X93564D02*
D03*
X68164D02*
D03*
X245964D02*
D03*
X296764D02*
D03*
X271364D02*
D03*
X169764D02*
D03*
X220564D02*
D03*
X195164D02*
D03*
D39*
X-185836D02*
D03*
D40*
X345464Y0D02*
D03*
X-234536D02*
D03*
Y230000D02*
D03*
X345464D02*
D03*
D41*
X1045000Y130000D02*
D03*
X0Y0D02*
D03*
X260000Y480000D02*
D03*
X995000D02*
D03*
D03*
X1485000D02*
D03*
X1485000Y130000D02*
D03*
X-230000Y480000D02*
D03*
X520000Y0D02*
D03*
Y230000D02*
D03*
D42*
X307587Y277742D02*
D03*
X144364D02*
D03*
D43*
X287835Y317260D02*
X290227Y319652D01*
X122260Y317260D02*
X287835D01*
X339872Y327272D02*
X397800Y385200D01*
X152140Y309640D02*
X290991D01*
X961912Y304412D02*
X969300Y311800D01*
X297304Y294400D02*
X299696Y296792D01*
X300460Y286780D02*
X302853Y289172D01*
X276900Y294400D02*
X297304D01*
X1334172Y289172D02*
X1350300Y305300D01*
X296540Y304412D02*
X961912D01*
X769532Y312032D02*
X778800Y321300D01*
X219822Y327272D02*
X339872D01*
X1149292Y296792D02*
X1159800Y307300D01*
X296780Y286780D02*
X300460D01*
X299696Y296792D02*
X1149292D01*
X290991Y309640D02*
X293384Y312032D01*
X290227Y319652D02*
X569652D01*
X588300Y338300D01*
X293384Y312032D02*
X769532D01*
X97380Y324880D02*
X217430D01*
X229520Y302020D02*
X294148D01*
X302853Y289172D02*
X1334172D01*
X294148Y302020D02*
X296540Y304412D01*
X217430Y324880D02*
X219822Y327272D01*
X245964Y263464D02*
X276900Y294400D01*
X195164Y267664D02*
X229520Y302020D01*
X271364Y261364D02*
X296780Y286780D01*
X35000Y332500D02*
X154600D01*
X207300Y385200D01*
X118964Y276464D02*
X152140Y309640D01*
X68164Y295664D02*
X97380Y324880D01*
X17364Y314864D02*
X35000Y332500D01*
X93564Y288564D02*
X122260Y317260D01*
X271364Y243892D02*
Y261364D01*
X245964Y243892D02*
Y263464D01*
X778800Y321300D02*
Y385200D01*
X1159800Y307300D02*
Y385200D01*
X969300Y311800D02*
Y384800D01*
X195164Y243892D02*
Y267664D01*
X1350300Y305300D02*
Y385200D01*
X588300Y338300D02*
Y384800D01*
X118964Y243892D02*
Y276464D01*
X93564Y243892D02*
Y288564D01*
X17364Y243892D02*
Y314864D01*
X-162500Y330000D02*
X-87500D01*
X-57500Y300000D01*
Y245229D02*
Y300000D01*
X-173700Y341200D02*
X-162500Y330000D01*
X-173700Y341200D02*
Y385200D01*
X68164Y243892D02*
Y295664D01*
X-8036Y243892D02*
Y309464D01*
X16800Y334300D02*
Y385200D01*
X-8036Y309464D02*
X16800Y334300D01*
X-58836Y243892D02*
X-57500Y245229D01*
M02*
