G04*
G04 #@! TF.GenerationSoftware,Altium Limited,Altium Designer,22.7.1 (60)*
G04*
G04 Layer_Color=65535*
%FSLAX44Y44*%
%MOMM*%
G71*
G04*
G04 #@! TF.SameCoordinates,F6FBF88A-0173-4DF4-8E5B-E9623FF455CC*
G04*
G04*
G04 #@! TF.FilePolarity,Positive*
G04*
G01*
G75*
%ADD10C,0.2540*%
%ADD11C,0.1270*%
D10*
X-224500Y144000D02*
Y152500D01*
X-261000D02*
X-224500D01*
Y67500D02*
Y76000D01*
X-261000Y67500D02*
X-224500D01*
X20700Y132500D02*
Y152500D01*
X-21300Y132500D02*
X20700D01*
X-21300Y152500D02*
X20700D01*
X-21300Y132500D02*
Y152500D01*
X52764Y152000D02*
Y194000D01*
X32764Y152000D02*
X52764D01*
X32764D02*
Y194000D01*
X52764D01*
X1409400Y299800D02*
Y319800D01*
X1367400D02*
X1409400D01*
X1367400Y299800D02*
Y319800D01*
Y299800D02*
X1409400D01*
X1465900Y282300D02*
Y439800D01*
X1308400D02*
X1465900D01*
X1308400Y282300D02*
Y439800D01*
Y282300D02*
X1465900D01*
X103564Y152000D02*
Y194000D01*
X83564Y152000D02*
X103564D01*
X83564D02*
Y194000D01*
X103564D01*
X78164Y152000D02*
Y194000D01*
X58164Y152000D02*
X78164D01*
X58164D02*
Y194000D01*
X78164D01*
X-50600Y387800D02*
X-30600D01*
X-50600Y345800D02*
Y387800D01*
Y345800D02*
X-30600D01*
Y387800D01*
X139712D02*
X159712D01*
X139712Y345800D02*
Y387800D01*
Y345800D02*
X159712D01*
Y387800D01*
X330025D02*
X350025D01*
X330025Y345800D02*
Y387800D01*
Y345800D02*
X350025D01*
Y387800D01*
X520337D02*
X540337D01*
X520337Y345800D02*
Y387800D01*
Y345800D02*
X540337D01*
Y387800D01*
X710650D02*
X730650D01*
X710650Y345800D02*
Y387800D01*
Y345800D02*
X730650D01*
Y387800D01*
X900963D02*
X920963D01*
X900963Y345800D02*
Y387800D01*
Y345800D02*
X920963D01*
Y387800D01*
X1091275D02*
X1111275D01*
X1091275Y345800D02*
Y387800D01*
Y345800D02*
X1111275D01*
Y387800D01*
X1281588D02*
X1301588D01*
X1281588Y345800D02*
Y387800D01*
Y345800D02*
X1301588D01*
Y387800D01*
X1471900D02*
X1491900D01*
X1471900Y345800D02*
Y387800D01*
Y345800D02*
X1491900D01*
Y387800D01*
X20700Y92500D02*
Y112500D01*
X-21300Y92500D02*
X20700D01*
X-21300Y112500D02*
X20700D01*
X-21300Y92500D02*
Y112500D01*
X20700Y112500D02*
Y132500D01*
X-21300Y112500D02*
X20700D01*
X-21300Y132500D02*
X20700D01*
X-21300Y112500D02*
Y132500D01*
X-58100Y282300D02*
Y439800D01*
X-215600D02*
X-58100D01*
X-215600Y282300D02*
Y439800D01*
Y282300D02*
X-58100D01*
X132400D02*
Y439800D01*
X-25100D02*
X132400D01*
X-25100Y282300D02*
Y439800D01*
Y282300D02*
X132400D01*
X322900D02*
Y439800D01*
X165400D02*
X322900D01*
X165400Y282300D02*
Y439800D01*
Y282300D02*
X322900D01*
X513400D02*
Y439800D01*
X355900D02*
X513400D01*
X355900Y282300D02*
Y439800D01*
Y282300D02*
X513400D01*
X703900Y281900D02*
Y439400D01*
X546400D02*
X703900D01*
X546400Y281900D02*
Y439400D01*
Y281900D02*
X703900D01*
X894400Y282300D02*
Y439800D01*
X736900D02*
X894400D01*
X736900Y282300D02*
Y439800D01*
Y282300D02*
X894400D01*
X1084900Y281900D02*
Y439400D01*
X927400D02*
X1084900D01*
X927400Y281900D02*
Y439400D01*
Y281900D02*
X1084900D01*
X1275400Y282300D02*
Y439800D01*
X1117900D02*
X1275400D01*
X1117900Y282300D02*
Y439800D01*
Y282300D02*
X1275400D01*
X-114600Y299800D02*
Y319800D01*
X-156600D02*
X-114600D01*
X-156600Y299800D02*
Y319800D01*
Y299800D02*
X-114600D01*
X75900D02*
Y319800D01*
X33900D02*
X75900D01*
X33900Y299800D02*
Y319800D01*
Y299800D02*
X75900D01*
X266400D02*
Y319800D01*
X224400D02*
X266400D01*
X224400Y299800D02*
Y319800D01*
Y299800D02*
X266400D01*
X456900D02*
Y319800D01*
X414900D02*
X456900D01*
X414900Y299800D02*
Y319800D01*
Y299800D02*
X456900D01*
X647400D02*
Y319800D01*
X605400D02*
X647400D01*
X605400Y299800D02*
Y319800D01*
Y299800D02*
X647400D01*
X837900D02*
Y319800D01*
X795900D02*
X837900D01*
X795900Y299800D02*
Y319800D01*
Y299800D02*
X837900D01*
X1028400D02*
Y319800D01*
X986400D02*
X1028400D01*
X986400Y299800D02*
Y319800D01*
Y299800D02*
X1028400D01*
X1218900D02*
Y319800D01*
X1176900D02*
X1218900D01*
X1176900Y299800D02*
Y319800D01*
Y299800D02*
X1218900D01*
D11*
X-206348Y113809D02*
X-201270Y106191D01*
Y113809D02*
X-206348Y106191D01*
X-193652Y113809D02*
X-196191Y112539D01*
X-198730Y110000D01*
Y107461D01*
X-197461Y106191D01*
X-194922D01*
X-193652Y107461D01*
Y108730D01*
X-194922Y110000D01*
X-198730D01*
X-46822Y138891D02*
Y146509D01*
X-43013D01*
X-41743Y145239D01*
Y142700D01*
X-43013Y141431D01*
X-46822D01*
X-44283D02*
X-41743Y138891D01*
X-39204D02*
X-36665D01*
X-37935D01*
Y146509D01*
X-39204Y145239D01*
X-27778Y138891D02*
X-32856D01*
X-27778Y143970D01*
Y145239D01*
X-29048Y146509D01*
X-31587D01*
X-32856Y145239D01*
X46773Y144722D02*
X39155D01*
Y140913D01*
X40425Y139644D01*
X45503D01*
X46773Y140913D01*
Y144722D01*
X39155Y137105D02*
Y134565D01*
Y135835D01*
X46773D01*
X45503Y137105D01*
X39155Y125678D02*
Y130757D01*
X44233Y125678D01*
X45503D01*
X46773Y126948D01*
Y129487D01*
X45503Y130757D01*
X1414299Y313615D02*
Y305998D01*
X1418107D01*
X1419377Y307267D01*
Y312345D01*
X1418107Y313615D01*
X1414299D01*
X1421916Y307267D02*
X1423186Y305998D01*
X1425725D01*
X1426995Y307267D01*
Y312345D01*
X1425725Y313615D01*
X1423186D01*
X1421916Y312345D01*
Y311076D01*
X1423186Y309806D01*
X1426995D01*
X1439492Y455535D02*
X1438223Y456805D01*
X1435683D01*
X1434414Y455535D01*
Y454266D01*
X1435683Y452996D01*
X1438223D01*
X1439492Y451726D01*
Y450457D01*
X1438223Y449187D01*
X1435683D01*
X1434414Y450457D01*
X1442031Y456805D02*
Y449187D01*
X1444571Y451726D01*
X1447110Y449187D01*
Y456805D01*
X1449649Y450457D02*
X1450918Y449187D01*
X1453458D01*
X1454727Y450457D01*
Y455535D01*
X1453458Y456805D01*
X1450918D01*
X1449649Y455535D01*
Y454266D01*
X1450918Y452996D01*
X1454727D01*
X96773Y144722D02*
X89155D01*
Y140913D01*
X90425Y139644D01*
X95503D01*
X96773Y140913D01*
Y144722D01*
X89155Y137105D02*
Y134565D01*
Y135835D01*
X96773D01*
X95503Y137105D01*
Y130757D02*
X96773Y129487D01*
Y126948D01*
X95503Y125678D01*
X90425D01*
X89155Y126948D01*
Y129487D01*
X90425Y130757D01*
X95503D01*
X71773Y144722D02*
X64155D01*
Y140913D01*
X65425Y139644D01*
X70503D01*
X71773Y140913D01*
Y144722D01*
X64155Y137105D02*
Y134565D01*
Y135835D01*
X71773D01*
X70503Y137105D01*
X64155Y130757D02*
Y128217D01*
Y129487D01*
X71773D01*
X70503Y130757D01*
X-36191Y392422D02*
X-43809D01*
Y396230D01*
X-42539Y397500D01*
X-40000D01*
X-38730Y396230D01*
Y392422D01*
Y394961D02*
X-36191Y397500D01*
Y400039D02*
Y402578D01*
Y401309D01*
X-43809D01*
X-42539Y400039D01*
X153809Y393652D02*
X146191D01*
Y397461D01*
X147461Y398730D01*
X150000D01*
X151270Y397461D01*
Y393652D01*
Y396191D02*
X153809Y398730D01*
Y406348D02*
Y401270D01*
X148730Y406348D01*
X147461D01*
X146191Y405078D01*
Y402539D01*
X147461Y401270D01*
X343809Y393652D02*
X336191D01*
Y397461D01*
X337461Y398730D01*
X340000D01*
X341270Y397461D01*
Y393652D01*
Y396191D02*
X343809Y398730D01*
X337461Y401270D02*
X336191Y402539D01*
Y405078D01*
X337461Y406348D01*
X338730D01*
X340000Y405078D01*
Y403809D01*
Y405078D01*
X341270Y406348D01*
X342539D01*
X343809Y405078D01*
Y402539D01*
X342539Y401270D01*
X533809Y393652D02*
X526191D01*
Y397461D01*
X527461Y398730D01*
X530000D01*
X531269Y397461D01*
Y393652D01*
Y396191D02*
X533809Y398730D01*
Y405078D02*
X526191D01*
X530000Y401270D01*
Y406348D01*
X723809Y393652D02*
X716191D01*
Y397461D01*
X717461Y398730D01*
X720000D01*
X721270Y397461D01*
Y393652D01*
Y396191D02*
X723809Y398730D01*
X716191Y406348D02*
Y401270D01*
X720000D01*
X718730Y403809D01*
Y405078D01*
X720000Y406348D01*
X722539D01*
X723809Y405078D01*
Y402539D01*
X722539Y401270D01*
X913809Y393652D02*
X906191D01*
Y397461D01*
X907461Y398730D01*
X910000D01*
X911270Y397461D01*
Y393652D01*
Y396191D02*
X913809Y398730D01*
X906191Y406348D02*
X907461Y403809D01*
X910000Y401270D01*
X912539D01*
X913809Y402539D01*
Y405078D01*
X912539Y406348D01*
X911270D01*
X910000Y405078D01*
Y401270D01*
X1106309Y393652D02*
X1098691D01*
Y397461D01*
X1099961Y398730D01*
X1102500D01*
X1103770Y397461D01*
Y393652D01*
Y396191D02*
X1106309Y398730D01*
X1098691Y401270D02*
Y406348D01*
X1099961D01*
X1105039Y401270D01*
X1106309D01*
X1296309Y393652D02*
X1288691D01*
Y397461D01*
X1289961Y398730D01*
X1292500D01*
X1293770Y397461D01*
Y393652D01*
Y396191D02*
X1296309Y398730D01*
X1289961Y401270D02*
X1288691Y402539D01*
Y405078D01*
X1289961Y406348D01*
X1291230D01*
X1292500Y405078D01*
X1293770Y406348D01*
X1295039D01*
X1296309Y405078D01*
Y402539D01*
X1295039Y401270D01*
X1293770D01*
X1292500Y402539D01*
X1291230Y401270D01*
X1289961D01*
X1292500Y402539D02*
Y405078D01*
X1486309Y393652D02*
X1478691D01*
Y397461D01*
X1479961Y398730D01*
X1482500D01*
X1483770Y397461D01*
Y393652D01*
Y396191D02*
X1486309Y398730D01*
X1485039Y401270D02*
X1486309Y402539D01*
Y405078D01*
X1485039Y406348D01*
X1479961D01*
X1478691Y405078D01*
Y402539D01*
X1479961Y401270D01*
X1481230D01*
X1482500Y402539D01*
Y406348D01*
X-46822Y98891D02*
Y106509D01*
X-43013D01*
X-41743Y105239D01*
Y102700D01*
X-43013Y101431D01*
X-46822D01*
X-44283D02*
X-41743Y98891D01*
X-39204D02*
X-36665D01*
X-37935D01*
Y106509D01*
X-39204Y105239D01*
X-32856D02*
X-31587Y106509D01*
X-29048D01*
X-27778Y105239D01*
Y100161D01*
X-29048Y98891D01*
X-31587D01*
X-32856Y100161D01*
Y105239D01*
X-46822Y118891D02*
Y126509D01*
X-43013D01*
X-41743Y125239D01*
Y122700D01*
X-43013Y121431D01*
X-46822D01*
X-44283D02*
X-41743Y118891D01*
X-39204D02*
X-36665D01*
X-37935D01*
Y126509D01*
X-39204Y125239D01*
X-32856Y118891D02*
X-30317D01*
X-31587D01*
Y126509D01*
X-32856Y125239D01*
X-78809Y455535D02*
X-80078Y456805D01*
X-82618D01*
X-83887Y455535D01*
Y454266D01*
X-82618Y452996D01*
X-80078D01*
X-78809Y451726D01*
Y450457D01*
X-80078Y449187D01*
X-82618D01*
X-83887Y450457D01*
X-76270Y456805D02*
Y449187D01*
X-73730Y451726D01*
X-71191Y449187D01*
Y456805D01*
X-68652Y449187D02*
X-66113D01*
X-67382D01*
Y456805D01*
X-68652Y455535D01*
X105461D02*
X104191Y456805D01*
X101652D01*
X100383Y455535D01*
Y454266D01*
X101652Y452996D01*
X104191D01*
X105461Y451726D01*
Y450457D01*
X104191Y449187D01*
X101652D01*
X100383Y450457D01*
X108000Y456805D02*
Y449187D01*
X110539Y451726D01*
X113078Y449187D01*
Y456805D01*
X120696Y449187D02*
X115618D01*
X120696Y454266D01*
Y455535D01*
X119426Y456805D01*
X116887D01*
X115618Y455535D01*
X296379D02*
X295110Y456805D01*
X292570D01*
X291301Y455535D01*
Y454266D01*
X292570Y452996D01*
X295110D01*
X296379Y451726D01*
Y450457D01*
X295110Y449187D01*
X292570D01*
X291301Y450457D01*
X298918Y456805D02*
Y449187D01*
X301458Y451726D01*
X303997Y449187D01*
Y456805D01*
X306536Y455535D02*
X307806Y456805D01*
X310345D01*
X311614Y455535D01*
Y454266D01*
X310345Y452996D01*
X309075D01*
X310345D01*
X311614Y451726D01*
Y450457D01*
X310345Y449187D01*
X307806D01*
X306536Y450457D01*
X490093Y455535D02*
X488824Y456805D01*
X486284D01*
X485015Y455535D01*
Y454266D01*
X486284Y452996D01*
X488824D01*
X490093Y451726D01*
Y450457D01*
X488824Y449187D01*
X486284D01*
X485015Y450457D01*
X492632Y456805D02*
Y449187D01*
X495172Y451726D01*
X497711Y449187D01*
Y456805D01*
X504059Y449187D02*
Y456805D01*
X500250Y452996D01*
X505328D01*
X678615Y455535D02*
X677346Y456805D01*
X674806D01*
X673537Y455535D01*
Y454266D01*
X674806Y452996D01*
X677346D01*
X678615Y451726D01*
Y450457D01*
X677346Y449187D01*
X674806D01*
X673537Y450457D01*
X681154Y456805D02*
Y449187D01*
X683693Y451726D01*
X686233Y449187D01*
Y456805D01*
X693850D02*
X688772D01*
Y452996D01*
X691311Y454266D01*
X692581D01*
X693850Y452996D01*
Y450457D01*
X692581Y449187D01*
X690041D01*
X688772Y450457D01*
X868335Y455535D02*
X867065Y456805D01*
X864526D01*
X863257Y455535D01*
Y454266D01*
X864526Y452996D01*
X867065D01*
X868335Y451726D01*
Y450457D01*
X867065Y449187D01*
X864526D01*
X863257Y450457D01*
X870874Y456805D02*
Y449187D01*
X873413Y451726D01*
X875952Y449187D01*
Y456805D01*
X883570D02*
X881031Y455535D01*
X878492Y452996D01*
Y450457D01*
X879761Y449187D01*
X882300D01*
X883570Y450457D01*
Y451726D01*
X882300Y452996D01*
X878492D01*
X1062049Y455535D02*
X1060779Y456805D01*
X1058240D01*
X1056970Y455535D01*
Y454266D01*
X1058240Y452996D01*
X1060779D01*
X1062049Y451726D01*
Y450457D01*
X1060779Y449187D01*
X1058240D01*
X1056970Y450457D01*
X1064588Y456805D02*
Y449187D01*
X1067127Y451726D01*
X1069666Y449187D01*
Y456805D01*
X1072206D02*
X1077284D01*
Y455535D01*
X1072206Y450457D01*
Y449187D01*
X1248973Y455535D02*
X1247704Y456805D01*
X1245165D01*
X1243895Y455535D01*
Y454266D01*
X1245165Y452996D01*
X1247704D01*
X1248973Y451726D01*
Y450457D01*
X1247704Y449187D01*
X1245165D01*
X1243895Y450457D01*
X1251513Y456805D02*
Y449187D01*
X1254052Y451726D01*
X1256591Y449187D01*
Y456805D01*
X1259130Y455535D02*
X1260400Y456805D01*
X1262939D01*
X1264208Y455535D01*
Y454266D01*
X1262939Y452996D01*
X1264208Y451726D01*
Y450457D01*
X1262939Y449187D01*
X1260400D01*
X1259130Y450457D01*
Y451726D01*
X1260400Y452996D01*
X1259130Y454266D01*
Y455535D01*
X1260400Y452996D02*
X1262939D01*
X-109420Y314217D02*
Y306599D01*
X-105612D01*
X-104342Y307869D01*
Y312947D01*
X-105612Y314217D01*
X-109420D01*
X-101803Y306599D02*
X-99264D01*
X-100533D01*
Y314217D01*
X-101803Y312947D01*
X81181Y313615D02*
Y305998D01*
X84990D01*
X86260Y307267D01*
Y312345D01*
X84990Y313615D01*
X81181D01*
X93877Y305998D02*
X88799D01*
X93877Y311076D01*
Y312345D01*
X92608Y313615D01*
X90069D01*
X88799Y312345D01*
X271369Y313495D02*
Y305877D01*
X275178D01*
X276447Y307147D01*
Y312225D01*
X275178Y313495D01*
X271369D01*
X278986Y312225D02*
X280256Y313495D01*
X282795D01*
X284065Y312225D01*
Y310955D01*
X282795Y309686D01*
X281526D01*
X282795D01*
X284065Y308416D01*
Y307147D01*
X282795Y305877D01*
X280256D01*
X278986Y307147D01*
X462519Y313615D02*
Y305998D01*
X466328D01*
X467597Y307267D01*
Y312345D01*
X466328Y313615D01*
X462519D01*
X473945Y305998D02*
Y313615D01*
X470136Y309806D01*
X475215D01*
X653652Y313809D02*
Y306191D01*
X657461D01*
X658730Y307461D01*
Y312539D01*
X657461Y313809D01*
X653652D01*
X666348D02*
X661270D01*
Y310000D01*
X663809Y311270D01*
X665078D01*
X666348Y310000D01*
Y307461D01*
X665078Y306191D01*
X662539D01*
X661270Y307461D01*
X843652Y313809D02*
Y306191D01*
X847461D01*
X848730Y307461D01*
Y312539D01*
X847461Y313809D01*
X843652D01*
X856348D02*
X853809Y312539D01*
X851270Y310000D01*
Y307461D01*
X852539Y306191D01*
X855078D01*
X856348Y307461D01*
Y308730D01*
X855078Y310000D01*
X851270D01*
X1033652Y313809D02*
Y306191D01*
X1037461D01*
X1038730Y307461D01*
Y312539D01*
X1037461Y313809D01*
X1033652D01*
X1041270D02*
X1046348D01*
Y312539D01*
X1041270Y307461D01*
Y306191D01*
X1223652Y313809D02*
Y306191D01*
X1227461D01*
X1228730Y307461D01*
Y312539D01*
X1227461Y313809D01*
X1223652D01*
X1231270Y312539D02*
X1232539Y313809D01*
X1235078D01*
X1236348Y312539D01*
Y311270D01*
X1235078Y310000D01*
X1236348Y308730D01*
Y307461D01*
X1235078Y306191D01*
X1232539D01*
X1231270Y307461D01*
Y308730D01*
X1232539Y310000D01*
X1231270Y311270D01*
Y312539D01*
X1232539Y310000D02*
X1235078D01*
M02*
