G04*
G04 #@! TF.GenerationSoftware,Altium Limited,Altium Designer,22.7.1 (60)*
G04*
G04 Layer_Physical_Order=1*
G04 Layer_Color=255*
%FSLAX44Y44*%
%MOMM*%
G71*
G04*
G04 #@! TF.SameCoordinates,0A996CFD-5D83-4EBB-BB3C-5C692C2B60A0*
G04*
G04*
G04 #@! TF.FilePolarity,Positive*
G04*
G01*
G75*
%ADD12R,1.6000X0.9000*%
%ADD13R,1.3500X0.4000*%
%ADD14R,1.5500X1.5000*%
%ADD15R,0.9000X1.6000*%
%ADD30C,0.7620*%
%ADD31C,0.3810*%
%ADD32C,0.3048*%
%ADD33R,1.8000X1.8000*%
%ADD34R,1.8000X1.8000*%
G04:AMPARAMS|DCode=35|XSize=1.25mm|YSize=0.95mm|CornerRadius=0.4275mm|HoleSize=0mm|Usage=FLASHONLY|Rotation=270.000|XOffset=0mm|YOffset=0mm|HoleType=Round|Shape=RoundedRectangle|*
%AMROUNDEDRECTD35*
21,1,1.2500,0.0950,0,0,270.0*
21,1,0.3950,0.9500,0,0,270.0*
1,1,0.8550,-0.0475,-0.1975*
1,1,0.8550,-0.0475,0.1975*
1,1,0.8550,0.0475,0.1975*
1,1,0.8550,0.0475,-0.1975*
%
%ADD35ROUNDEDRECTD35*%
G04:AMPARAMS|DCode=36|XSize=1.55mm|YSize=1.8mm|CornerRadius=0.5425mm|HoleSize=0mm|Usage=FLASHONLY|Rotation=0.000|XOffset=0mm|YOffset=0mm|HoleType=Round|Shape=RoundedRectangle|*
%AMROUNDEDRECTD36*
21,1,1.5500,0.7150,0,0,0.0*
21,1,0.4650,1.8000,0,0,0.0*
1,1,1.0850,0.2325,-0.3575*
1,1,1.0850,-0.2325,-0.3575*
1,1,1.0850,-0.2325,0.3575*
1,1,1.0850,0.2325,0.3575*
%
%ADD36ROUNDEDRECTD36*%
%ADD37R,3.0000X3.0000*%
%ADD38R,2.5000X2.5000*%
%ADD39C,4.3000*%
%ADD40C,4.5000*%
%ADD41C,4.0000*%
%ADD42C,1.2700*%
G36*
X1520000Y-35000D02*
X-270000D01*
Y510000D01*
X1520000D01*
Y-35000D01*
D02*
G37*
%LPC*%
G36*
X262540Y502476D02*
Y482540D01*
X282476D01*
X281674Y486575D01*
X279975Y490677D01*
X277508Y494368D01*
X274368Y497508D01*
X270677Y499975D01*
X266575Y501674D01*
X262540Y502476D01*
D02*
G37*
G36*
X-227460D02*
Y482540D01*
X-207524D01*
X-208326Y486575D01*
X-210025Y490677D01*
X-212492Y494368D01*
X-215632Y497508D01*
X-219323Y499975D01*
X-223425Y501674D01*
X-227460Y502476D01*
D02*
G37*
G36*
X997540Y502476D02*
Y482540D01*
X1017476D01*
X1016674Y486575D01*
X1014975Y490677D01*
X1012508Y494368D01*
X1009368Y497508D01*
X1005677Y499975D01*
X1001575Y501674D01*
X997540Y502476D01*
D02*
G37*
G36*
X1487540Y502476D02*
Y482540D01*
X1507476D01*
X1506674Y486575D01*
X1504975Y490677D01*
X1502508Y494368D01*
X1499368Y497508D01*
X1495677Y499975D01*
X1491575Y501674D01*
X1487540Y502476D01*
D02*
G37*
G36*
X1482460Y502476D02*
X1478425Y501674D01*
X1474323Y499975D01*
X1470632Y497508D01*
X1467492Y494368D01*
X1465025Y490677D01*
X1463326Y486575D01*
X1462524Y482540D01*
X1482460D01*
Y502476D01*
D02*
G37*
G36*
X992460Y502476D02*
X988425Y501674D01*
X984323Y499975D01*
X980632Y497508D01*
X977492Y494368D01*
X975025Y490677D01*
X973326Y486575D01*
X972524Y482540D01*
X992460D01*
Y502476D01*
D02*
G37*
G36*
X-232540Y502476D02*
X-236575Y501674D01*
X-240677Y499975D01*
X-244368Y497508D01*
X-247508Y494368D01*
X-249975Y490677D01*
X-251674Y486575D01*
X-252476Y482540D01*
X-232540D01*
Y502476D01*
D02*
G37*
G36*
X257460D02*
X253425Y501674D01*
X249323Y499975D01*
X245632Y497508D01*
X242492Y494368D01*
X240025Y490677D01*
X238326Y486575D01*
X237524Y482540D01*
X257460D01*
Y502476D01*
D02*
G37*
G36*
X1482460Y477460D02*
X1462524D01*
X1463326Y473425D01*
X1465025Y469323D01*
X1467492Y465632D01*
X1470632Y462492D01*
X1474323Y460025D01*
X1478425Y458326D01*
X1482460Y457524D01*
Y477460D01*
D02*
G37*
G36*
X992460D02*
X972524D01*
X973326Y473425D01*
X975025Y469323D01*
X977492Y465632D01*
X980632Y462492D01*
X984323Y460025D01*
X988425Y458326D01*
X992460Y457524D01*
Y477460D01*
D02*
G37*
G36*
X282476D02*
X262540D01*
Y457524D01*
X266575Y458326D01*
X270677Y460025D01*
X274368Y462492D01*
X277508Y465632D01*
X279975Y469323D01*
X281674Y473425D01*
X282476Y477460D01*
D02*
G37*
G36*
X-207524D02*
X-227460D01*
Y457524D01*
X-223425Y458326D01*
X-219323Y460025D01*
X-215632Y462492D01*
X-212492Y465632D01*
X-210025Y469323D01*
X-208326Y473425D01*
X-207524Y477460D01*
D02*
G37*
G36*
X-232540D02*
X-252476D01*
X-251674Y473425D01*
X-249975Y469323D01*
X-247508Y465632D01*
X-244368Y462492D01*
X-240677Y460025D01*
X-236575Y458326D01*
X-232540Y457524D01*
Y477460D01*
D02*
G37*
G36*
X257460D02*
X237524D01*
X238326Y473425D01*
X240025Y469323D01*
X242492Y465632D01*
X245632Y462492D01*
X249323Y460025D01*
X253425Y458326D01*
X257460Y457524D01*
Y477460D01*
D02*
G37*
G36*
X1017476D02*
X997540D01*
Y457524D01*
X1001575Y458326D01*
X1005677Y460025D01*
X1009368Y462492D01*
X1012508Y465632D01*
X1014975Y469323D01*
X1016674Y473425D01*
X1017476Y477460D01*
D02*
G37*
G36*
X1507476D02*
X1487540D01*
Y457524D01*
X1491575Y458326D01*
X1495677Y460025D01*
X1499368Y462492D01*
X1502508Y465632D01*
X1504975Y469323D01*
X1506674Y473425D01*
X1507476Y477460D01*
D02*
G37*
G36*
X1428840Y425640D02*
X1416340D01*
Y413140D01*
X1428840D01*
Y425640D01*
D02*
G37*
G36*
X1411260D02*
X1398760D01*
Y413140D01*
X1411260D01*
Y425640D01*
D02*
G37*
G36*
X1238340D02*
X1225840D01*
Y413140D01*
X1238340D01*
Y425640D01*
D02*
G37*
G36*
X1220760D02*
X1208260D01*
Y413140D01*
X1220760D01*
Y425640D01*
D02*
G37*
G36*
X857340D02*
X844840D01*
Y413140D01*
X857340D01*
Y425640D01*
D02*
G37*
G36*
X839760D02*
X827260D01*
Y413140D01*
X839760D01*
Y425640D01*
D02*
G37*
G36*
X476340D02*
X463840D01*
Y413140D01*
X476340D01*
Y425640D01*
D02*
G37*
G36*
X458760D02*
X446260D01*
Y413140D01*
X458760D01*
Y425640D01*
D02*
G37*
G36*
X285840D02*
X273340D01*
Y413140D01*
X285840D01*
Y425640D01*
D02*
G37*
G36*
X268260D02*
X255760D01*
Y413140D01*
X268260D01*
Y425640D01*
D02*
G37*
G36*
X95340D02*
X82840D01*
Y413140D01*
X95340D01*
Y425640D01*
D02*
G37*
G36*
X77760D02*
X65260D01*
Y413140D01*
X77760D01*
Y425640D01*
D02*
G37*
G36*
X-95160D02*
X-107660D01*
Y413140D01*
X-95160D01*
Y425640D01*
D02*
G37*
G36*
X-112740D02*
X-125240D01*
Y413140D01*
X-112740D01*
Y425640D01*
D02*
G37*
G36*
X1047840Y425240D02*
X1035340D01*
Y412740D01*
X1047840D01*
Y425240D01*
D02*
G37*
G36*
X1030260D02*
X1017760D01*
Y412740D01*
X1030260D01*
Y425240D01*
D02*
G37*
G36*
X666840D02*
X654340D01*
Y412740D01*
X666840D01*
Y425240D01*
D02*
G37*
G36*
X649260D02*
X636760D01*
Y412740D01*
X649260D01*
Y425240D01*
D02*
G37*
G36*
X1428840Y408060D02*
X1416340D01*
Y395560D01*
X1428840D01*
Y408060D01*
D02*
G37*
G36*
X1411260D02*
X1398760D01*
Y395560D01*
X1411260D01*
Y408060D01*
D02*
G37*
G36*
X1238340D02*
X1225840D01*
Y395560D01*
X1238340D01*
Y408060D01*
D02*
G37*
G36*
X1220760D02*
X1208260D01*
Y395560D01*
X1220760D01*
Y408060D01*
D02*
G37*
G36*
X857340D02*
X844840D01*
Y395560D01*
X857340D01*
Y408060D01*
D02*
G37*
G36*
X839760D02*
X827260D01*
Y395560D01*
X839760D01*
Y408060D01*
D02*
G37*
G36*
X476340D02*
X463840D01*
Y395560D01*
X476340D01*
Y408060D01*
D02*
G37*
G36*
X458760D02*
X446260D01*
Y395560D01*
X458760D01*
Y408060D01*
D02*
G37*
G36*
X285840D02*
X273340D01*
Y395560D01*
X285840D01*
Y408060D01*
D02*
G37*
G36*
X268260D02*
X255760D01*
Y395560D01*
X268260D01*
Y408060D01*
D02*
G37*
G36*
X95340D02*
X82840D01*
Y395560D01*
X95340D01*
Y408060D01*
D02*
G37*
G36*
X77760D02*
X65260D01*
Y395560D01*
X77760D01*
Y408060D01*
D02*
G37*
G36*
X-95160D02*
X-107660D01*
Y395560D01*
X-95160D01*
Y408060D01*
D02*
G37*
G36*
X-112740D02*
X-125240D01*
Y395560D01*
X-112740D01*
Y408060D01*
D02*
G37*
G36*
X1047840Y407660D02*
X1035340D01*
Y395160D01*
X1047840D01*
Y407660D01*
D02*
G37*
G36*
X1030260D02*
X1017760D01*
Y395160D01*
X1030260D01*
Y407660D01*
D02*
G37*
G36*
X666840D02*
X654340D01*
Y395160D01*
X666840D01*
Y407660D01*
D02*
G37*
G36*
X649260D02*
X636760D01*
Y395160D01*
X649260D01*
Y407660D01*
D02*
G37*
G36*
X1492440Y388340D02*
X1484440D01*
Y383840D01*
X1492440D01*
Y388340D01*
D02*
G37*
G36*
X1479360D02*
X1471360D01*
Y383840D01*
X1479360D01*
Y388340D01*
D02*
G37*
G36*
X160252D02*
X152253D01*
Y383840D01*
X160252D01*
Y388340D01*
D02*
G37*
G36*
X1302127D02*
X1294128D01*
Y383840D01*
X1302127D01*
Y388340D01*
D02*
G37*
G36*
X921502D02*
X913503D01*
Y383840D01*
X921502D01*
Y388340D01*
D02*
G37*
G36*
X540877D02*
X532878D01*
Y383840D01*
X540877D01*
Y388340D01*
D02*
G37*
G36*
X147172D02*
X139172D01*
Y383840D01*
X147172D01*
Y388340D01*
D02*
G37*
G36*
X908422D02*
X900423D01*
Y383840D01*
X908422D01*
Y388340D01*
D02*
G37*
G36*
X1289048D02*
X1281048D01*
Y383840D01*
X1289048D01*
Y388340D01*
D02*
G37*
G36*
X527798D02*
X519798D01*
Y383840D01*
X527798D01*
Y388340D01*
D02*
G37*
G36*
X-30060D02*
X-38060D01*
Y383840D01*
X-30060D01*
Y388340D01*
D02*
G37*
G36*
X-43140D02*
X-51140D01*
Y383840D01*
X-43140D01*
Y388340D01*
D02*
G37*
G36*
X350565D02*
X342565D01*
Y383840D01*
X350565D01*
Y388340D01*
D02*
G37*
G36*
X1111815D02*
X1103815D01*
Y383840D01*
X1111815D01*
Y388340D01*
D02*
G37*
G36*
X731190D02*
X723190D01*
Y383840D01*
X731190D01*
Y388340D01*
D02*
G37*
G36*
X337485D02*
X329485D01*
Y383840D01*
X337485D01*
Y388340D01*
D02*
G37*
G36*
X718110D02*
X710110D01*
Y383840D01*
X718110D01*
Y388340D01*
D02*
G37*
G36*
X1098735D02*
X1090735D01*
Y383840D01*
X1098735D01*
Y388340D01*
D02*
G37*
G36*
X1492440Y378760D02*
X1484440D01*
Y374260D01*
X1492440D01*
Y378760D01*
D02*
G37*
G36*
X1479360D02*
X1471360D01*
Y374260D01*
X1479360D01*
Y378760D01*
D02*
G37*
G36*
X1302127Y378760D02*
X1294128D01*
Y374260D01*
X1302127D01*
Y378760D01*
D02*
G37*
G36*
X1289048D02*
X1281048D01*
Y374260D01*
X1289048D01*
Y378760D01*
D02*
G37*
G36*
X1111815Y378760D02*
X1103815D01*
Y374260D01*
X1111815D01*
Y378760D01*
D02*
G37*
G36*
X1098735D02*
X1090735D01*
Y374260D01*
X1098735D01*
Y378760D01*
D02*
G37*
G36*
X921502Y378760D02*
X913503D01*
Y374260D01*
X921502D01*
Y378760D01*
D02*
G37*
G36*
X908422D02*
X900423D01*
Y374260D01*
X908422D01*
Y378760D01*
D02*
G37*
G36*
X731190Y378760D02*
X723190D01*
Y374260D01*
X731190D01*
Y378760D01*
D02*
G37*
G36*
X718110D02*
X710110D01*
Y374260D01*
X718110D01*
Y378760D01*
D02*
G37*
G36*
X540877Y378760D02*
X532878D01*
Y374260D01*
X540877D01*
Y378760D01*
D02*
G37*
G36*
X527798D02*
X519798D01*
Y374260D01*
X527798D01*
Y378760D01*
D02*
G37*
G36*
X350565Y378760D02*
X342565D01*
Y374260D01*
X350565D01*
Y378760D01*
D02*
G37*
G36*
X337485D02*
X329485D01*
Y374260D01*
X337485D01*
Y378760D01*
D02*
G37*
G36*
X160252Y378760D02*
X152253D01*
Y374260D01*
X160252D01*
Y378760D01*
D02*
G37*
G36*
X147172D02*
X139172D01*
Y374260D01*
X147172D01*
Y378760D01*
D02*
G37*
G36*
X-30060Y378760D02*
X-38060D01*
Y374260D01*
X-30060D01*
Y378760D01*
D02*
G37*
G36*
X-43140D02*
X-51140D01*
Y374260D01*
X-43140D01*
Y378760D01*
D02*
G37*
G36*
X1365340Y400240D02*
X1335260D01*
Y370160D01*
X1365340D01*
Y400240D01*
D02*
G37*
G36*
X1174840D02*
X1144760D01*
Y370160D01*
X1174840D01*
Y400240D01*
D02*
G37*
G36*
X793840D02*
X763760D01*
Y370160D01*
X793840D01*
Y400240D01*
D02*
G37*
G36*
X412840D02*
X382760D01*
Y370160D01*
X412840D01*
Y400240D01*
D02*
G37*
G36*
X222340D02*
X192260D01*
Y370160D01*
X222340D01*
Y400240D01*
D02*
G37*
G36*
X31840D02*
X1760D01*
Y370160D01*
X31840D01*
Y400240D01*
D02*
G37*
G36*
X-158660D02*
X-188740D01*
Y370160D01*
X-158660D01*
Y400240D01*
D02*
G37*
G36*
X984340Y399840D02*
X954260D01*
Y369760D01*
X984340D01*
Y399840D01*
D02*
G37*
G36*
X603340D02*
X573260D01*
Y369760D01*
X603340D01*
Y399840D01*
D02*
G37*
G36*
X1390940Y383806D02*
Y362340D01*
X1412406D01*
X1411516Y366812D01*
X1409704Y371187D01*
X1407073Y375125D01*
X1403725Y378473D01*
X1399787Y381104D01*
X1395412Y382916D01*
X1390940Y383806D01*
D02*
G37*
G36*
X1385860D02*
X1381388Y382916D01*
X1377013Y381104D01*
X1373075Y378473D01*
X1369727Y375125D01*
X1367096Y371187D01*
X1365284Y366812D01*
X1364394Y362340D01*
X1385860D01*
Y383806D01*
D02*
G37*
G36*
X1200440D02*
Y362340D01*
X1221906D01*
X1221016Y366812D01*
X1219204Y371187D01*
X1216573Y375125D01*
X1213224Y378473D01*
X1209287Y381104D01*
X1204912Y382916D01*
X1200440Y383806D01*
D02*
G37*
G36*
X1195360D02*
X1190888Y382916D01*
X1186513Y381104D01*
X1182575Y378473D01*
X1179227Y375125D01*
X1176596Y371187D01*
X1174784Y366812D01*
X1173894Y362340D01*
X1195360D01*
Y383806D01*
D02*
G37*
G36*
X819440D02*
Y362340D01*
X840906D01*
X840016Y366812D01*
X838204Y371187D01*
X835573Y375125D01*
X832225Y378473D01*
X828287Y381104D01*
X823912Y382916D01*
X819440Y383806D01*
D02*
G37*
G36*
X814360D02*
X809888Y382916D01*
X805513Y381104D01*
X801575Y378473D01*
X798227Y375125D01*
X795596Y371187D01*
X793784Y366812D01*
X792894Y362340D01*
X814360D01*
Y383806D01*
D02*
G37*
G36*
X438440D02*
Y362340D01*
X459906D01*
X459016Y366812D01*
X457204Y371187D01*
X454573Y375125D01*
X451225Y378473D01*
X447287Y381104D01*
X442912Y382916D01*
X438440Y383806D01*
D02*
G37*
G36*
X433360D02*
X428888Y382916D01*
X424513Y381104D01*
X420575Y378473D01*
X417227Y375125D01*
X414596Y371187D01*
X412784Y366812D01*
X411894Y362340D01*
X433360D01*
Y383806D01*
D02*
G37*
G36*
X247940D02*
Y362340D01*
X269406D01*
X268516Y366812D01*
X266704Y371187D01*
X264073Y375125D01*
X260725Y378473D01*
X256787Y381104D01*
X252412Y382916D01*
X247940Y383806D01*
D02*
G37*
G36*
X242860D02*
X238388Y382916D01*
X234013Y381104D01*
X230075Y378473D01*
X226727Y375125D01*
X224096Y371187D01*
X222284Y366812D01*
X221394Y362340D01*
X242860D01*
Y383806D01*
D02*
G37*
G36*
X57440D02*
Y362340D01*
X78906D01*
X78016Y366812D01*
X76204Y371187D01*
X73573Y375125D01*
X70224Y378473D01*
X66287Y381104D01*
X61912Y382916D01*
X57440Y383806D01*
D02*
G37*
G36*
X52360D02*
X47888Y382916D01*
X43513Y381104D01*
X39575Y378473D01*
X36227Y375125D01*
X33596Y371187D01*
X31784Y366812D01*
X30894Y362340D01*
X52360D01*
Y383806D01*
D02*
G37*
G36*
X-133060D02*
Y362340D01*
X-111594D01*
X-112484Y366812D01*
X-114296Y371187D01*
X-116927Y375125D01*
X-120275Y378473D01*
X-124213Y381104D01*
X-128588Y382916D01*
X-133060Y383806D01*
D02*
G37*
G36*
X-138140D02*
X-142612Y382916D01*
X-146987Y381104D01*
X-150925Y378473D01*
X-154273Y375125D01*
X-156904Y371187D01*
X-158716Y366812D01*
X-159606Y362340D01*
X-138140D01*
Y383806D01*
D02*
G37*
G36*
X1009940Y383406D02*
Y361940D01*
X1031406D01*
X1030516Y366412D01*
X1028704Y370787D01*
X1026073Y374725D01*
X1022725Y378073D01*
X1018787Y380704D01*
X1014412Y382516D01*
X1009940Y383406D01*
D02*
G37*
G36*
X1004860D02*
X1000388Y382516D01*
X996013Y380704D01*
X992075Y378073D01*
X988727Y374725D01*
X986096Y370787D01*
X984284Y366412D01*
X983394Y361940D01*
X1004860D01*
Y383406D01*
D02*
G37*
G36*
X628940D02*
Y361940D01*
X650406D01*
X649516Y366412D01*
X647704Y370787D01*
X645073Y374725D01*
X641724Y378073D01*
X637787Y380704D01*
X633412Y382516D01*
X628940Y383406D01*
D02*
G37*
G36*
X623860D02*
X619388Y382516D01*
X615013Y380704D01*
X611075Y378073D01*
X607727Y374725D01*
X605096Y370787D01*
X603284Y366412D01*
X602394Y361940D01*
X623860D01*
Y383406D01*
D02*
G37*
G36*
X1412406Y357260D02*
X1390940D01*
Y335794D01*
X1395412Y336684D01*
X1399787Y338496D01*
X1403725Y341127D01*
X1407073Y344475D01*
X1409704Y348413D01*
X1411516Y352788D01*
X1412406Y357260D01*
D02*
G37*
G36*
X1385860D02*
X1364394D01*
X1365284Y352788D01*
X1367096Y348413D01*
X1369727Y344475D01*
X1373075Y341127D01*
X1377013Y338496D01*
X1381388Y336684D01*
X1385860Y335794D01*
Y357260D01*
D02*
G37*
G36*
X52360D02*
X30894D01*
X31784Y352788D01*
X33596Y348413D01*
X36227Y344475D01*
X39575Y341127D01*
X43513Y338496D01*
X47888Y336684D01*
X52360Y335794D01*
Y357260D01*
D02*
G37*
G36*
X-111594D02*
X-133060D01*
Y335794D01*
X-128588Y336684D01*
X-124213Y338496D01*
X-120275Y341127D01*
X-116927Y344475D01*
X-114296Y348413D01*
X-112484Y352788D01*
X-111594Y357260D01*
D02*
G37*
G36*
X-138140D02*
X-159606D01*
X-158716Y352788D01*
X-156904Y348413D01*
X-154273Y344475D01*
X-150925Y341127D01*
X-146987Y338496D01*
X-142612Y336684D01*
X-138140Y335794D01*
Y357260D01*
D02*
G37*
G36*
X1221906D02*
X1200440D01*
Y335794D01*
X1204912Y336684D01*
X1209287Y338496D01*
X1213224Y341127D01*
X1216573Y344475D01*
X1219204Y348413D01*
X1221016Y352788D01*
X1221906Y357260D01*
D02*
G37*
G36*
X1195360D02*
X1173894D01*
X1174784Y352788D01*
X1176596Y348413D01*
X1179227Y344475D01*
X1182575Y341127D01*
X1186513Y338496D01*
X1190888Y336684D01*
X1195360Y335794D01*
Y357260D01*
D02*
G37*
G36*
X840906D02*
X819440D01*
Y335794D01*
X823912Y336684D01*
X828287Y338496D01*
X832225Y341127D01*
X835573Y344475D01*
X838204Y348413D01*
X840016Y352788D01*
X840906Y357260D01*
D02*
G37*
G36*
X814360D02*
X792894D01*
X793784Y352788D01*
X795596Y348413D01*
X798227Y344475D01*
X801575Y341127D01*
X805513Y338496D01*
X809888Y336684D01*
X814360Y335794D01*
Y357260D01*
D02*
G37*
G36*
X459906D02*
X438440D01*
Y335794D01*
X442912Y336684D01*
X447287Y338496D01*
X451225Y341127D01*
X454573Y344475D01*
X457204Y348413D01*
X459016Y352788D01*
X459906Y357260D01*
D02*
G37*
G36*
X433360D02*
X411894D01*
X412784Y352788D01*
X414596Y348413D01*
X417227Y344475D01*
X420575Y341127D01*
X424513Y338496D01*
X428888Y336684D01*
X433360Y335794D01*
Y357260D01*
D02*
G37*
G36*
X269406D02*
X247940D01*
Y335794D01*
X252412Y336684D01*
X256787Y338496D01*
X260725Y341127D01*
X264073Y344475D01*
X266704Y348413D01*
X268516Y352788D01*
X269406Y357260D01*
D02*
G37*
G36*
X242860D02*
X221394D01*
X222284Y352788D01*
X224096Y348413D01*
X226727Y344475D01*
X230075Y341127D01*
X234013Y338496D01*
X238388Y336684D01*
X242860Y335794D01*
Y357260D01*
D02*
G37*
G36*
X78906D02*
X57440D01*
Y335794D01*
X61912Y336684D01*
X66287Y338496D01*
X70224Y341127D01*
X73573Y344475D01*
X76204Y348413D01*
X78016Y352788D01*
X78906Y357260D01*
D02*
G37*
G36*
X1031406Y356860D02*
X1009940D01*
Y335394D01*
X1014412Y336284D01*
X1018787Y338096D01*
X1022725Y340727D01*
X1026073Y344075D01*
X1028704Y348013D01*
X1030516Y352388D01*
X1031406Y356860D01*
D02*
G37*
G36*
X1004860D02*
X983394D01*
X984284Y352388D01*
X986096Y348013D01*
X988727Y344075D01*
X992075Y340727D01*
X996013Y338096D01*
X1000388Y336284D01*
X1004860Y335394D01*
Y356860D01*
D02*
G37*
G36*
X650406D02*
X628940D01*
Y335394D01*
X633412Y336284D01*
X637787Y338096D01*
X641724Y340727D01*
X645073Y344075D01*
X647704Y348013D01*
X649516Y352388D01*
X650406Y356860D01*
D02*
G37*
G36*
X623860D02*
X602394D01*
X603284Y352388D01*
X605096Y348013D01*
X607727Y344075D01*
X611075Y340727D01*
X615013Y338096D01*
X619388Y336284D01*
X623860Y335394D01*
Y356860D01*
D02*
G37*
G36*
X1492440Y359340D02*
X1471360D01*
Y345260D01*
X1475426D01*
Y329582D01*
X1462118Y316274D01*
X1409940D01*
Y320340D01*
X1395860D01*
Y299260D01*
X1409940D01*
Y303326D01*
X1464800D01*
X1467278Y303818D01*
X1469378Y305222D01*
X1486478Y322322D01*
X1487881Y324422D01*
X1488374Y326900D01*
Y345260D01*
X1492440D01*
Y359340D01*
D02*
G37*
G36*
X1302127D02*
X1281048D01*
Y345260D01*
X1285113D01*
Y326769D01*
X1274618Y316274D01*
X1219440D01*
Y320340D01*
X1205360D01*
Y300244D01*
X1205360Y299260D01*
X1204208Y298974D01*
X1191592D01*
X1190440Y299260D01*
Y320340D01*
X1176360D01*
Y299260D01*
X1175208Y298974D01*
X1030092D01*
X1028940Y299260D01*
X1028940Y300244D01*
Y303326D01*
X1082300D01*
X1084778Y303818D01*
X1086878Y305222D01*
X1105853Y324197D01*
X1107256Y326297D01*
X1107749Y328775D01*
Y345260D01*
X1111815D01*
Y359340D01*
X1090735D01*
Y345260D01*
X1094801D01*
Y331457D01*
X1079618Y316274D01*
X1028940D01*
Y320340D01*
X1014860D01*
Y300244D01*
X1014860Y299260D01*
X1013708Y298974D01*
X1001092D01*
X999940Y299260D01*
Y320340D01*
X985860D01*
Y299260D01*
X984708Y298974D01*
X839592D01*
X838440Y299260D01*
X838440Y300244D01*
Y303326D01*
X892300D01*
X894778Y303818D01*
X896878Y305222D01*
X915541Y323884D01*
X916944Y325985D01*
X917437Y328462D01*
Y345260D01*
X921502D01*
Y359340D01*
X900423D01*
Y345260D01*
X904488D01*
Y331144D01*
X889618Y316274D01*
X838440D01*
Y320340D01*
X824360D01*
Y300244D01*
X824360Y299260D01*
X823208Y298974D01*
X810592D01*
X809440Y299260D01*
X809440Y300244D01*
Y320340D01*
X795360D01*
Y300244D01*
X795360Y299260D01*
X794208Y298974D01*
X649092D01*
X647940Y299260D01*
X647940Y300244D01*
Y303326D01*
X707300D01*
X709778Y303818D01*
X711878Y305222D01*
X725228Y318572D01*
X726631Y320672D01*
X727124Y323150D01*
Y345260D01*
X731190D01*
Y359340D01*
X710110D01*
Y345260D01*
X714176D01*
Y325832D01*
X704618Y316274D01*
X647940D01*
Y320340D01*
X633860D01*
Y300244D01*
X633860Y299260D01*
X632708Y298974D01*
X620092D01*
X618940Y299260D01*
Y320340D01*
X604860D01*
Y299260D01*
X603708Y298974D01*
X458592D01*
X457440Y299260D01*
X457440Y300244D01*
Y303326D01*
X507300D01*
X509778Y303818D01*
X511878Y305222D01*
X534916Y328259D01*
X536319Y330360D01*
X536812Y332837D01*
Y345260D01*
X540877D01*
Y359340D01*
X519798D01*
Y345260D01*
X523863D01*
Y335519D01*
X504618Y316274D01*
X457440D01*
Y320340D01*
X443360D01*
Y300244D01*
X443360Y299260D01*
X442208Y298974D01*
X429592D01*
X428440Y299260D01*
Y320340D01*
X414360D01*
Y299260D01*
X413208Y298974D01*
X268092D01*
X266940Y299260D01*
X266940Y300244D01*
Y303326D01*
X312300D01*
X314778Y303818D01*
X316878Y305222D01*
X344603Y332947D01*
X346007Y335047D01*
X346499Y337525D01*
Y345260D01*
X350565D01*
Y359340D01*
X329485D01*
Y345260D01*
X333551D01*
Y340207D01*
X309618Y316274D01*
X266940D01*
Y320340D01*
X252860D01*
Y300244D01*
X252860Y299260D01*
X251708Y298974D01*
X239092D01*
X237940Y299260D01*
Y320340D01*
X223860D01*
Y299260D01*
X222708Y298974D01*
X77592D01*
X76440Y299260D01*
X76440Y300244D01*
Y303326D01*
X129800D01*
X132278Y303818D01*
X134378Y305222D01*
X154291Y325134D01*
X155694Y327235D01*
X156187Y329712D01*
Y345260D01*
X160252D01*
Y359340D01*
X139172D01*
Y345260D01*
X143238D01*
Y332394D01*
X127118Y316274D01*
X76440D01*
Y320340D01*
X62360D01*
Y300244D01*
X62360Y299260D01*
X61208Y298974D01*
X48592D01*
X47440Y299260D01*
Y320340D01*
X33360D01*
Y299260D01*
X32208Y298974D01*
X-112908D01*
X-114060Y299260D01*
X-114060Y300244D01*
Y303326D01*
X-62700D01*
X-60222Y303818D01*
X-58122Y305222D01*
X-36022Y327322D01*
X-34618Y329422D01*
X-34126Y331900D01*
Y345260D01*
X-30060D01*
Y359340D01*
X-51140D01*
Y345260D01*
X-47074D01*
Y334582D01*
X-65382Y316274D01*
X-114060D01*
Y320340D01*
X-128140D01*
Y300244D01*
X-128140Y299260D01*
X-129292Y298974D01*
X-133618D01*
X-143060Y308416D01*
Y320340D01*
X-157140D01*
Y299260D01*
X-152216D01*
X-140878Y287922D01*
X-138778Y286518D01*
X-136300Y286026D01*
X138592D01*
X138713Y285572D01*
X138805Y284756D01*
X137250Y283201D01*
X136080Y281174D01*
X135474Y278913D01*
Y276572D01*
X136080Y274311D01*
X136960Y272787D01*
X136322Y271517D01*
X-183036D01*
X-185514Y271024D01*
X-187614Y269620D01*
X-187645Y269574D01*
X-197458D01*
X-197458Y269574D01*
X-199192Y269229D01*
X-200662Y268247D01*
X-208205Y260705D01*
X-209187Y259234D01*
X-209532Y257500D01*
Y238386D01*
X-210802Y238133D01*
X-212346Y241861D01*
X-215086Y245962D01*
X-218574Y249450D01*
X-222675Y252190D01*
X-227232Y254078D01*
X-232070Y255040D01*
X-237002D01*
X-241840Y254078D01*
X-246397Y252190D01*
X-250498Y249450D01*
X-253986Y245962D01*
X-256726Y241861D01*
X-258614Y237304D01*
X-259576Y232466D01*
Y227534D01*
X-258614Y222696D01*
X-256726Y218139D01*
X-253986Y214038D01*
X-250498Y210550D01*
X-246397Y207810D01*
X-241840Y205922D01*
X-237002Y204960D01*
X-232070D01*
X-227232Y205922D01*
X-222675Y207810D01*
X-218574Y210550D01*
X-215086Y214038D01*
X-212346Y218139D01*
X-210802Y221867D01*
X-209532Y221614D01*
Y134377D01*
X-216377Y127532D01*
X-217710D01*
Y127540D01*
X-220543D01*
X-221169Y128810D01*
X-220572Y129588D01*
X-219885Y131246D01*
X-219651Y133025D01*
Y136975D01*
X-219885Y138754D01*
X-220572Y140412D01*
X-221665Y141835D01*
X-223088Y142928D01*
X-224746Y143615D01*
X-226525Y143849D01*
X-227475D01*
X-229254Y143615D01*
X-230912Y142928D01*
X-232335Y141835D01*
X-233428Y140412D01*
X-234115Y138754D01*
X-234349Y136975D01*
Y133025D01*
X-234115Y131246D01*
X-233428Y129588D01*
X-232831Y128810D01*
X-233457Y127540D01*
X-236290D01*
Y118460D01*
Y111960D01*
Y105460D01*
Y98960D01*
Y98960D01*
X-227000D01*
X-217710D01*
Y98960D01*
Y105460D01*
Y111960D01*
Y118468D01*
X-214500D01*
X-212766Y118813D01*
X-211295Y119795D01*
X-201795Y129295D01*
X-201795Y129295D01*
X-200813Y130766D01*
X-200468Y132500D01*
Y255623D01*
X-195580Y260510D01*
X-193974D01*
Y254240D01*
X-197376D01*
Y231160D01*
X-174296D01*
Y254240D01*
X-181026D01*
Y257897D01*
X-181000Y257922D01*
X-180569Y258568D01*
X-166911D01*
Y254240D01*
X-171976D01*
Y231160D01*
X-148896D01*
Y254240D01*
X-153962D01*
Y258568D01*
X1014776D01*
X1041026Y232318D01*
Y192500D01*
X1041518Y190022D01*
X1042922Y187922D01*
X1085422Y145422D01*
X1087522Y144018D01*
X1090000Y143526D01*
X1178526D01*
Y130682D01*
X1095384Y47540D01*
X1069460D01*
Y12460D01*
X1104540D01*
Y38384D01*
X1189578Y123422D01*
X1190982Y125522D01*
X1191474Y128000D01*
Y167600D01*
X1190982Y170078D01*
X1189578Y172178D01*
X1155340Y206416D01*
Y232340D01*
X1120260D01*
Y197260D01*
X1146184D01*
X1178526Y164918D01*
Y157034D01*
X1178190Y156810D01*
X1177855Y156474D01*
X1092682D01*
X1053974Y195182D01*
Y235000D01*
X1053482Y237478D01*
X1052078Y239578D01*
X1022036Y269620D01*
X1019935Y271024D01*
X1017458Y271517D01*
X315629D01*
X314991Y272787D01*
X315871Y274311D01*
X316477Y276572D01*
Y278913D01*
X315871Y281174D01*
X314701Y283201D01*
X313146Y284756D01*
X313238Y285572D01*
X313359Y286026D01*
X1080526D01*
Y232340D01*
X1069460D01*
Y197260D01*
X1104540D01*
Y232340D01*
X1093474D01*
Y286026D01*
X1356600D01*
X1359078Y286518D01*
X1361178Y287922D01*
X1372392Y299135D01*
X1373210D01*
X1373835Y299260D01*
X1380940D01*
Y320340D01*
X1366860D01*
Y311343D01*
X1365132Y310188D01*
X1353918Y298974D01*
X1220592D01*
X1219440Y299260D01*
X1219440Y300244D01*
Y303326D01*
X1277300D01*
X1279778Y303818D01*
X1281878Y305222D01*
X1296166Y319509D01*
X1297569Y321610D01*
X1298062Y324087D01*
Y345260D01*
X1302127D01*
Y359340D01*
D02*
G37*
G36*
X232104Y254240D02*
X223104D01*
Y245240D01*
X232104D01*
Y254240D01*
D02*
G37*
G36*
X218024D02*
X209024D01*
Y245240D01*
X218024D01*
Y254240D01*
D02*
G37*
G36*
X181304D02*
X172304D01*
Y245240D01*
X181304D01*
Y254240D01*
D02*
G37*
G36*
X167224D02*
X158224D01*
Y245240D01*
X167224D01*
Y254240D01*
D02*
G37*
G36*
X54304D02*
X45304D01*
Y245240D01*
X54304D01*
Y254240D01*
D02*
G37*
G36*
X40224D02*
X31224D01*
Y245240D01*
X40224D01*
Y254240D01*
D02*
G37*
G36*
X-21896D02*
X-30896D01*
Y245240D01*
X-21896D01*
Y254240D01*
D02*
G37*
G36*
X-35976D02*
X-44976D01*
Y245240D01*
X-35976D01*
Y254240D01*
D02*
G37*
G36*
X-123496D02*
X-132496D01*
Y245240D01*
X-123496D01*
Y254240D01*
D02*
G37*
G36*
X-137576D02*
X-146576D01*
Y245240D01*
X-137576D01*
Y254240D01*
D02*
G37*
G36*
X522540Y252476D02*
Y232540D01*
X542476D01*
X541674Y236575D01*
X539975Y240677D01*
X537508Y244368D01*
X534368Y247508D01*
X530677Y249975D01*
X526575Y251674D01*
X522540Y252476D01*
D02*
G37*
G36*
X517460D02*
X513425Y251674D01*
X509323Y249975D01*
X505632Y247508D01*
X502492Y244368D01*
X500025Y240677D01*
X498326Y236575D01*
X497524Y232540D01*
X517460D01*
Y252476D01*
D02*
G37*
G36*
X308304Y254240D02*
X285224D01*
Y231160D01*
X308304D01*
Y254240D01*
D02*
G37*
G36*
X282904D02*
X259824D01*
Y231160D01*
X282904D01*
Y254240D01*
D02*
G37*
G36*
X257504D02*
X234424D01*
Y231160D01*
X257504D01*
Y254240D01*
D02*
G37*
G36*
X232104Y240160D02*
X223104D01*
Y231160D01*
X232104D01*
Y240160D01*
D02*
G37*
G36*
X218024D02*
X209024D01*
Y231160D01*
X218024D01*
Y240160D01*
D02*
G37*
G36*
X206704Y254240D02*
X183624D01*
Y231160D01*
X206704D01*
Y254240D01*
D02*
G37*
G36*
X181304Y240160D02*
X172304D01*
Y231160D01*
X181304D01*
Y240160D01*
D02*
G37*
G36*
X167224D02*
X158224D01*
Y231160D01*
X167224D01*
Y240160D01*
D02*
G37*
G36*
X155904Y254240D02*
X132824D01*
Y231160D01*
X155904D01*
Y254240D01*
D02*
G37*
G36*
X130504D02*
X107424D01*
Y231160D01*
X130504D01*
Y254240D01*
D02*
G37*
G36*
X105104D02*
X82024D01*
Y231160D01*
X105104D01*
Y254240D01*
D02*
G37*
G36*
X79704D02*
X56624D01*
Y231160D01*
X79704D01*
Y254240D01*
D02*
G37*
G36*
X54304Y240160D02*
X45304D01*
Y231160D01*
X54304D01*
Y240160D01*
D02*
G37*
G36*
X40224D02*
X31224D01*
Y231160D01*
X40224D01*
Y240160D01*
D02*
G37*
G36*
X28904Y254240D02*
X5824D01*
Y231160D01*
X28904D01*
Y254240D01*
D02*
G37*
G36*
X3504D02*
X-19576D01*
Y231160D01*
X3504D01*
Y254240D01*
D02*
G37*
G36*
X-21896Y240160D02*
X-30896D01*
Y231160D01*
X-21896D01*
Y240160D01*
D02*
G37*
G36*
X-35976D02*
X-44976D01*
Y231160D01*
X-35976D01*
Y240160D01*
D02*
G37*
G36*
X-47296Y254240D02*
X-70376D01*
Y231160D01*
X-47296D01*
Y254240D01*
D02*
G37*
G36*
X-72696D02*
X-95776D01*
Y231160D01*
X-72696D01*
Y254240D01*
D02*
G37*
G36*
X-98096D02*
X-121176D01*
Y231160D01*
X-98096D01*
Y254240D01*
D02*
G37*
G36*
X-123496Y240160D02*
X-132496D01*
Y231160D01*
X-123496D01*
Y240160D01*
D02*
G37*
G36*
X-137576D02*
X-146576D01*
Y231160D01*
X-137576D01*
Y240160D01*
D02*
G37*
G36*
X308304Y228840D02*
X299304D01*
Y219840D01*
X308304D01*
Y228840D01*
D02*
G37*
G36*
X294224D02*
X285224D01*
Y219840D01*
X294224D01*
Y228840D01*
D02*
G37*
G36*
X130504D02*
X121504D01*
Y219840D01*
X130504D01*
Y228840D01*
D02*
G37*
G36*
X116424D02*
X107424D01*
Y219840D01*
X116424D01*
Y228840D01*
D02*
G37*
G36*
X-72696D02*
X-81696D01*
Y219840D01*
X-72696D01*
Y228840D01*
D02*
G37*
G36*
X-86776D02*
X-95776D01*
Y219840D01*
X-86776D01*
Y228840D01*
D02*
G37*
G36*
X1460140Y232340D02*
X1445140D01*
Y217340D01*
X1460140D01*
Y232340D01*
D02*
G37*
G36*
X1440060D02*
X1425060D01*
Y217340D01*
X1440060D01*
Y232340D01*
D02*
G37*
G36*
X1358540D02*
X1343540D01*
Y217340D01*
X1358540D01*
Y232340D01*
D02*
G37*
G36*
X1338460D02*
X1323460D01*
Y217340D01*
X1338460D01*
Y232340D01*
D02*
G37*
G36*
X1206140D02*
X1191140D01*
Y217340D01*
X1206140D01*
Y232340D01*
D02*
G37*
G36*
X1186060D02*
X1171060D01*
Y217340D01*
X1186060D01*
Y232340D01*
D02*
G37*
G36*
X726940D02*
X711940D01*
Y217340D01*
X726940D01*
Y232340D01*
D02*
G37*
G36*
X706860D02*
X691860D01*
Y217340D01*
X706860D01*
Y232340D01*
D02*
G37*
G36*
X676140D02*
X661140D01*
Y217340D01*
X676140D01*
Y232340D01*
D02*
G37*
G36*
X656060D02*
X641060D01*
Y217340D01*
X656060D01*
Y232340D01*
D02*
G37*
G36*
X542476Y227460D02*
X522540D01*
Y207524D01*
X526575Y208326D01*
X530677Y210025D01*
X534368Y212492D01*
X537508Y215632D01*
X539975Y219323D01*
X541674Y223425D01*
X542476Y227460D01*
D02*
G37*
G36*
X517460D02*
X497524D01*
X498326Y223425D01*
X500025Y219323D01*
X502492Y215632D01*
X505632Y212492D01*
X509323Y210025D01*
X513425Y208326D01*
X517460Y207524D01*
Y227460D01*
D02*
G37*
G36*
X308304Y214760D02*
X299304D01*
Y205760D01*
X308304D01*
Y214760D01*
D02*
G37*
G36*
X294224D02*
X285224D01*
Y205760D01*
X294224D01*
Y214760D01*
D02*
G37*
G36*
X282904Y228840D02*
X259824D01*
Y205760D01*
X282904D01*
Y228840D01*
D02*
G37*
G36*
X257504D02*
X234424D01*
Y205760D01*
X257504D01*
Y228840D01*
D02*
G37*
G36*
X232104D02*
X209024D01*
Y205760D01*
X232104D01*
Y228840D01*
D02*
G37*
G36*
X206704D02*
X183624D01*
Y205760D01*
X206704D01*
Y228840D01*
D02*
G37*
G36*
X181304D02*
X158224D01*
Y205760D01*
X181304D01*
Y228840D01*
D02*
G37*
G36*
X155904D02*
X132824D01*
Y205760D01*
X155904D01*
Y228840D01*
D02*
G37*
G36*
X130504Y214760D02*
X121504D01*
Y205760D01*
X130504D01*
Y214760D01*
D02*
G37*
G36*
X116424D02*
X107424D01*
Y205760D01*
X116424D01*
Y214760D01*
D02*
G37*
G36*
X3504Y228840D02*
X-19576D01*
Y205760D01*
X3504D01*
Y228840D01*
D02*
G37*
G36*
X-21896D02*
X-44976D01*
Y205760D01*
X-21896D01*
Y228840D01*
D02*
G37*
G36*
X-47296D02*
X-70376D01*
Y205760D01*
X-47296D01*
Y228840D01*
D02*
G37*
G36*
X-72696Y214760D02*
X-81696D01*
Y205760D01*
X-72696D01*
Y214760D01*
D02*
G37*
G36*
X-86776D02*
X-95776D01*
Y205760D01*
X-86776D01*
Y214760D01*
D02*
G37*
G36*
X-98096Y228840D02*
X-121176D01*
Y205760D01*
X-98096D01*
Y228840D01*
D02*
G37*
G36*
X-123496D02*
X-146576D01*
Y205760D01*
X-123496D01*
Y228840D01*
D02*
G37*
G36*
X-148896D02*
X-171976D01*
Y205760D01*
X-148896D01*
Y228840D01*
D02*
G37*
G36*
X347930Y255040D02*
X342998D01*
X338160Y254078D01*
X333603Y252190D01*
X329502Y249450D01*
X326014Y245962D01*
X323274Y241861D01*
X321386Y237304D01*
X320424Y232466D01*
Y227534D01*
X321386Y222696D01*
X323274Y218139D01*
X326014Y214038D01*
X329502Y210550D01*
X333603Y207810D01*
X338160Y205922D01*
X342998Y204960D01*
X347930D01*
X352768Y205922D01*
X357325Y207810D01*
X361426Y210550D01*
X364914Y214038D01*
X367654Y218139D01*
X369542Y222696D01*
X370504Y227534D01*
Y232466D01*
X369542Y237304D01*
X367654Y241861D01*
X364914Y245962D01*
X361426Y249450D01*
X357325Y252190D01*
X352768Y254078D01*
X347930Y255040D01*
D02*
G37*
G36*
X1460140Y212260D02*
X1445140D01*
Y197260D01*
X1460140D01*
Y212260D01*
D02*
G37*
G36*
X1440060D02*
X1425060D01*
Y197260D01*
X1440060D01*
Y212260D01*
D02*
G37*
G36*
X1409340Y232340D02*
X1374260D01*
Y197260D01*
X1409340D01*
Y232340D01*
D02*
G37*
G36*
X1358540Y212260D02*
X1343540D01*
Y197260D01*
X1358540D01*
Y212260D01*
D02*
G37*
G36*
X1338460D02*
X1323460D01*
Y197260D01*
X1338460D01*
Y212260D01*
D02*
G37*
G36*
X1256940Y232340D02*
X1221860D01*
Y197260D01*
X1256940D01*
Y232340D01*
D02*
G37*
G36*
X1206140Y212260D02*
X1191140D01*
Y197260D01*
X1206140D01*
Y212260D01*
D02*
G37*
G36*
X1186060D02*
X1171060D01*
Y197260D01*
X1186060D01*
Y212260D01*
D02*
G37*
G36*
X1031740Y232340D02*
X996660D01*
Y197260D01*
X1031740D01*
Y232340D01*
D02*
G37*
G36*
X980940D02*
X945860D01*
Y197260D01*
X980940D01*
Y232340D01*
D02*
G37*
G36*
X930140D02*
X895060D01*
Y197260D01*
X930140D01*
Y232340D01*
D02*
G37*
G36*
X879340D02*
X844260D01*
Y197260D01*
X879340D01*
Y232340D01*
D02*
G37*
G36*
X828540D02*
X793460D01*
Y197260D01*
X828540D01*
Y232340D01*
D02*
G37*
G36*
X777740D02*
X742660D01*
Y197260D01*
X777740D01*
Y232340D01*
D02*
G37*
G36*
X726940Y212260D02*
X711940D01*
Y197260D01*
X726940D01*
Y212260D01*
D02*
G37*
G36*
X706860D02*
X691860D01*
Y197260D01*
X706860D01*
Y212260D01*
D02*
G37*
G36*
X676140D02*
X661140D01*
Y197260D01*
X676140D01*
Y212260D01*
D02*
G37*
G36*
X656060D02*
X641060D01*
Y197260D01*
X656060D01*
Y212260D01*
D02*
G37*
G36*
X105104Y228840D02*
X82024D01*
Y205760D01*
X89032D01*
Y194540D01*
X83024D01*
Y180460D01*
X104104D01*
Y194540D01*
X98096D01*
Y205760D01*
X105104D01*
Y228840D01*
D02*
G37*
G36*
X79704D02*
X56624D01*
Y205760D01*
X63632D01*
Y194540D01*
X57624D01*
Y180460D01*
X78704D01*
Y194540D01*
X72696D01*
Y205760D01*
X79704D01*
Y228840D01*
D02*
G37*
G36*
X54304D02*
X31224D01*
Y205760D01*
X38232D01*
Y194540D01*
X32224D01*
Y180460D01*
X53304D01*
Y194540D01*
X47296D01*
Y205760D01*
X54304D01*
Y228840D01*
D02*
G37*
G36*
X1327940Y166040D02*
X1319940D01*
Y161540D01*
X1327940D01*
Y166040D01*
D02*
G37*
G36*
X1314860D02*
X1306860D01*
Y161540D01*
X1314860D01*
Y166040D01*
D02*
G37*
G36*
X1429540D02*
X1421540D01*
Y161540D01*
X1429540D01*
Y166040D01*
D02*
G37*
G36*
X1378740D02*
X1370740D01*
Y161540D01*
X1378740D01*
Y166040D01*
D02*
G37*
G36*
X1365660D02*
X1357660D01*
Y161540D01*
X1365660D01*
Y166040D01*
D02*
G37*
G36*
X1416460D02*
X1408460D01*
Y161540D01*
X1416460D01*
Y166040D01*
D02*
G37*
G36*
X1429540Y156460D02*
X1421540D01*
Y151960D01*
X1429540D01*
Y156460D01*
D02*
G37*
G36*
X1416460D02*
X1408460D01*
Y151960D01*
X1416460D01*
Y156460D01*
D02*
G37*
G36*
X1378740D02*
X1370740D01*
Y151960D01*
X1378740D01*
Y156460D01*
D02*
G37*
G36*
X1365660D02*
X1357660D01*
Y151960D01*
X1365660D01*
Y156460D01*
D02*
G37*
G36*
X1327940Y156460D02*
X1319940D01*
Y151960D01*
X1327940D01*
Y156460D01*
D02*
G37*
G36*
X1314860D02*
X1306860D01*
Y151960D01*
X1314860D01*
Y156460D01*
D02*
G37*
G36*
X104104Y165540D02*
X83024D01*
Y151460D01*
X89032D01*
Y146436D01*
X89377Y144702D01*
X90359Y143231D01*
X96795Y136795D01*
X96795Y136795D01*
X98266Y135813D01*
X98320Y135802D01*
X98195Y134532D01*
X86877D01*
X72696Y148714D01*
Y151460D01*
X78704D01*
Y165540D01*
X57624D01*
Y151460D01*
X63632D01*
Y146836D01*
X63977Y145102D01*
X64959Y143632D01*
X81795Y126795D01*
X83266Y125813D01*
X85000Y125468D01*
X85000Y125468D01*
X104793D01*
X105206Y124920D01*
X104573Y123650D01*
X103830D01*
X101569Y123044D01*
X99541Y121874D01*
X97886Y120219D01*
X97351Y119292D01*
X74617D01*
X47296Y146614D01*
Y151460D01*
X53304D01*
Y165540D01*
X32224D01*
Y151460D01*
X38232D01*
Y144736D01*
X38577Y143002D01*
X39559Y141532D01*
X69535Y111555D01*
X71006Y110573D01*
X72740Y110228D01*
X97351D01*
X97886Y109301D01*
X99541Y107646D01*
X101569Y106476D01*
X103830Y105870D01*
X106170D01*
X108431Y106476D01*
X110459Y107646D01*
X112114Y109301D01*
X113039Y110904D01*
X113174Y110952D01*
X114334Y110945D01*
X114439Y110906D01*
X115373Y109288D01*
X117028Y107633D01*
X119055Y106463D01*
X121316Y105857D01*
X123657D01*
X125918Y106463D01*
X127945Y107633D01*
X129405Y109093D01*
X129862Y109264D01*
X130994Y109162D01*
X132266Y107890D01*
X134293Y106720D01*
X136554Y106114D01*
X138895D01*
X141156Y106720D01*
X143183Y107890D01*
X144838Y109545D01*
X146009Y111572D01*
X146615Y113833D01*
Y116174D01*
X146009Y118435D01*
X144838Y120462D01*
X143183Y122118D01*
X141156Y123288D01*
X138895Y123894D01*
X136554D01*
X135521Y123617D01*
X115933Y143205D01*
X114463Y144187D01*
X112728Y144532D01*
X101877D01*
X98096Y148314D01*
Y151460D01*
X104104D01*
Y165540D01*
D02*
G37*
G36*
X1487540Y152476D02*
Y132540D01*
X1507476D01*
X1506674Y136575D01*
X1504975Y140677D01*
X1502508Y144368D01*
X1499368Y147508D01*
X1495677Y149975D01*
X1491575Y151674D01*
X1487540Y152476D01*
D02*
G37*
G36*
X1047540Y152476D02*
Y132540D01*
X1067476D01*
X1066674Y136575D01*
X1064975Y140677D01*
X1062508Y144368D01*
X1059368Y147508D01*
X1055677Y149975D01*
X1051575Y151674D01*
X1047540Y152476D01*
D02*
G37*
G36*
X1042460D02*
X1038425Y151674D01*
X1034323Y149975D01*
X1030632Y147508D01*
X1027492Y144368D01*
X1025025Y140677D01*
X1023326Y136575D01*
X1022524Y132540D01*
X1042460D01*
Y152476D01*
D02*
G37*
G36*
X1482460Y152476D02*
X1478425Y151674D01*
X1474323Y149975D01*
X1470632Y147508D01*
X1467492Y144368D01*
X1465025Y140677D01*
X1463326Y136575D01*
X1462524Y132540D01*
X1482460D01*
Y152476D01*
D02*
G37*
G36*
X1507476Y127460D02*
X1487540D01*
Y107524D01*
X1491575Y108326D01*
X1495677Y110025D01*
X1499368Y112492D01*
X1502508Y115632D01*
X1504975Y119323D01*
X1506674Y123425D01*
X1507476Y127460D01*
D02*
G37*
G36*
X1067476D02*
X1047540D01*
Y107524D01*
X1051575Y108326D01*
X1055677Y110025D01*
X1059368Y112492D01*
X1062508Y115632D01*
X1064975Y119323D01*
X1066674Y123425D01*
X1067476Y127460D01*
D02*
G37*
G36*
X1042460D02*
X1022524D01*
X1023326Y123425D01*
X1025025Y119323D01*
X1027492Y115632D01*
X1030632Y112492D01*
X1034323Y110025D01*
X1038425Y108326D01*
X1042460Y107524D01*
Y127460D01*
D02*
G37*
G36*
X1482460D02*
X1462524D01*
X1463326Y123425D01*
X1465025Y119323D01*
X1467492Y115632D01*
X1470632Y112492D01*
X1474323Y110025D01*
X1478425Y108326D01*
X1482460Y107524D01*
Y127460D01*
D02*
G37*
G36*
X1429540Y137040D02*
X1408460D01*
Y122960D01*
X1414468D01*
Y101649D01*
X1413541Y101114D01*
X1411886Y99459D01*
X1410716Y97431D01*
X1410110Y95170D01*
Y92830D01*
X1410716Y90569D01*
X1411886Y88541D01*
X1413541Y86886D01*
X1415569Y85716D01*
X1417830Y85110D01*
X1420170D01*
X1422431Y85716D01*
X1424459Y86886D01*
X1426114Y88541D01*
X1427284Y90569D01*
X1427890Y92830D01*
Y95170D01*
X1427284Y97431D01*
X1426114Y99459D01*
X1424459Y101114D01*
X1423532Y101649D01*
Y122960D01*
X1429540D01*
Y137040D01*
D02*
G37*
G36*
X1378740D02*
X1357660D01*
Y122960D01*
X1363668D01*
Y101649D01*
X1362741Y101114D01*
X1361086Y99459D01*
X1359916Y97431D01*
X1359310Y95170D01*
Y92830D01*
X1359916Y90569D01*
X1361086Y88541D01*
X1362741Y86886D01*
X1364769Y85716D01*
X1367030Y85110D01*
X1369370D01*
X1371631Y85716D01*
X1373659Y86886D01*
X1375314Y88541D01*
X1376484Y90569D01*
X1377090Y92830D01*
Y95170D01*
X1376484Y97431D01*
X1375314Y99459D01*
X1373659Y101114D01*
X1372732Y101649D01*
Y122960D01*
X1378740D01*
Y137040D01*
D02*
G37*
G36*
X1327940D02*
X1306860D01*
Y122960D01*
X1312968D01*
Y101649D01*
X1312041Y101114D01*
X1310386Y99459D01*
X1309216Y97431D01*
X1308610Y95170D01*
Y92830D01*
X1309216Y90569D01*
X1310386Y88541D01*
X1312041Y86886D01*
X1314069Y85716D01*
X1316330Y85110D01*
X1318670D01*
X1320931Y85716D01*
X1322959Y86886D01*
X1324614Y88541D01*
X1325784Y90569D01*
X1326390Y92830D01*
Y95170D01*
X1325784Y97431D01*
X1324614Y99459D01*
X1322959Y101114D01*
X1322032Y101649D01*
Y122960D01*
X1327940D01*
Y137040D01*
D02*
G37*
G36*
X-217710Y94460D02*
X-227000D01*
X-236290D01*
Y92460D01*
X-233457D01*
X-232831Y91190D01*
X-233428Y90412D01*
X-234115Y88754D01*
X-234349Y86975D01*
Y83025D01*
X-234115Y81246D01*
X-233428Y79588D01*
X-232335Y78165D01*
X-230912Y77072D01*
X-229254Y76385D01*
X-227475Y76151D01*
X-226525D01*
X-224746Y76385D01*
X-223088Y77072D01*
X-221665Y78165D01*
X-220572Y79588D01*
X-219885Y81246D01*
X-219651Y83025D01*
Y86975D01*
X-219885Y88754D01*
X-220572Y90412D01*
X-221169Y91190D01*
X-220543Y92460D01*
X-217710D01*
Y94460D01*
D02*
G37*
G36*
X-251675Y152609D02*
X-256325D01*
X-258404Y152335D01*
X-260342Y151532D01*
X-262006Y150256D01*
X-263282Y148592D01*
X-264085Y146654D01*
X-264359Y144575D01*
Y137425D01*
X-264085Y135346D01*
X-263282Y133408D01*
X-262006Y131744D01*
X-261440Y131310D01*
X-261871Y130040D01*
X-264290D01*
Y109960D01*
Y89960D01*
X-261871D01*
X-261440Y88690D01*
X-262006Y88256D01*
X-263282Y86592D01*
X-264085Y84654D01*
X-264359Y82575D01*
Y75425D01*
X-264085Y73346D01*
X-263282Y71408D01*
X-262006Y69744D01*
X-260342Y68468D01*
X-258404Y67665D01*
X-256325Y67391D01*
X-251675D01*
X-249596Y67665D01*
X-247658Y68468D01*
X-245994Y69744D01*
X-244718Y71408D01*
X-243915Y73346D01*
X-243641Y75425D01*
Y82575D01*
X-243915Y84654D01*
X-244718Y86592D01*
X-245994Y88256D01*
X-246560Y88690D01*
X-246129Y89960D01*
X-243710D01*
Y109960D01*
Y130040D01*
X-246129D01*
X-246560Y131310D01*
X-245994Y131744D01*
X-244718Y133408D01*
X-243915Y135346D01*
X-243641Y137425D01*
Y144575D01*
X-243915Y146654D01*
X-244718Y148592D01*
X-245994Y150256D01*
X-247658Y151532D01*
X-249596Y152335D01*
X-251675Y152609D01*
D02*
G37*
G36*
X1460140Y47540D02*
X1445140D01*
Y32540D01*
X1460140D01*
Y47540D01*
D02*
G37*
G36*
X1440060D02*
X1425060D01*
Y32540D01*
X1440060D01*
Y47540D01*
D02*
G37*
G36*
X1409340D02*
X1394340D01*
Y32540D01*
X1409340D01*
Y47540D01*
D02*
G37*
G36*
X1389260D02*
X1374260D01*
Y32540D01*
X1389260D01*
Y47540D01*
D02*
G37*
G36*
X1135260D02*
X1120260D01*
Y32540D01*
X1135260D01*
Y47540D01*
D02*
G37*
G36*
X879340D02*
X864340D01*
Y32540D01*
X879340D01*
Y47540D01*
D02*
G37*
G36*
X859260D02*
X844260D01*
Y32540D01*
X859260D01*
Y47540D01*
D02*
G37*
G36*
X777740D02*
X762740D01*
Y32540D01*
X777740D01*
Y47540D01*
D02*
G37*
G36*
X757660D02*
X742660D01*
Y32540D01*
X757660D01*
Y47540D01*
D02*
G37*
G36*
X1460140Y27460D02*
X1445140D01*
Y12460D01*
X1460140D01*
Y27460D01*
D02*
G37*
G36*
X1440060D02*
X1425060D01*
Y12460D01*
X1440060D01*
Y27460D01*
D02*
G37*
G36*
X1409340D02*
X1394340D01*
Y12460D01*
X1409340D01*
Y27460D01*
D02*
G37*
G36*
X1389260D02*
X1374260D01*
Y12460D01*
X1389260D01*
Y27460D01*
D02*
G37*
G36*
X1358540Y47540D02*
X1323460D01*
Y12460D01*
X1358540D01*
Y47540D01*
D02*
G37*
G36*
X1307740D02*
X1272660D01*
Y12460D01*
X1307740D01*
Y47540D01*
D02*
G37*
G36*
X1256940D02*
X1221860D01*
Y12460D01*
X1256940D01*
Y47540D01*
D02*
G37*
G36*
X1135260Y27460D02*
X1120260D01*
Y12460D01*
X1135260D01*
Y27460D01*
D02*
G37*
G36*
X1031740Y47540D02*
X996660D01*
Y12460D01*
X1031740D01*
Y47540D01*
D02*
G37*
G36*
X980940D02*
X945860D01*
Y12460D01*
X980940D01*
Y47540D01*
D02*
G37*
G36*
X930140D02*
X895060D01*
Y12460D01*
X930140D01*
Y47540D01*
D02*
G37*
G36*
X879340Y27460D02*
X864340D01*
Y12460D01*
X879340D01*
Y27460D01*
D02*
G37*
G36*
X859260D02*
X844260D01*
Y12460D01*
X859260D01*
Y27460D01*
D02*
G37*
G36*
X777740D02*
X762740D01*
Y12460D01*
X777740D01*
Y27460D01*
D02*
G37*
G36*
X757660D02*
X742660D01*
Y12460D01*
X757660D01*
Y27460D01*
D02*
G37*
G36*
X726940Y47540D02*
X691860D01*
Y12460D01*
X726940D01*
Y47540D01*
D02*
G37*
G36*
X676140D02*
X641060D01*
Y12460D01*
X676140D01*
Y47540D01*
D02*
G37*
G36*
X522540Y22476D02*
Y2540D01*
X542476D01*
X541674Y6575D01*
X539975Y10677D01*
X537508Y14368D01*
X534368Y17508D01*
X530677Y19975D01*
X526575Y21674D01*
X522540Y22476D01*
D02*
G37*
G36*
X2540D02*
Y2540D01*
X22476D01*
X21674Y6575D01*
X19975Y10677D01*
X17508Y14368D01*
X14368Y17508D01*
X10677Y19975D01*
X6575Y21674D01*
X2540Y22476D01*
D02*
G37*
G36*
X517460D02*
X513425Y21674D01*
X509323Y19975D01*
X505632Y17508D01*
X502492Y14368D01*
X500025Y10677D01*
X498326Y6575D01*
X497524Y2540D01*
X517460D01*
Y22476D01*
D02*
G37*
G36*
X-2540D02*
X-6575Y21674D01*
X-10677Y19975D01*
X-14368Y17508D01*
X-17508Y14368D01*
X-19975Y10677D01*
X-21674Y6575D01*
X-22476Y2540D01*
X-2540D01*
Y22476D01*
D02*
G37*
G36*
X1307740Y232340D02*
X1272660D01*
Y204235D01*
X1272536Y203610D01*
Y199192D01*
X1157222Y83878D01*
X1155818Y81778D01*
X1155326Y79300D01*
Y47540D01*
X1140340D01*
Y30000D01*
Y12460D01*
X1155326D01*
Y5882D01*
X1145918Y-3526D01*
X817474D01*
Y12460D01*
X828540D01*
Y47540D01*
X793460D01*
Y12460D01*
X804526D01*
Y-3526D01*
X637682D01*
X559578Y74578D01*
X557478Y75982D01*
X555000Y76474D01*
X-49818D01*
X-83526Y110182D01*
Y166026D01*
X-10000D01*
X-7522Y166518D01*
X-5422Y167922D01*
X21942Y195286D01*
X23345Y197386D01*
X23838Y199864D01*
Y205760D01*
X28904D01*
Y228840D01*
X5824D01*
Y205760D01*
X10889D01*
Y202546D01*
X-12682Y178974D01*
X-159818D01*
X-179362Y198518D01*
Y205760D01*
X-174296D01*
Y228840D01*
X-197376D01*
Y205760D01*
X-192311D01*
Y195836D01*
X-191818Y193359D01*
X-190414Y191258D01*
X-167078Y167922D01*
X-164978Y166518D01*
X-162500Y166026D01*
X-96474D01*
Y107500D01*
X-95982Y105022D01*
X-94578Y102922D01*
X-57078Y65422D01*
X-54978Y64018D01*
X-52500Y63526D01*
X552318D01*
X630422Y-14578D01*
X632522Y-15982D01*
X635000Y-16474D01*
X1148600D01*
X1151078Y-15982D01*
X1153178Y-14578D01*
X1166378Y-1378D01*
X1167782Y722D01*
X1168274Y3200D01*
Y23526D01*
X1171060D01*
Y12460D01*
X1206140D01*
Y47540D01*
X1171060D01*
Y36474D01*
X1168274D01*
Y76618D01*
X1283588Y191932D01*
X1284992Y194032D01*
X1285484Y196510D01*
Y197260D01*
X1307740D01*
Y232340D01*
D02*
G37*
G36*
X22476Y-2540D02*
X2540D01*
Y-22476D01*
X6575Y-21674D01*
X10677Y-19975D01*
X14368Y-17508D01*
X17508Y-14368D01*
X19975Y-10677D01*
X21674Y-6575D01*
X22476Y-2540D01*
D02*
G37*
G36*
X542476D02*
X522540D01*
Y-22476D01*
X526575Y-21674D01*
X530677Y-19975D01*
X534368Y-17508D01*
X537508Y-14368D01*
X539975Y-10677D01*
X541674Y-6575D01*
X542476Y-2540D01*
D02*
G37*
G36*
X-2540D02*
X-22476D01*
X-21674Y-6575D01*
X-19975Y-10677D01*
X-17508Y-14368D01*
X-14368Y-17508D01*
X-10677Y-19975D01*
X-6575Y-21674D01*
X-2540Y-22476D01*
Y-2540D01*
D02*
G37*
G36*
X517460D02*
X497524D01*
X498326Y-6575D01*
X500025Y-10677D01*
X502492Y-14368D01*
X505632Y-17508D01*
X509323Y-19975D01*
X513425Y-21674D01*
X517460Y-22476D01*
Y-2540D01*
D02*
G37*
G36*
X347930Y25040D02*
X342998D01*
X338160Y24078D01*
X333603Y22190D01*
X329502Y19450D01*
X326014Y15962D01*
X323274Y11861D01*
X321386Y7304D01*
X320424Y2466D01*
Y-2466D01*
X321386Y-7304D01*
X323274Y-11861D01*
X326014Y-15962D01*
X329502Y-19450D01*
X333603Y-22190D01*
X338160Y-24078D01*
X342998Y-25040D01*
X347930D01*
X352768Y-24078D01*
X357325Y-22190D01*
X361426Y-19450D01*
X364914Y-15962D01*
X367654Y-11861D01*
X369542Y-7304D01*
X370504Y-2466D01*
Y2466D01*
X369542Y7304D01*
X367654Y11861D01*
X364914Y15962D01*
X361426Y19450D01*
X357325Y22190D01*
X352768Y24078D01*
X347930Y25040D01*
D02*
G37*
G36*
X-232070D02*
X-237002D01*
X-241840Y24078D01*
X-246397Y22190D01*
X-250498Y19450D01*
X-253986Y15962D01*
X-256726Y11861D01*
X-258614Y7304D01*
X-259576Y2466D01*
Y-2466D01*
X-258614Y-7304D01*
X-256726Y-11861D01*
X-253986Y-15962D01*
X-250498Y-19450D01*
X-246397Y-22190D01*
X-241840Y-24078D01*
X-237002Y-25040D01*
X-232070D01*
X-227232Y-24078D01*
X-222675Y-22190D01*
X-218574Y-19450D01*
X-215086Y-15962D01*
X-212346Y-11861D01*
X-210459Y-7304D01*
X-209496Y-2466D01*
Y2466D01*
X-210459Y7304D01*
X-212346Y11861D01*
X-215086Y15962D01*
X-218574Y19450D01*
X-222675Y22190D01*
X-227232Y24078D01*
X-232070Y25040D01*
D02*
G37*
%LPD*%
D12*
X42764Y187500D02*
D03*
Y158500D02*
D03*
X68164Y187500D02*
D03*
Y158500D02*
D03*
X93564Y187500D02*
D03*
Y158500D02*
D03*
X1317400Y130000D02*
D03*
Y159000D02*
D03*
X1419000D02*
D03*
Y130000D02*
D03*
X1368200Y159000D02*
D03*
Y130000D02*
D03*
X-40600Y381300D02*
D03*
Y352300D02*
D03*
X149712Y381300D02*
D03*
Y352300D02*
D03*
X340025Y381300D02*
D03*
Y352300D02*
D03*
X530337Y381300D02*
D03*
Y352300D02*
D03*
X720650Y381300D02*
D03*
Y352300D02*
D03*
X910963Y381300D02*
D03*
Y352300D02*
D03*
X1101275Y381300D02*
D03*
Y352300D02*
D03*
X1291588Y381300D02*
D03*
Y352300D02*
D03*
X1481900Y381300D02*
D03*
Y352300D02*
D03*
D13*
X-227000Y123000D02*
D03*
Y116500D02*
D03*
Y110000D02*
D03*
Y103500D02*
D03*
Y97000D02*
D03*
D14*
X-254000Y120000D02*
D03*
Y100000D02*
D03*
D15*
X1373900Y309800D02*
D03*
X1402900D02*
D03*
X-150100D02*
D03*
X-121100D02*
D03*
X40400D02*
D03*
X69400D02*
D03*
X230900D02*
D03*
X259900D02*
D03*
X421400D02*
D03*
X450400D02*
D03*
X611900D02*
D03*
X640900D02*
D03*
X802400D02*
D03*
X831400D02*
D03*
X992900D02*
D03*
X1021900D02*
D03*
X1183400D02*
D03*
X1212400D02*
D03*
D30*
X-185836Y195836D02*
X-162500Y172500D01*
X-185836Y195836D02*
Y218492D01*
X1047500Y192500D02*
X1090000Y150000D01*
X1047500Y192500D02*
Y235000D01*
X1161800Y79300D02*
X1279010Y196510D01*
Y203610D02*
X1290200Y214800D01*
X1279010Y196510D02*
Y203610D01*
X-187500Y260579D02*
X-185579Y262500D01*
X-90000Y107500D02*
Y172500D01*
Y107500D02*
X-52500Y70000D01*
X555000D01*
X-162500Y172500D02*
X-90000D01*
X-10000D01*
X555000Y70000D02*
X635000Y-10000D01*
X-10000Y172500D02*
X17364Y199864D01*
X812500Y-10000D02*
X1148600D01*
X635000D02*
X812500D01*
X811000Y-8500D02*
Y30000D01*
Y-8500D02*
X812500Y-10000D01*
X1161800Y27500D02*
Y79300D01*
Y3200D02*
Y27500D01*
X1164300Y30000D01*
X1188600D01*
X1148600Y-10000D02*
X1161800Y3200D01*
X17364Y199864D02*
Y218492D01*
X1180536Y150000D02*
X1182768Y152232D01*
X1090000Y150000D02*
X1180536D01*
X1185000Y128000D02*
Y167600D01*
X1137800Y214800D02*
X1185000Y167600D01*
X1087000Y30000D02*
X1185000Y128000D01*
X-162500Y245956D02*
X-160436Y243892D01*
X-160000Y265042D02*
X1017458D01*
X-183036D02*
X-160000D01*
X-160436Y243892D02*
Y264606D01*
X-160000Y265042D01*
X-187500Y245556D02*
Y260579D01*
Y245556D02*
X-185836Y243892D01*
X1017458Y265042D02*
X1047500Y235000D01*
X1183400Y292500D02*
X1356600D01*
X1369710Y305610D01*
X1087000Y292500D02*
X1183400D01*
X992900D02*
X1087000D01*
X1087000D02*
X1087000Y292500D01*
Y214800D02*
Y292500D01*
X1183400Y292500D02*
Y309800D01*
X611900Y292500D02*
X992900D01*
Y309800D01*
X611900Y292500D02*
Y309800D01*
X421400Y292500D02*
X611900D01*
X-150100Y306300D02*
X-136300Y292500D01*
X40400D01*
Y309800D01*
Y292500D02*
X230900D01*
Y309800D01*
X421400Y292500D02*
Y309800D01*
X230900Y292500D02*
X421400D01*
X892300Y309800D02*
X910963Y328462D01*
Y352300D01*
X831400Y309800D02*
X892300D01*
X1373900Y306300D02*
Y309800D01*
X1373210Y305610D02*
X1373900Y306300D01*
X1369710Y305610D02*
X1373210D01*
X-150100Y306300D02*
Y309800D01*
X-62700D02*
X-40600Y331900D01*
Y352300D01*
X-121100Y309800D02*
X-62700D01*
X1212400D02*
X1277300D01*
X1291588Y324087D01*
X1464800Y309800D02*
X1481900Y326900D01*
Y352300D01*
X1402900Y309800D02*
X1464800D01*
X1291588Y324087D02*
Y352300D01*
X1082300Y309800D02*
X1101275Y328775D01*
Y352300D01*
X1021900Y309800D02*
X1082300D01*
X707300D02*
X720650Y323150D01*
Y352300D01*
X640900Y309800D02*
X707300D01*
X507300D02*
X530337Y332837D01*
Y352300D01*
X450400Y309800D02*
X507300D01*
X129800D02*
X149712Y329712D01*
Y352300D01*
X69400Y309800D02*
X129800D01*
X312300D02*
X340025Y337525D01*
Y352300D01*
X259900Y309800D02*
X312300D01*
D31*
X1317400Y130000D02*
X1317500Y129900D01*
Y94000D02*
Y129900D01*
X93564Y187500D02*
Y217300D01*
X68164Y187500D02*
Y217300D01*
X42764Y187500D02*
Y217300D01*
Y144736D02*
X72740Y114760D01*
X105000D01*
X68164Y146836D02*
X85000Y130000D01*
X107234D01*
X122487Y114747D01*
X112728Y140000D02*
X137725Y115004D01*
X100000Y140000D02*
X112728D01*
X93564Y146436D02*
X100000Y140000D01*
X93564Y146436D02*
Y158500D01*
X68164Y146836D02*
Y158500D01*
X42764Y144736D02*
Y158500D01*
X1419000Y94000D02*
Y130000D01*
X1368200Y94000D02*
Y130000D01*
X-205000Y132500D02*
Y257500D01*
X-197458Y265042D01*
X-183036D01*
X-214500Y123000D02*
X-205000Y132500D01*
X-185579Y262500D02*
X-183036Y265042D01*
X-227000Y123000D02*
X-214500D01*
D32*
X145560Y276546D02*
X306391D01*
X307587Y277742D01*
X144364D02*
X145560Y276546D01*
D33*
X-109636Y217300D02*
D03*
X-84236D02*
D03*
X-135036D02*
D03*
X-160436D02*
D03*
X17364D02*
D03*
X-8036D02*
D03*
X-33436D02*
D03*
X-58836D02*
D03*
X-185836D02*
D03*
X-109636Y242700D02*
D03*
X-135036D02*
D03*
X-160436D02*
D03*
X-33436D02*
D03*
X17364D02*
D03*
X-8036D02*
D03*
X-58836D02*
D03*
X-84236D02*
D03*
X144364Y217300D02*
D03*
X169764D02*
D03*
X68164D02*
D03*
X118964D02*
D03*
X93564D02*
D03*
X245964D02*
D03*
X296764D02*
D03*
X271364D02*
D03*
X195164D02*
D03*
X220564D02*
D03*
X42764D02*
D03*
X144364Y242700D02*
D03*
X118964D02*
D03*
X42764D02*
D03*
X93564D02*
D03*
X68164D02*
D03*
X245964D02*
D03*
X296764D02*
D03*
X271364D02*
D03*
X169764D02*
D03*
X220564D02*
D03*
X195164D02*
D03*
D34*
X-185836D02*
D03*
D35*
X-227000Y135000D02*
D03*
Y85000D02*
D03*
D36*
X-254000Y141000D02*
D03*
Y79000D02*
D03*
D37*
X861800Y214800D02*
D03*
X811000D02*
D03*
X912600D02*
D03*
X709400D02*
D03*
X760200D02*
D03*
X963400D02*
D03*
X1014200D02*
D03*
X658600D02*
D03*
X1239400D02*
D03*
X1442600D02*
D03*
X1290200D02*
D03*
X1391800D02*
D03*
X1341000D02*
D03*
X1188600D02*
D03*
X1137800D02*
D03*
X1087000D02*
D03*
X861800Y30000D02*
D03*
X811000D02*
D03*
X912600D02*
D03*
X709400D02*
D03*
X760200D02*
D03*
X963400D02*
D03*
X1014200D02*
D03*
X658600D02*
D03*
X1239400D02*
D03*
X1442600D02*
D03*
X1290200D02*
D03*
X1391800D02*
D03*
X1341000D02*
D03*
X1188600D02*
D03*
X1137800D02*
D03*
X1087000D02*
D03*
D38*
X1413800Y410600D02*
D03*
X1350300Y385200D02*
D03*
X-110200Y410600D02*
D03*
X-173700Y385200D02*
D03*
X80300Y410600D02*
D03*
X16800Y385200D02*
D03*
X270800Y410600D02*
D03*
X207300Y385200D02*
D03*
X461300Y410600D02*
D03*
X397800Y385200D02*
D03*
X651800Y410200D02*
D03*
X588300Y384800D02*
D03*
X842300Y410600D02*
D03*
X778800Y385200D02*
D03*
X1032800Y410200D02*
D03*
X969300Y384800D02*
D03*
X1223300Y410600D02*
D03*
X1159800Y385200D02*
D03*
D39*
X1388400Y359800D02*
D03*
X-135600D02*
D03*
X54900D02*
D03*
X245400D02*
D03*
X435900D02*
D03*
X626400Y359400D02*
D03*
X816900Y359800D02*
D03*
X1007400Y359400D02*
D03*
X1197900Y359800D02*
D03*
D40*
X345464Y0D02*
D03*
X-234536D02*
D03*
Y230000D02*
D03*
X345464D02*
D03*
D41*
X1045000Y130000D02*
D03*
X0Y0D02*
D03*
X260000Y480000D02*
D03*
X995000D02*
D03*
D03*
X1485000D02*
D03*
X1485000Y130000D02*
D03*
X-230000Y480000D02*
D03*
X520000Y0D02*
D03*
Y230000D02*
D03*
D42*
X1368200Y94000D02*
D03*
X122487Y114747D02*
D03*
X105000Y114760D02*
D03*
X137725Y115004D02*
D03*
X1419000Y94000D02*
D03*
X1317500D02*
D03*
X307587Y277742D02*
D03*
X144364D02*
D03*
M02*
