G04*
G04 #@! TF.GenerationSoftware,Altium Limited,Altium Designer,22.9.1 (49)*
G04*
G04 Layer_Color=8388736*
%FSLAX24Y24*%
%MOIN*%
G70*
G04*
G04 #@! TF.SameCoordinates,BC7F86F0-2A0E-43FE-BC97-1A6F13FA9336*
G04*
G04*
G04 #@! TF.FilePolarity,Negative*
G04*
G01*
G75*
%ADD16R,0.0611X0.0237*%
%ADD17R,0.0828X0.0986*%
%ADD18R,0.0710X0.0434*%
%ADD19R,0.0434X0.0710*%
%ADD20C,0.0080*%
%ADD21R,0.1261X0.1261*%
%ADD22R,0.1064X0.1064*%
%ADD23C,0.1773*%
%ADD24R,0.0789X0.0789*%
%ADD25R,0.0789X0.0789*%
%ADD26C,0.1852*%
%ADD27C,0.1655*%
%ADD28C,0.0580*%
D16*
X5555Y31819D02*
D03*
Y31563D02*
D03*
Y31307D02*
D03*
Y31051D02*
D03*
Y30795D02*
D03*
D17*
X4512Y32783D02*
D03*
Y29831D02*
D03*
D18*
X16176Y34358D02*
D03*
Y33217D02*
D03*
X66358Y32094D02*
D03*
Y33236D02*
D03*
X68358Y32094D02*
D03*
Y33236D02*
D03*
X70358Y32094D02*
D03*
Y33236D02*
D03*
X12894Y41988D02*
D03*
Y40846D02*
D03*
X20386Y41988D02*
D03*
Y40846D02*
D03*
X27879Y41988D02*
D03*
Y40846D02*
D03*
X35372Y41988D02*
D03*
Y40846D02*
D03*
X42864Y41988D02*
D03*
Y40846D02*
D03*
X50357Y41988D02*
D03*
Y40846D02*
D03*
X57849Y41988D02*
D03*
Y40846D02*
D03*
X65342Y41988D02*
D03*
Y40846D02*
D03*
X72835Y41988D02*
D03*
Y40846D02*
D03*
X18176Y34358D02*
D03*
Y33217D02*
D03*
X17176Y34358D02*
D03*
Y33217D02*
D03*
D19*
X68583Y39173D02*
D03*
X69724D02*
D03*
X8583D02*
D03*
X9724D02*
D03*
X16083D02*
D03*
X17224D02*
D03*
X23583D02*
D03*
X24724D02*
D03*
X31083D02*
D03*
X32224D02*
D03*
X38583D02*
D03*
X39724D02*
D03*
X46083D02*
D03*
X47224D02*
D03*
X53583D02*
D03*
X54724D02*
D03*
X61083D02*
D03*
X62224D02*
D03*
D20*
X5417Y32094D02*
D03*
Y30520D02*
D03*
D21*
X48421Y35433D02*
D03*
X46421D02*
D03*
X50421D02*
D03*
X42421D02*
D03*
X44421D02*
D03*
X52421D02*
D03*
X54421D02*
D03*
X40421D02*
D03*
X63287D02*
D03*
X71287D02*
D03*
X65287D02*
D03*
X69287D02*
D03*
X67287D02*
D03*
X61287D02*
D03*
X59287D02*
D03*
X57287D02*
D03*
X48421Y28157D02*
D03*
X46421D02*
D03*
X50421D02*
D03*
X42421D02*
D03*
X44421D02*
D03*
X52421D02*
D03*
X54421D02*
D03*
X40421D02*
D03*
X63287D02*
D03*
X71287D02*
D03*
X65287D02*
D03*
X69287D02*
D03*
X67287D02*
D03*
X61287D02*
D03*
X59287D02*
D03*
X57287D02*
D03*
D22*
X70154Y43142D02*
D03*
X67654Y42142D02*
D03*
X10154Y43142D02*
D03*
X7654Y42142D02*
D03*
X17654Y43142D02*
D03*
X15154Y42142D02*
D03*
X25154Y43142D02*
D03*
X22654Y42142D02*
D03*
X32654Y43142D02*
D03*
X30154Y42142D02*
D03*
X40154Y43126D02*
D03*
X37654Y42126D02*
D03*
X47654Y43142D02*
D03*
X45154Y42142D02*
D03*
X55154Y43126D02*
D03*
X52654Y42126D02*
D03*
X62654Y43142D02*
D03*
X60154Y42142D02*
D03*
D23*
X69154Y41142D02*
D03*
X9154D02*
D03*
X16654D02*
D03*
X24154D02*
D03*
X31654D02*
D03*
X39154Y41126D02*
D03*
X46654Y41142D02*
D03*
X54154Y41126D02*
D03*
X61654Y41142D02*
D03*
D24*
X10176Y35531D02*
D03*
X11176D02*
D03*
X9176D02*
D03*
X8176D02*
D03*
X15176D02*
D03*
X14176D02*
D03*
X13176D02*
D03*
X12176D02*
D03*
X7176D02*
D03*
X10176Y36532D02*
D03*
X9176D02*
D03*
X8176D02*
D03*
X13176D02*
D03*
X15176D02*
D03*
X14176D02*
D03*
X12176D02*
D03*
X11176D02*
D03*
X20176Y35531D02*
D03*
X21176D02*
D03*
X17176D02*
D03*
X19176D02*
D03*
X18176D02*
D03*
X24176D02*
D03*
X26176D02*
D03*
X25176D02*
D03*
X22176D02*
D03*
X23176D02*
D03*
X16176D02*
D03*
X20176Y36532D02*
D03*
X19176D02*
D03*
X16176D02*
D03*
X18176D02*
D03*
X17176D02*
D03*
X24176D02*
D03*
X26176D02*
D03*
X25176D02*
D03*
X21176D02*
D03*
X23176D02*
D03*
X22176D02*
D03*
D25*
X7176D02*
D03*
D26*
X28093Y26976D02*
D03*
X5258D02*
D03*
Y36031D02*
D03*
X28093D02*
D03*
D27*
X55634Y32094D02*
D03*
X14492Y26976D02*
D03*
X24728Y45874D02*
D03*
X53665D02*
D03*
D03*
X72957D02*
D03*
X72957Y32094D02*
D03*
X5437Y45874D02*
D03*
X34965Y26976D02*
D03*
Y36031D02*
D03*
D28*
X68358Y30677D02*
D03*
X19314Y31494D02*
D03*
X18626Y31494D02*
D03*
X19914Y31504D02*
D03*
X70358Y30677D02*
D03*
X66362D02*
D03*
X26602Y37911D02*
D03*
X20176D02*
D03*
M02*
