<svg version="1.1"
baseProfile="full" 
width="1920" height="1080"
xmlns="http://www.w3.org/2000/svg">
<line x1="790" y1="410" x2="600" y2="500" stroke="black" stroke-width="5" transform="rotate(1 790,410)"/>
<line x1="790" y1="405" x2="580" y2="435" stroke="black" stroke-width="5" transform="rotate(-1 790,405)"/>
<line x1="790" y1="395" x2="580" y2="365" stroke="black" stroke-width="5" transform="rotate(1 790,395)"/>
<line x1="790" y1="390" x2="600" y2="300" stroke="black" stroke-width="5" transform="rotate(-1 790,390)"/>
<line x1="810" y1="410" x2="1000" y2="500" stroke="black" stroke-width="5" transform="rotate(1 810,410)"/>
<line x1="810" y1="405" x2="1020" y2="435" stroke="black" stroke-width="5" transform="rotate(-1 810,405)"/>
<line x1="810" y1="395" x2="1020" y2="365" stroke="black" stroke-width="5" transform="rotate(1 810,395)"/>
<line x1="810" y1="390" x2="1000" y2="300" stroke="black" stroke-width="5" transform="rotate(-1 810,390)"/>
<ellipse cx="800" cy="400" rx="24" ry="30" fill="#3f2810" stroke="black" stroke-width="2" transform="rotate(0 800 400)" /> 
<circle cx="800" cy="430" r="15" fill="#3f2810" stroke="black" stroke-width="2" transform="rotate(10 800 423)" /> 
<ellipse cx="800" cy="300" rx="60" ry="75" fill="#3f2810" stroke="black" stroke-width="2" transform="rotate(0 800 300)" /> 
</svg>
