M48
;Layer_Color=9474304
;FILE_FORMAT=2:4
METRIC,LZ
;TYPE=PLATED
T3F00S00C0.7112
T4F00S00C1.0000
T5F00S00C1.4000
T6F00S00C1.5000
T7F00S00C2.7500
T8F00S00C4.1000
T9F00S00C4.5000
%
T03
X13175Y094
X13682
X1419
X307587Y277742
X144364
X137725Y115004
X122487Y114747
X105Y11476
T04
X-185836Y2173
Y2427
X-160436
X-135036
X-109636
X-084236
X-058836
X-033436
X-008036
X017364
Y2173
X-008036
X-033436
X-058836
X-084236
X-109636
X-135036
X-160436
X042764
Y2427
X068164
X093564
X118964
X144364
X169764
X195164
X220564
X245964
X271364
X296764
Y2173
X271364
X245964
X220564
X195164
X169764
X144364
X118964
X093564
X068164
T05
X12394Y03
X12902
X1341
X13918
X14426
X11886
X11378
X1087
X10142
X9634
X9126
X8618
X811
X7602
X7094
X6586
Y2148
X7094
X7602
X811
X8618
X9126
X9634
X10142
X1087
X11378
X11886
X12394
X12902
X1341
X13918
X14426
T06
X-1737Y3852
X-1102Y4106
X0168Y3852
X0803Y4106
X2073Y3852
X2708Y4106
X3978Y3852
X4613Y4106
X5883Y3848
X6518Y4102
X7788Y3852
X8423Y4106
X9693Y3848
X10328Y4102
X11598Y3852
X12233Y4106
X13503Y3852
X14138Y4106
T07
X52Y0
X0
X-23Y48
X26
X52Y23
X1045Y13
X995Y48
X1485
X1485Y13
T08
X-1356Y3598
X0549
X2454
X4359
X6264Y3594
X8169Y3598
X10074Y3594
X11979Y3598
X13884
T09
X345464Y0
X-234536
Y23
X345464
M30
