M48
;Layer_Color=9474304
;FILE_FORMAT=2:4
INCH,TZ
;TYPE=PLATED
T1F00S00C0.0280
T2F00S00C0.0394
T3F00S00C0.0551
T4F00S00C0.0591
T5F00S00C0.1083
T6F00S00C0.1614
T7F00S00C0.1772
;TYPE=NON_PLATED
T8F00S00C0.0256
%
T01
X66362Y30677
X68358
X70358
X26602Y37911
X20176
X19914Y31504
X19314Y31494
X18626Y31494
T02
X7176Y35531
X8176
X9176
X10176
X11176
X12176
X13176
X14176
X15176
Y36532
X14176
X13176
X12176
X11176
X10176
X9176
X8176
X7176
X16176
Y35531
X17176
X18176
X19176
X20176
X21176
X22176
X23176
X24176
X25176
X26176
Y36532
X25176
X24176
X23176
X22176
X21176
X20176
X19176
X18176
X17176
T03
X63287Y28157
X65287
X67287
X69287
X71287
X61287
X59287
X57287
X54421
X52421
X50421
X48421
X46421
X44421
X42421
X40421
Y35433
X42421
X44421
X46421
X48421
X50421
X52421
X54421
X57287
X59287
X61287
X63287
X65287
X67287
X69287
X71287
T04
X7654Y42142
X10154Y43142
X15154Y42142
X17654Y43142
X22654Y42142
X25154Y43142
X30154Y42142
X32654Y43142
X37654Y42126
X40154Y43126
X45154Y42142
X47654Y43142
X52654Y42126
X55154Y43126
X60154Y42142
X62654Y43142
X67654Y42142
X70154Y43142
T05
X34965Y26976
X14492
X5437Y45874
X24728
X34965Y36031
X55634Y32094
X53665Y45874
X72957
X72957Y32094
T06
X9154Y41142
X16654
X24154
X31654
X39154Y41126
X46654Y41142
X54154Y41126
X61654Y41142
X69154
T07
X28093Y26976
X5258
Y36031
X28093
T08
X5417Y30520
Y32094
M30
